<svg width="257" height="410" viewBox="0 0 257 410" fill="none" xmlns="http://www.w3.org/2000/svg">
<path d="M49.7095 128.512V108.348C49.7095 76.7827 64.9522 60.1797 94.5976 60.1797C124.243 60.1797 139.606 76.7827 139.606 108.348V128.512C139.606 160.238 124.363 176.681 94.7176 176.681C65.0722 176.681 49.7095 160.238 49.7095 128.512ZM107.28 131.953V104.908C107.28 92.6255 102.959 87.1045 94.7176 87.1045C86.4761 87.1045 81.9953 92.6255 81.9953 104.908V131.953C81.9953 144.235 86.4761 149.756 94.7176 149.756C102.959 149.756 107.28 144.235 107.28 131.953Z" stroke="white" stroke-width="1.33357" stroke-miterlimit="10"/>
<path d="M139.206 1.56738C136.685 27.8121 121.763 41.3746 94.7179 41.3746C67.673 41.3746 52.6303 27.8121 50.1099 1.56738H82.3156C83.3958 10.409 87.7166 14.4497 94.7179 14.4497C101.719 14.4497 105.96 10.409 107.04 1.56738H139.206Z" stroke="white" stroke-width="1.33357" stroke-miterlimit="10"/>
<path d="M207.578 1.56738V126.39H172.452V33.0531H151.688L172.452 1.56738H207.578Z" stroke="white" stroke-width="1.33357" stroke-miterlimit="10"/>
<path d="M207.578 145.194V176.68H151.688L172.452 145.194H207.578Z" stroke="white" stroke-width="1.33357" stroke-miterlimit="10"/>
<path d="M38.0983 245.748L41.2663 248.943V258.473H34.6517C34.2175 260.687 33.5099 262.718 32.5236 264.573C31.5427 266.428 30.2616 268.095 28.691 269.585C27.1205 271.075 25.1479 272.244 22.7787 273.091C20.4094 273.938 17.7561 274.361 14.8133 274.361C10.9003 274.361 7.52869 273.938 4.6931 273.091C4.07131 270.421 3.76042 266.417 3.76042 261.078C6.22078 261.448 9.05637 261.636 12.2672 261.636C15.7245 261.636 18.4208 261.352 20.3558 260.783C22.2909 260.215 23.6631 259.342 24.4672 258.162C21.921 257.996 19.6215 257.76 17.5738 257.449C15.5262 257.138 13.5108 256.667 11.5382 256.034C9.56023 255.402 7.90391 254.646 6.5692 253.767C5.23449 252.888 4.16244 251.762 3.35839 250.401C2.55435 249.039 2.14697 247.485 2.14697 245.742C2.14697 244.15 2.39891 242.462 2.90813 240.682C3.41736 238.903 4.17316 237.15 5.19161 235.419C6.2047 233.693 7.39468 232.127 8.76155 230.728C10.1284 229.329 11.7633 228.204 13.6662 227.346C15.5691 226.488 17.5685 226.06 19.659 226.06C21.5833 226.06 23.3415 226.44 24.9335 227.207C26.5255 227.973 27.8656 228.976 28.9537 230.219C30.0418 231.463 30.9906 232.958 31.8107 234.706C32.6255 236.453 33.2634 238.222 33.719 240.012C34.1746 241.803 34.5284 243.711 34.775 245.742H38.0983V245.748ZM11.7151 242.58C11.7151 243.448 11.967 244.081 12.4762 244.472C12.9854 244.863 14.1647 245.169 16.014 245.389C17.8633 245.608 20.8007 245.726 24.8156 245.748C23.4701 241.09 20.6882 238.763 16.4643 238.763C15.017 238.763 13.8592 239.123 13.0015 239.835C12.1439 240.548 11.7151 241.465 11.7151 242.585V242.58Z" fill="white"/>
<path d="M51.4185 245.749L54.5864 248.943V258.474H40.6176L37.4175 255.306V245.743H51.4185V245.749Z" fill="white"/>
<path d="M63.4948 262.919C64.6526 263.787 65.9123 264.875 67.2684 266.178C68.6246 267.48 69.7985 268.735 70.7901 269.935C68.5763 272.605 66.1428 274.931 63.4948 276.92C62.0261 275.783 60.4341 274.384 58.7134 272.728C56.7033 274.674 55.122 276.067 53.9642 276.92C50.7963 274.475 48.3574 272.149 46.6367 269.935C47.4836 268.836 48.6039 267.636 49.9869 266.333C51.3752 265.031 52.6992 263.889 53.9589 262.919C55.0148 263.707 56.5961 265.111 58.7081 267.143C60.552 265.384 62.144 263.975 63.4894 262.919H63.4948ZM54.586 258.475H53.9642L50.7695 255.307V245.744H51.1125C52.6027 245.744 53.7176 245.235 54.452 244.222C55.1864 243.209 55.5562 241.386 55.5562 238.76V227.959H67.322V241.96C67.322 244.876 66.9897 247.422 66.3304 249.598C65.6657 251.769 64.7491 253.49 63.5698 254.75C62.3906 256.015 61.0505 256.947 59.5496 257.558C58.0487 258.169 56.3978 258.475 54.5967 258.475H54.586Z" fill="white"/>
<path d="M75.54 243.856C77.5501 244.558 80.0319 245.159 82.9908 245.657C85.9497 246.156 88.5387 246.402 90.7525 246.402C93.1968 246.402 95.089 246.316 96.4344 246.14C97.7798 245.963 98.6643 245.727 99.0877 245.427C99.5112 245.126 99.7256 244.73 99.7256 244.231C99.7256 243.154 98.4874 241.953 96.0163 240.629C93.5452 239.305 89.7501 237.627 84.6364 235.601C85.0277 233.757 85.7835 231.592 86.9038 229.099C88.0188 226.607 89.1069 224.532 90.1629 222.876C93.1861 224.468 95.8394 226.28 98.1282 228.306C100.417 230.332 102.207 232.407 103.499 234.529C104.791 236.652 105.756 238.737 106.388 240.785C107.021 242.832 107.337 244.853 107.337 246.836C107.337 248.471 107.01 250.004 106.362 251.43C105.708 252.856 104.737 254.153 103.446 255.311C102.154 256.469 100.406 257.391 98.214 258.072C96.0217 258.752 93.5184 259.095 90.7043 259.095C85.821 259.095 81.1951 258.259 76.8265 256.581C75.9796 253.21 75.5508 248.964 75.5508 243.856H75.54Z" fill="white"/>
<path d="M147.062 245.748L150.23 248.943V258.473H143.616C143.181 260.687 142.474 262.718 141.488 264.573C140.507 266.428 139.225 268.095 137.655 269.585C136.084 271.075 134.112 272.244 131.743 273.091C129.373 273.938 126.72 274.361 123.777 274.361C119.864 274.361 116.493 273.938 113.657 273.091C113.035 270.421 112.724 266.417 112.724 261.078C115.185 261.448 118.02 261.636 121.231 261.636C124.688 261.636 127.385 261.352 129.32 260.783C131.255 260.215 132.627 259.342 133.431 258.162C130.885 257.996 128.585 257.76 126.538 257.449C124.49 257.138 122.475 256.667 120.502 256.034C118.524 255.402 116.868 254.646 115.533 253.767C114.198 252.888 113.126 251.762 112.322 250.401C111.518 249.039 111.111 247.485 111.111 245.742C111.111 244.15 111.363 242.462 111.872 240.682C112.381 238.903 113.137 237.15 114.155 235.419C115.169 233.693 116.359 232.127 117.725 230.728C119.092 229.329 120.727 228.204 122.63 227.346C124.533 226.488 126.532 226.06 128.623 226.06C130.547 226.06 132.305 226.44 133.897 227.207C135.489 227.973 136.829 228.976 137.918 230.219C139.006 231.463 139.954 232.958 140.775 234.706C141.589 236.453 142.227 238.222 142.683 240.012C143.138 241.803 143.492 243.711 143.739 245.742H147.062V245.748ZM120.679 242.58C120.679 243.448 120.931 244.081 121.44 244.472C121.949 244.863 123.129 245.169 124.978 245.389C126.827 245.608 129.765 245.726 133.779 245.748C132.434 241.09 129.652 238.763 125.428 238.763C123.981 238.763 122.823 239.123 121.965 239.835C121.108 240.548 120.679 241.465 120.679 242.585V242.58Z" fill="white"/>
<path d="M151.779 228.581C148.675 226.18 146.242 223.853 144.483 221.597C146.242 219.34 148.675 217.014 151.779 214.612C153.022 215.545 154.614 216.939 156.56 218.804C158.275 217.148 159.873 215.754 161.341 214.612C163.989 216.601 166.423 218.927 168.637 221.597C166.423 224.266 163.989 226.593 161.341 228.581C159.873 227.445 158.281 226.046 156.56 224.389C154.614 226.249 153.022 227.648 151.779 228.581ZM167.677 245.75L170.872 248.945V258.475H170.561C168.16 258.475 166.284 257.746 164.927 256.288C163.571 254.83 162.606 252.488 162.028 249.256C161.116 252.424 159.626 254.75 157.557 256.24C155.488 257.73 153.033 258.475 150.197 258.475H149.576L146.376 255.308V245.745H146.719C148.209 245.745 149.324 245.236 150.058 244.222C150.792 243.209 151.162 241.387 151.162 238.76V233.046H162.928V239.409C162.928 241.767 163.287 243.413 164 244.346C164.713 245.278 165.839 245.745 167.366 245.745H167.677V245.75Z" fill="white"/>
<path d="M181.024 245.749L184.192 248.943V258.474H170.224L167.023 255.306V245.743H181.024V245.749Z" fill="white"/>
<path d="M226.474 227.964H238.24V242.587C238.24 245.503 237.908 248.049 237.248 250.226C236.584 252.396 235.667 254.117 234.488 255.377C233.309 256.642 231.969 257.574 230.468 258.186C228.967 258.797 227.316 259.102 225.515 259.102H224.893C222.615 259.038 220.814 258.282 219.49 256.819C218.166 255.361 217.233 253.056 216.697 249.909C215.786 253.077 214.296 255.398 212.227 256.878C210.158 258.357 207.703 259.097 204.867 259.097H204.213C201.876 259.032 200.048 258.245 198.735 256.722C197.422 255.2 196.494 252.793 195.958 249.502C195.026 252.584 193.53 254.851 191.472 256.299C189.413 257.746 186.985 258.47 184.192 258.47H183.571L180.371 255.302V245.739H180.714C182.204 245.739 183.319 245.23 184.053 244.217C184.787 243.204 185.157 241.381 185.157 238.755V233.041H196.923V240.025C196.923 242.383 197.282 244.034 197.995 244.978C198.708 245.921 199.834 246.393 201.361 246.393C202.889 246.393 203.967 245.884 204.712 244.871C205.457 243.858 205.827 242.035 205.827 239.409V233.046H217.56V240.03C217.56 242.389 217.925 244.04 218.648 244.983C219.372 245.927 220.503 246.398 222.031 246.398C223.558 246.398 224.63 245.889 225.37 244.876C226.104 243.863 226.474 242.04 226.474 239.414V227.959V227.964Z" fill="white"/>
<path d="M244.571 258.474V212.687H256.337V258.474H244.571Z" fill="white"/>
<path d="M51.6705 333.876L54.8652 337.071V346.601H52.63C48.1595 346.601 44.9648 344.586 43.0351 340.549C42.2686 342.618 41.1483 344.248 39.6688 345.438C38.1894 346.628 36.5277 347.223 34.6891 347.223C30.9423 347.223 27.2169 344.897 23.513 340.238H19.5732C18.1849 340.238 17.2039 340.506 16.625 341.048C16.0461 341.584 15.7567 342.506 15.7567 343.808C15.7567 347.035 16.8126 352.637 18.9246 360.602H9.07775C5.88839 352.036 4.29639 345.422 4.29639 340.764C4.29639 338.882 4.52152 337.178 4.96642 335.655C5.41132 334.133 6.10816 332.772 7.06229 331.571C8.01642 330.37 9.2868 329.421 10.8788 328.73C12.4708 328.038 14.3576 327.636 16.5285 327.535C16.7751 326.275 17.1182 325.042 17.5523 323.841C17.9865 322.641 18.5708 321.445 19.3052 320.255C20.0395 319.065 20.8811 318.031 21.8352 317.152C22.7893 316.273 23.9418 315.56 25.2979 315.008C26.6541 314.461 28.1174 314.188 29.6934 314.188C31.7839 314.188 33.6868 314.627 35.4074 315.506C37.1227 316.385 38.5539 317.591 39.6903 319.124C40.8267 320.657 41.7433 322.399 42.4347 324.356C43.1262 326.312 43.5979 328.43 43.8445 330.703C44.1125 331.839 44.6753 332.654 45.5383 333.141C46.396 333.629 47.7039 333.87 49.4674 333.87H51.6705V333.876ZM31.0281 337.071C33.14 337.071 34.196 335.634 34.196 332.755C34.196 331.909 34.1424 331.169 34.0406 330.536C33.9387 329.904 33.7511 329.293 33.4831 328.703C33.2151 328.113 32.8023 327.663 32.2395 327.352C31.682 327.041 30.9745 326.886 30.1276 326.886C27.769 326.886 25.6464 328.14 23.7649 330.644C25.5874 333.249 26.9704 334.975 27.9245 335.811C28.8786 336.647 29.9131 337.071 31.0281 337.071Z" fill="white"/>
<path d="M65.0176 333.875L68.1856 337.07V346.601H54.2167L51.0166 343.433V333.87H65.0176V333.875Z" fill="white"/>
<path d="M78.3702 333.875L81.5381 337.07V346.601H67.5692L64.3691 343.433V333.87H78.3702V333.875Z" fill="white"/>
<path d="M91.7174 333.875L94.8853 337.07V346.601H80.9164L77.7217 343.433V333.87H91.7227L91.7174 333.875Z" fill="white"/>
<path d="M105.064 333.875L108.232 337.07V346.601H94.2631L91.063 343.433V333.87H105.064V333.875Z" fill="white"/>
<path d="M118.417 333.875L121.585 337.07V346.601H107.616L104.416 343.433V333.87H118.417V333.875Z" fill="white"/>
<path d="M131.764 333.875L134.932 337.07V346.601H120.963L117.768 343.433V333.87H131.769L131.764 333.875Z" fill="white"/>
<path d="M145.111 333.875L148.279 337.07V346.601H134.31L131.11 343.433V333.87H145.111V333.875Z" fill="white"/>
<path d="M158.463 333.875L161.631 337.07V346.601H147.663L144.468 343.433V333.87H158.469L158.463 333.875Z" fill="white"/>
<path d="M171.81 333.875L174.978 337.07V346.601H161.009L157.814 343.433V333.87H171.815L171.81 333.875Z" fill="white"/>
<path d="M185.157 333.875L188.325 337.07V346.601H174.356L171.156 343.433V333.87H185.157V333.875Z" fill="white"/>
<path d="M198.504 333.875L201.672 337.07V346.601H187.704L184.509 343.433V333.87H198.51L198.504 333.875Z" fill="white"/>
<path d="M221.388 303.359C223.124 303.359 224.727 303.633 226.185 304.179C227.643 304.726 228.903 305.466 229.959 306.399C231.015 307.331 231.947 308.457 232.767 309.781C233.582 311.105 234.258 312.493 234.783 313.94C235.308 315.388 235.742 316.948 236.069 318.615C236.402 320.282 236.632 321.89 236.766 323.444C236.9 324.999 236.97 326.569 236.97 328.161C236.97 330.086 236.745 331.924 236.289 333.672C235.834 335.419 235.088 337.091 234.054 338.683C233.019 340.275 231.728 341.653 230.173 342.811C228.619 343.969 226.678 344.891 224.352 345.571C222.025 346.252 219.42 346.595 216.542 346.595H201.051L197.851 343.427V333.865H214.023C216.671 333.865 218.906 333.704 220.728 333.382C222.551 333.061 223.928 332.594 224.872 331.983C225.815 331.372 226.474 330.718 226.86 330.011C227.241 329.308 227.434 328.499 227.434 327.588C227.434 327.132 227.391 326.387 227.311 325.352C226.298 326.553 225 327.593 223.414 328.472C221.832 329.351 220.181 329.994 218.461 330.396C216.74 330.799 215.009 330.943 213.261 330.831C211.514 330.718 209.949 330.343 208.571 329.716C207.194 329.083 206.073 328.086 205.205 326.719C204.337 325.352 203.902 323.707 203.902 321.783C203.902 320.212 204.149 318.577 204.647 316.878C205.146 315.179 205.902 313.528 206.915 311.909C207.928 310.295 209.118 308.854 210.485 307.578C211.852 306.307 213.481 305.278 215.373 304.506C217.266 303.729 219.27 303.343 221.382 303.343L221.388 303.359ZM216.638 298.921C213.47 296.477 211.032 294.15 209.311 291.937C210.158 290.838 211.278 289.637 212.661 288.334C214.049 287.032 215.373 285.89 216.633 284.92C217.689 285.708 219.27 287.112 221.382 289.144C223.226 287.386 224.818 285.976 226.164 284.92C227.321 285.788 228.581 286.876 229.937 288.179C231.293 289.482 232.467 290.736 233.459 291.937C231.245 294.606 228.812 296.932 226.164 298.921C224.695 297.785 223.103 296.386 221.382 294.729C219.372 296.675 217.791 298.074 216.633 298.921H216.638ZM213.438 319.906C213.438 320.732 213.765 321.338 214.414 321.724C215.068 322.104 216.354 322.34 218.279 322.42C220.203 322.501 222.915 322.34 226.41 321.922C225.745 320.164 224.738 318.749 223.382 317.682C222.025 316.615 220.305 316.085 218.214 316.085C216.746 316.085 215.582 316.444 214.719 317.157C213.862 317.87 213.433 318.786 213.433 319.901L213.438 319.906Z" fill="white"/>
<path d="M238.862 348.498C240.02 348.498 240.926 348.412 241.58 348.235C242.234 348.059 242.807 347.673 243.301 347.072C243.799 346.472 244.131 345.625 244.308 344.526C244.485 343.427 244.571 341.937 244.571 340.056V316.09H256.337V342.913C256.337 348.938 254.884 353.451 251.974 356.463C249.068 359.476 245.016 361.063 239.822 361.229C239.179 358.206 238.862 353.966 238.862 348.503V348.498Z" fill="white"/>
<path d="M28.072 396.935C28.072 395.225 27.4716 393.874 26.2709 392.877C25.0702 391.88 22.8725 390.936 19.6778 390.036C16.4831 389.141 14.1513 388.16 12.6826 387.098C10.5921 385.603 9.54686 383.636 9.54686 381.202C9.54686 378.769 10.5171 376.925 12.4629 375.445C14.4033 373.971 16.8904 373.231 19.9136 373.231C21.9613 373.231 23.7945 373.628 25.4133 374.416C27.0321 375.209 28.2864 376.308 29.1762 377.723C30.066 379.138 30.5109 380.714 30.5109 382.451H27.8844C27.8844 380.339 27.1661 378.64 25.7242 377.359C24.2823 376.078 22.3472 375.435 19.9136 375.435C17.4801 375.435 15.6737 375.96 14.2746 377.016C12.8756 378.072 12.1734 379.449 12.1734 381.143C12.1734 382.714 12.8005 383.995 14.0602 384.987C15.3199 385.978 17.33 386.852 20.1012 387.608C22.8725 388.364 24.9684 389.151 26.3996 389.961C27.8308 390.77 28.9028 391.746 29.6211 392.877C30.3394 394.008 30.7039 395.343 30.7039 396.886C30.7039 399.32 29.7337 401.266 27.7879 402.74C25.8421 404.208 23.2853 404.943 20.1012 404.943C17.925 404.943 15.9256 404.552 14.1138 403.774C12.2967 402.997 10.9191 401.909 9.98104 400.51C9.043 399.111 8.57129 397.508 8.57129 395.696H11.1764C11.1764 397.873 11.9911 399.588 13.6153 400.848C15.2395 402.107 17.405 402.734 20.1012 402.734C22.5027 402.734 24.4324 402.204 25.8903 401.142C27.3483 400.081 28.072 398.677 28.072 396.924V396.935Z" fill="white"/>
<path d="M57.2641 375.864H46.6829V404.526H44.0724V375.864H33.5127V373.661H57.2587V375.864H57.2641Z" fill="white"/>
<path d="M83.5079 373.655V394.726C83.4918 396.806 83.0362 398.612 82.1303 400.151C81.2244 401.689 79.9487 402.874 78.3031 403.699C76.6575 404.525 74.7653 404.937 72.6319 404.937C69.3782 404.937 66.7785 404.053 64.822 402.279C62.8655 400.504 61.8524 398.049 61.7773 394.914V373.649H64.3663V394.533C64.3663 397.133 65.1061 399.154 66.5909 400.585C68.0757 402.021 70.0911 402.734 72.6319 402.734C75.1727 402.734 77.1881 402.016 78.6622 400.574C80.1363 399.132 80.876 397.127 80.876 394.554V373.649H83.5025L83.5079 373.655Z" fill="white"/>
<path d="M90.7817 404.524V373.654H99.4118C101.942 373.654 104.209 374.228 106.219 375.38C108.224 376.533 109.789 378.184 110.915 380.328C112.041 382.477 112.598 384.922 112.598 387.661V390.502C112.598 393.257 112.041 395.701 110.926 397.834C109.811 399.968 108.235 401.613 106.209 402.777C104.182 403.934 101.851 404.513 99.2242 404.513H90.7871L90.7817 404.524ZM93.3868 375.863V402.321H99.2403C102.489 402.321 105.099 401.244 107.061 399.083C109.023 396.929 110.009 394.007 110.009 390.33V387.612C110.009 384.064 109.039 381.218 107.104 379.084C105.169 376.951 102.617 375.873 99.4493 375.857H93.3868V375.863Z" fill="white"/>
<path d="M122.391 404.524H119.786V373.654H122.391V404.524Z" fill="white"/>
<path d="M153.577 390.765C153.577 393.606 153.084 396.098 152.103 398.248C151.122 400.397 149.718 402.048 147.896 403.206C146.073 404.364 143.966 404.943 141.576 404.943C137.974 404.943 135.058 403.651 132.844 401.073C130.625 398.494 129.515 395.01 129.515 390.631V387.452C129.515 384.638 130.014 382.151 131.011 379.98C132.008 377.809 133.417 376.142 135.24 374.979C137.062 373.816 139.164 373.231 141.538 373.231C143.913 373.231 146.009 373.805 147.826 374.947C149.643 376.094 151.042 377.713 152.034 379.803C153.025 381.894 153.54 384.316 153.583 387.077V390.765H153.577ZM150.967 387.415C150.967 383.7 150.125 380.784 148.442 378.683C146.759 376.576 144.454 375.526 141.533 375.526C138.612 375.526 136.376 376.582 134.677 378.694C132.973 380.806 132.12 383.759 132.12 387.543V390.765C132.12 394.426 132.967 397.326 134.666 399.47C136.36 401.609 138.665 402.681 141.576 402.681C144.486 402.681 146.834 401.625 148.485 399.513C150.136 397.401 150.967 394.458 150.967 390.684V387.42V387.415Z" fill="white"/>
<path d="M181.18 391.645H172.212V404.515H169.586V373.646H179.615C182.906 373.646 185.479 374.444 187.334 376.036C189.183 377.634 190.11 379.863 190.11 382.726C190.11 384.704 189.532 386.446 188.374 387.957C187.216 389.469 185.661 390.514 183.71 391.093L191.429 404.237V404.51H188.652L181.191 391.64L181.18 391.645ZM172.212 389.442H180.205C182.397 389.442 184.155 388.82 185.485 387.571C186.814 386.328 187.479 384.714 187.479 382.731C187.479 380.55 186.787 378.861 185.399 377.655C184.016 376.454 182.07 375.849 179.567 375.849H172.212V389.437V389.442Z" fill="white"/>
<path d="M219.935 390.754C219.935 393.692 219.415 396.254 218.375 398.441C217.336 400.622 215.856 402.273 213.932 403.388L219.549 408.288L217.748 409.901L211.45 404.455C210.292 404.782 209.113 404.943 207.907 404.943C205.559 404.943 203.474 404.364 201.641 403.206C199.807 402.048 198.392 400.403 197.39 398.275C196.388 396.147 195.878 393.692 195.862 390.91V387.452C195.862 384.638 196.361 382.151 197.358 379.98C198.355 377.809 199.765 376.142 201.587 374.979C203.41 373.816 205.5 373.231 207.864 373.231C210.228 373.231 212.377 373.81 214.205 374.968C216.028 376.126 217.437 377.788 218.434 379.948C219.431 382.108 219.93 384.606 219.93 387.431V390.76L219.935 390.754ZM217.325 387.404C217.325 383.689 216.483 380.773 214.8 378.672C213.117 376.566 210.807 375.515 207.869 375.515C204.932 375.515 202.734 376.571 201.035 378.683C199.33 380.795 198.478 383.748 198.478 387.533V390.754C198.478 394.415 199.325 397.315 201.014 399.459C202.702 401.598 205.002 402.67 207.912 402.67C210.823 402.67 213.155 401.619 214.822 399.513C216.489 397.406 217.325 394.469 217.325 390.695V387.409V387.404Z" fill="white"/>
<path d="M230.045 373.645L241.43 400.886L252.858 373.645H256.337V404.515H253.732V391.072L253.946 377.29L242.454 404.51H240.438L228.989 377.392L229.203 390.981V404.505H226.598V373.635H230.056L230.045 373.645Z" fill="white"/>
</svg>
