<svg width="105" height="40" viewBox="0 0 105 40" fill="none" xmlns="http://www.w3.org/2000/svg">
<g id="&#216;&#180;&#216;&#185;&#216;&#167;&#216;&#177;" opacity="0.4" clip-path="url(#clip0_652_5225)">
<path id="&#216;&#167;&#217;&#132;&#217;&#133;&#216;&#170;&#216;&#172;&#217;&#135; (&#217;&#129;&#217;&#138;&#217;&#131;&#216;&#170;&#217;&#136;&#216;&#177;)" d="M98.1071 8.15328C92.4835 4.06307 86.185 1.24249 79.5069 0.273438H77.4722C75.2886 0.554774 73.4582 1.16794 72.5958 3.42345L72.346 3.91639C71.044 5.94346 71.3394 8.92515 71.8391 11.0532C73.0954 16.4034 75.3031 21.417 76.8357 26.6782C77.2608 28.1474 77.6716 29.6046 78.0656 31.0522H78.4667C80.4438 30.2875 82.3943 29.5132 84.4386 28.9049C87.9194 27.8685 91.4842 26.9668 94.9146 25.7837C98.0374 24.7041 102.001 23.3767 103.586 20.2147C103.659 20.1281 103.714 19.9887 103.755 19.7963C104.233 19.1903 104.555 18.4545 104.72 17.5889V16.5693C103.968 12.9913 100.891 10.1779 98.1071 8.15328ZM92.2409 20.4263C91.2464 21.8931 88.2341 23.3407 86.9177 23.9514C85.2409 24.7305 82.1685 25.5817 80.8161 24.2015C78.8943 22.2418 78.3082 17.5384 78.3779 15.0184C78.6397 5.55151 96.7354 13.7992 92.2409 20.4263ZM78.6301 29.3593C78.6181 29.3305 78.6085 29.304 78.6037 29.2728C78.6109 29.3064 78.6229 29.3377 78.6349 29.3666C78.6325 29.3642 78.6301 29.3617 78.6301 29.3593ZM79.2475 29.6768C79.2451 29.6768 79.2403 29.6768 79.2378 29.6768C79.2691 29.6695 79.3003 29.6623 79.3315 29.6479C79.3051 29.6623 79.2763 29.6719 79.2475 29.6768Z" fill="#3A405A"/>
<path id="&#216;&#167;&#217;&#132;&#217;&#133;&#216;&#170;&#216;&#172;&#217;&#135; (&#217;&#129;&#217;&#138;&#217;&#131;&#216;&#170;&#217;&#136;&#216;&#177;)_2" d="M45.3693 13.769H49.848C49.9735 13.769 50.0722 13.6703 50.0722 13.5446V7.55898C50.0722 7.4468 50.1349 7.3436 50.238 7.28976L51.6547 6.5853C51.7937 6.51351 51.8654 6.55837 51.8654 6.71542V13.9754C51.8654 14.8907 51.1212 15.6311 50.2067 15.6311H50.2022L34.6098 15.5458C34.4708 15.5458 34.3677 15.6042 34.2915 15.7253L32.6775 18.3413C32.6103 18.4534 32.4668 18.4848 32.3592 18.4175C32.274 18.3637 32.2292 18.265 32.2516 18.1663L32.7403 15.9452C32.7806 15.7567 32.7044 15.658 32.5117 15.6535L29.6962 15.5548C28.8713 15.5279 28.2168 14.8459 28.2168 14.0158V1.73933C28.2168 1.57331 28.2885 1.45665 28.4365 1.38037L29.7052 0.729754C29.9069 0.626553 30.0101 0.689372 30.0101 0.91821V13.4504C30.0101 13.6299 30.0952 13.7017 30.2701 13.6658C30.8125 13.5536 31.364 13.5132 31.9154 13.5491C31.9468 13.5536 32.0544 13.585 32.1889 13.6344C32.3906 13.7017 32.5565 13.6703 32.6775 13.5402C32.7717 13.437 32.812 13.2799 32.7986 13.0645C32.6865 11.5748 32.6775 10.0852 32.7627 8.59996C32.7851 8.28138 32.8793 8.25895 33.0452 8.52817L33.7983 9.73966C33.8701 9.85184 33.9552 9.8653 34.0539 9.77107C36.4255 7.57693 39.3395 6.45069 42.796 6.39236C46.1942 6.33851 45.1362 11.346 45.1452 13.5446C45.1452 13.6927 45.2214 13.769 45.3693 13.769ZM42.4598 8.43394C38.5953 8.1737 35.9323 9.75761 34.4753 13.1812C34.417 13.3248 34.4842 13.4908 34.6232 13.5491C34.6591 13.5626 34.695 13.5716 34.7308 13.5716L43.0919 13.5402C43.2443 13.5402 43.3654 13.419 43.3654 13.2709V13.2664L43.3071 9.32686C43.3026 8.85123 42.9305 8.46535 42.4598 8.43394Z" fill="#3A405A"/>
<path id="&#216;&#167;&#217;&#132;&#217;&#133;&#216;&#170;&#216;&#172;&#217;&#135; (&#217;&#129;&#217;&#138;&#217;&#131;&#216;&#170;&#217;&#136;&#216;&#177;)_3" d="M22.9266 11.1644C22.9759 11.3125 23.1329 11.3932 23.2808 11.3484C23.3974 11.3125 23.4781 11.2003 23.4781 11.0747L23.6798 1.95257C23.6843 1.80899 23.7515 1.70579 23.8815 1.64297L25.0606 1.07312C25.2489 0.987867 25.3475 1.0462 25.3565 1.24811C25.5896 5.6723 26.0917 12.1426 22.6352 15.4944C22.5187 15.611 22.3618 15.6738 22.1959 15.6738H20.0664C19.9857 15.6738 19.9229 15.6065 19.9229 15.5303C19.9229 15.4899 19.9409 15.454 19.9722 15.427L21.8372 13.7534C21.9897 13.6143 22.0345 13.39 21.9448 13.206C20.833 10.9041 19.7884 8.57539 18.8156 6.22869C18.2373 4.83323 18.3852 3.81468 18.9008 2.48653C18.9635 2.32948 19.1429 2.2532 19.2998 2.32051C19.4118 2.36538 19.4881 2.47307 19.4881 2.59422C19.5105 5.14283 22.0255 8.66065 22.9266 11.1644Z" fill="#3A405A"/>
<path id="&#216;&#167;&#217;&#132;&#217;&#133;&#216;&#170;&#216;&#172;&#217;&#135; (&#217;&#129;&#217;&#138;&#217;&#131;&#216;&#170;&#217;&#136;&#216;&#177;)_4" d="M54.7798 15.441V1.88579C54.7798 1.82746 54.8112 1.77361 54.8605 1.74669L56.3534 0.965954C56.4296 0.925571 56.5192 0.952493 56.5596 1.02877C56.573 1.05121 56.5775 1.07364 56.5775 1.10056L56.5686 15.441C56.5686 15.5263 56.5013 15.5936 56.4161 15.5936H54.9322C54.8515 15.5936 54.7798 15.5263 54.7798 15.441Z" fill="#3A405A"/>
<path id="&#216;&#167;&#217;&#132;&#217;&#133;&#216;&#170;&#216;&#172;&#217;&#135; (&#217;&#129;&#217;&#138;&#217;&#131;&#216;&#170;&#217;&#136;&#216;&#177;)_5" d="M49.2646 3.03092C49.4663 3.03989 49.6277 3.2104 49.6187 3.41231L49.5918 4.4174C49.5829 4.6956 49.3677 4.91995 49.1077 4.91097L48.2828 4.88854C48.0227 4.87957 47.8165 4.65073 47.8255 4.36805L47.8569 3.36296C47.8613 3.16104 48.0317 2.99951 48.2334 3.004L49.2646 3.03092Z" fill="#3A405A"/>
<path id="&#216;&#167;&#217;&#132;&#217;&#133;&#216;&#170;&#216;&#172;&#217;&#135; (&#217;&#129;&#217;&#138;&#217;&#131;&#216;&#170;&#217;&#136;&#216;&#177;)_6" d="M50.1885 3.30902C50.1885 3.13852 50.323 3.00391 50.4933 3.00391H51.3765C51.6455 3.00391 51.8652 3.16993 51.8652 3.37633V4.51603C51.8652 4.72243 51.6455 4.88845 51.3765 4.88845H50.4933C50.323 4.88845 50.1885 4.75384 50.1885 4.58333V3.30902Z" fill="#3A405A"/>
<path id="&#216;&#167;&#217;&#132;&#217;&#133;&#216;&#170;&#216;&#172;&#217;&#135; (&#217;&#129;&#217;&#138;&#217;&#131;&#216;&#170;&#217;&#136;&#216;&#177;)_7" d="M9.24336 7.72838C9.23439 7.92581 9.06852 8.07837 8.87126 8.0694L8.1943 8.04247C7.81324 8.02453 7.51286 7.72838 7.52631 7.37391L7.55321 6.65599C7.57115 6.30152 7.89393 6.02781 8.275 6.04576L8.95196 6.07268C9.14921 6.08165 9.30613 6.24767 9.29716 6.4451L9.24336 7.72838Z" fill="#3A405A"/>
<path id="&#216;&#167;&#217;&#132;&#217;&#133;&#216;&#170;&#216;&#172;&#217;&#135; (&#217;&#129;&#217;&#138;&#217;&#131;&#216;&#170;&#217;&#136;&#216;&#177;)_8" d="M9.94731 7.25832V6.50001C9.94731 6.32053 10.0818 6.17246 10.2611 6.15003L11.3729 6.01093C11.8526 5.95708 12.1889 6.33848 12.1261 6.85897C12.0813 7.24934 11.8168 7.62625 11.4671 7.80573C11.0591 8.01213 10.6063 8.0929 10.1042 8.04803C9.92041 8.03457 9.82626 7.93137 9.82178 7.74291C9.82178 7.66215 9.83971 7.58587 9.87557 7.51856C9.92489 7.4378 9.94731 7.35254 9.94731 7.25832Z" fill="#3A405A"/>
<path id="&#216;&#167;&#217;&#132;&#217;&#133;&#216;&#170;&#216;&#172;&#217;&#135; (&#217;&#129;&#217;&#138;&#217;&#131;&#216;&#170;&#217;&#136;&#216;&#177;)_9" d="M14.9912 13.4373V9.18808C14.9912 9.01758 15.0854 8.86053 15.2378 8.77977L16.5379 8.08877C16.6231 8.0439 16.7307 8.07531 16.7755 8.16056C16.789 8.18748 16.7979 8.2144 16.7979 8.24581L16.78 13.9982C16.7755 14.927 16.0223 15.6763 15.0988 15.6763C12.6869 15.6763 5.63935 16.282 3.7385 15.1603C1.89144 14.0744 1.82867 11.4092 2.48321 9.53807C2.52805 9.38551 2.68944 9.29577 2.84635 9.34064C2.98084 9.38102 3.06602 9.51115 3.05257 9.65024C2.92256 12.3021 4.20923 13.6751 6.91257 13.7603C9.52625 13.8411 12.131 13.8276 14.7267 13.7155C14.8791 13.7065 14.9957 13.5853 14.9912 13.4373Z" fill="#3A405A"/>
<path id="&#216;&#167;&#217;&#132;&#217;&#133;&#216;&#170;&#216;&#172;&#217;&#135; (&#217;&#129;&#217;&#138;&#217;&#131;&#216;&#170;&#217;&#136;&#216;&#177;)_10" d="M14.1661 21.8464H15.7711C16.1477 21.8464 16.4525 22.147 16.457 22.5239C16.457 22.6585 16.4212 22.7886 16.345 22.9008C15.9953 23.4348 15.4483 23.6053 14.7086 23.4034C14.2244 23.2732 13.9823 23.4617 13.9823 23.9642V29.5147C13.9823 29.8646 14.2424 30.1563 14.5876 30.1967L16.2732 30.4031C16.6543 30.4435 16.9322 30.7845 16.8964 31.1659C16.865 31.4889 16.6139 31.7447 16.2912 31.7851C14.7893 32.0049 12.1756 32.0543 12.1846 29.6986C12.1936 27.7109 12.1936 25.7231 12.1846 23.7354C12.1846 23.5604 12.0411 23.4168 11.8618 23.4168H11.1848C10.9831 23.4168 10.8217 23.2598 10.8127 23.0623L10.7858 22.2547C10.7814 22.1021 10.8531 22.0124 11.001 21.9899L11.938 21.8329C12.1039 21.8015 12.1891 21.7028 12.1891 21.5323V19.5894C12.1891 19.4144 12.2787 19.3157 12.4536 19.2933L13.6551 19.1407C13.7985 19.1228 13.933 19.2259 13.9509 19.374C13.9509 19.383 13.9509 19.3965 13.9509 19.4054L13.9285 21.6086C13.9285 21.7656 14.0092 21.8464 14.1661 21.8464Z" fill="#3A405A"/>
<path id="&#216;&#167;&#217;&#132;&#217;&#133;&#216;&#170;&#216;&#172;&#217;&#135; (&#217;&#129;&#217;&#138;&#217;&#131;&#216;&#170;&#217;&#136;&#216;&#177;)_11" d="M18.1475 20.8023L18.282 19.6267C18.2954 19.5235 18.3537 19.4338 18.4389 19.3844C18.8513 19.1511 19.1293 19.0524 19.2727 19.0838C19.8331 19.2094 20.2949 19.7344 20.2994 20.2594C20.3039 20.6318 20.0707 20.9145 19.7031 20.9818L18.5644 21.1882C18.3716 21.2241 18.1878 21.0985 18.1519 20.9055C18.1475 20.8696 18.1475 20.8382 18.1475 20.8023Z" fill="#3A405A"/>
<path id="&#216;&#167;&#217;&#132;&#217;&#133;&#216;&#170;&#216;&#172;&#217;&#135; (&#217;&#129;&#217;&#138;&#217;&#131;&#216;&#170;&#217;&#136;&#216;&#177;)_12" d="M41.3343 19.1758H42.4551C42.6389 19.1758 42.7913 19.3283 42.7913 19.5123V31.5016C42.7913 31.6855 42.6389 31.8381 42.4551 31.8381H41.3343C41.1505 31.8381 40.998 31.6855 40.998 31.5016V19.5123C40.998 19.3283 41.1505 19.1758 41.3343 19.1758Z" fill="#3A405A"/>
<path id="&#216;&#167;&#217;&#132;&#217;&#133;&#216;&#170;&#216;&#172;&#217;&#135; (&#217;&#129;&#217;&#138;&#217;&#131;&#216;&#170;&#217;&#136;&#216;&#177;)_13" d="M56.8057 30.1521L58.8455 30.3944C59.0293 30.4168 59.1324 30.5155 59.1593 30.6995L59.2938 31.5071C59.3252 31.6911 59.2445 31.7853 59.0607 31.7988C56.9491 31.9513 54.7031 32.1398 54.6807 29.3758C54.6672 27.4957 54.6627 25.6157 54.6717 23.7311C54.6717 23.5203 54.5686 23.4171 54.3579 23.4171H53.7616C53.5599 23.4171 53.4433 23.3183 53.4119 23.1164L53.2954 22.3492C53.264 22.1383 53.3492 22.0171 53.5599 21.9812L54.4969 21.8242C54.6179 21.8062 54.7076 21.6985 54.7076 21.5729L54.6852 19.63C54.6807 19.4326 54.7793 19.3204 54.9766 19.2935L56.1467 19.132C56.2946 19.1095 56.4336 19.2127 56.456 19.3653C56.456 19.3788 56.4605 19.3922 56.4605 19.4057V21.6223C56.4605 21.7703 56.5367 21.8421 56.6846 21.8421L58.3255 21.8511C58.729 21.8511 59.0562 22.1786 59.0562 22.5825C59.0562 22.8472 58.9083 23.094 58.6752 23.2241C58.2493 23.4574 57.7696 23.5068 57.2316 23.3767C56.8953 23.2959 56.5591 23.4978 56.4784 23.8344C56.465 23.8837 56.4605 23.9331 56.4605 23.9824V29.7662C56.465 29.9636 56.6129 30.1296 56.8057 30.1521Z" fill="#3A405A"/>
<path id="&#216;&#167;&#217;&#132;&#217;&#133;&#216;&#170;&#216;&#172;&#217;&#135; (&#217;&#129;&#217;&#138;&#217;&#131;&#216;&#170;&#217;&#136;&#216;&#177;)_14" d="M2.57676 28.1852C3.85446 30.9403 6.85369 30.1416 9.30149 30.1461C9.46288 30.1506 9.60634 30.2044 9.72739 30.3166C10.0995 30.6576 10.2295 31.0883 10.1129 31.6043C10.0816 31.7434 9.99638 31.8152 9.85292 31.8197C7.55306 31.8511 4.18621 32.2998 2.37502 30.6935C0.944893 29.4281 0.577274 27.418 0.92696 25.5603C1.85049 20.7144 9.48978 20.4631 9.96051 25.493C10.1667 27.6962 4.3476 27.5571 2.86816 27.6827C2.67539 27.7006 2.52745 27.8712 2.54538 28.0641C2.54986 28.109 2.56331 28.1493 2.57676 28.1852ZM2.68436 26.3321L8.37796 25.6007C8.40486 25.5962 8.42279 25.5738 8.41831 25.5469V25.5379C8.23898 24.1335 6.83575 23.1598 5.2801 23.3572L5.11871 23.3797C3.56754 23.5816 2.45123 24.8783 2.63056 26.2783V26.2872C2.63504 26.3142 2.65746 26.3366 2.68436 26.3321Z" fill="#3A405A"/>
<path id="&#216;&#167;&#217;&#132;&#217;&#133;&#216;&#170;&#216;&#172;&#217;&#135; (&#217;&#129;&#217;&#138;&#217;&#131;&#216;&#170;&#217;&#136;&#216;&#177;)_15" d="M18.5105 21.875H19.6671C19.8151 21.875 19.9316 21.9962 19.9316 22.1397L19.9137 31.5624C19.9137 31.7105 19.7926 31.8272 19.6492 31.8272H18.4925C18.3446 31.8272 18.228 31.706 18.228 31.5624L18.246 22.1397C18.246 21.9917 18.367 21.875 18.5105 21.875Z" fill="#3A405A"/>
<path id="&#216;&#167;&#217;&#132;&#217;&#133;&#216;&#170;&#216;&#172;&#217;&#135; (&#217;&#129;&#217;&#138;&#217;&#131;&#216;&#170;&#217;&#136;&#216;&#177;)_16" d="M28.36 26.2921C30.7988 26.8351 30.5836 30.3888 28.7455 31.358C27.2123 32.1656 23.8813 31.8291 21.8549 31.8291C21.7159 31.8291 21.6173 31.7618 21.5635 31.6317C21.1286 30.5234 21.8459 30.1509 22.8188 30.1465C24.2489 30.1465 25.6701 30.1375 27.0912 30.1151C28.3644 30.0971 28.75 28.7869 28.0013 27.9478C27.8937 27.8267 27.7637 27.7594 27.6068 27.7369C25.2307 27.3914 23.7154 27.1132 23.0609 26.9024C21.2317 26.319 21.3976 23.4429 22.5767 22.4512C23.7827 21.4417 27.0823 21.85 28.7007 21.8455C29.01 21.8455 29.2611 22.0923 29.2611 22.4019C29.2611 22.4378 29.2566 22.4737 29.2521 22.5096L29.1311 23.1198C29.0907 23.3128 28.9742 23.407 28.7814 23.4115C27.6427 23.4204 23.5764 22.8506 23.424 24.4659C23.3747 24.9864 23.7423 25.4531 24.2624 25.5338C25.6521 25.7357 27.015 25.9915 28.36 26.2921Z" fill="#3A405A"/>
<path id="&#216;&#167;&#217;&#132;&#217;&#133;&#216;&#170;&#216;&#172;&#217;&#135; (&#217;&#129;&#217;&#138;&#217;&#131;&#216;&#170;&#217;&#136;&#216;&#177;)_17" d="M36.9985 23.4965L32.3853 23.3753C32.0491 23.3664 31.7756 23.1061 31.7487 22.7696C31.7173 22.2626 31.9325 21.9978 32.3943 21.9664C34.7883 21.8228 39.2714 20.8357 39.2849 24.7618C39.2894 27.0053 39.3073 29.2488 39.3387 31.4968C39.3432 31.6673 39.2625 31.7705 39.0966 31.8109C38.5317 31.9455 38.1103 31.7885 37.8279 31.3398C37.7382 31.2007 37.6171 31.1648 37.4692 31.2411C34.6224 32.6859 29.9285 31.775 31.2421 27.4451C31.9998 24.9593 38.3882 26.588 37.662 24.0125C37.5768 23.7119 37.3078 23.5055 36.9985 23.4965ZM32.856 28.3828C31.9594 30.7699 35.8418 30.8821 37.0478 29.7873C37.7741 29.1232 37.6709 28.0284 37.6216 27.1175C37.6127 26.9694 37.532 26.8976 37.384 26.9066C36.1467 26.9919 33.3447 27.0771 32.856 28.3828Z" fill="#3A405A"/>
<path id="&#216;&#167;&#217;&#132;&#217;&#133;&#216;&#170;&#216;&#172;&#217;&#135; (&#217;&#129;&#217;&#138;&#217;&#131;&#216;&#170;&#217;&#136;&#216;&#177;)_18" d="M50.5561 25.0184C51.3855 22.8153 46.7544 23.3627 45.6964 23.3807C44.9566 23.3941 44.6697 23.0441 44.8446 22.3307C44.9118 22.048 45.1673 21.8506 45.4588 21.8506C47.7541 21.8461 52.2238 20.9442 52.3942 24.5742C52.439 25.5658 52.4435 27.8811 52.4121 31.5201C52.4121 31.6771 52.3359 31.7714 52.1835 31.8117C51.6052 31.9598 51.1703 31.8162 50.8744 31.372C50.7892 31.2464 50.6771 31.215 50.5382 31.2778C49.2246 31.8925 47.92 32.0495 46.6154 31.7444C44.3604 31.215 43.141 28.9131 44.728 26.9703C45.9967 25.4222 48.6059 25.9517 50.2647 25.3101C50.3992 25.2607 50.5068 25.153 50.5561 25.0184ZM45.8264 28.5676C45.4005 31.2733 51.6365 31.6367 50.5651 27.0779C50.5337 26.9344 50.4395 26.8715 50.2916 26.8895C49.1305 27.0331 46.0505 27.1318 45.8264 28.5676Z" fill="#3A405A"/>
</g>
<defs>
<clipPath id="clip0_652_5225">
<rect width="104.025" height="39.6679" fill="white" transform="translate(0.695801 0.273438)"/>
</clipPath>
</defs>
</svg>
