<svg width="178" height="48" viewBox="0 0 178 48" fill="none" xmlns="http://www.w3.org/2000/svg">
<g id="&#216;&#180;&#216;&#185;&#216;&#167;&#216;&#177;" opacity="0.4" clip-path="url(#clip0_652_5198)">
<path id="&#216;&#167;&#217;&#132;&#217;&#133;&#216;&#170;&#216;&#172;&#217;&#135; (&#217;&#129;&#217;&#138;&#217;&#131;&#216;&#170;&#217;&#136;&#216;&#177;)" d="M116.688 15.1277C116.229 13.241 118.113 12.5107 119.554 13.2098C119.577 13.2213 119.59 13.241 119.59 13.2675V14.3364C119.59 14.3655 119.577 14.373 119.552 14.3581C119.069 14.0724 118.69 13.9346 118.144 14.0608C117.729 14.1565 117.702 14.8243 117.967 15.0347C118.247 15.2573 119.397 15.1745 119.77 15.1623C119.801 15.1609 119.826 15.1847 119.827 15.2152C119.827 15.2159 119.827 15.2166 119.827 15.2173V16.2027C119.827 16.2251 119.816 16.2366 119.793 16.2366H116.312C116.284 16.2366 116.261 16.2136 116.261 16.1857V15.2091C116.261 15.1799 116.275 15.1657 116.304 15.1664L116.652 15.1718C116.672 15.1725 116.689 15.1569 116.689 15.1365C116.689 15.1331 116.689 15.1304 116.688 15.1277Z" fill="#3A405A"/>
<path id="&#216;&#167;&#217;&#132;&#217;&#133;&#216;&#170;&#216;&#172;&#217;&#135; (&#217;&#129;&#217;&#138;&#217;&#131;&#216;&#170;&#217;&#136;&#216;&#177;)_2" d="M70.0248 15.8613H72.3605C72.3768 15.8613 72.3897 15.8742 72.3897 15.8905V29.7273C72.3897 29.7436 72.3768 29.7565 72.3605 29.7565H70.0248C70.0085 29.7565 69.9956 29.7436 69.9956 29.7273V15.8905C69.9956 15.8742 70.0085 15.8613 70.0248 15.8613Z" fill="#3A405A"/>
<path id="&#216;&#167;&#217;&#132;&#217;&#133;&#216;&#170;&#216;&#172;&#217;&#135; (&#217;&#129;&#217;&#138;&#217;&#131;&#216;&#170;&#217;&#136;&#216;&#177;)_3" d="M83.4801 29.7571C81.0785 29.7856 77.8555 29.8406 76.9907 26.942C76.1143 24.004 77.4343 21.0219 80.6613 20.4939C82.7097 20.1587 84.9136 20.7165 85.6527 22.8686C85.8891 23.5561 85.9374 24.2131 85.9414 25.0315C85.9455 25.9091 85.9455 26.7825 85.9421 27.6519C85.9414 27.6797 85.9645 27.7028 85.9931 27.7035H85.9938C87.2812 27.7041 88.572 27.7041 89.8669 27.7035C91.6563 27.7014 92.8663 27.17 92.7019 25.1021C92.5932 23.7319 91.7895 23.0776 90.4144 23.0742C89.3023 23.0715 88.1861 23.0709 87.0658 23.0729C87.0366 23.0729 87.0135 23.0498 87.0135 23.0213V21.0742C87.0135 21.0457 87.0244 21.0186 87.0434 20.9975L91.7175 15.8864C91.7324 15.8702 91.7528 15.8613 91.7746 15.8613H94.5675C94.5824 15.8613 94.594 15.8729 94.594 15.8878C94.594 15.8946 94.5912 15.9007 94.5872 15.9061L89.981 20.9805C89.9715 20.9921 89.9722 21.0091 89.983 21.0186C89.9878 21.0233 89.9946 21.0253 90.0014 21.0253C92.1142 20.9561 94.0844 21.7217 94.8813 23.7801C95.3651 25.0281 95.2591 26.4425 94.7115 27.66C94.6979 27.6892 94.7074 27.7041 94.74 27.7041H96.8454C96.8604 27.7041 96.8678 27.6967 96.8678 27.6818C96.8624 26.7947 96.8624 25.9091 96.8678 25.0234C96.8814 22.7858 97.5914 20.9629 99.9896 20.5096C100.814 20.3535 101.643 20.3677 102.475 20.5516C105.228 21.1597 106.416 23.6477 105.972 26.2925C105.449 29.4164 102.713 29.7368 100.121 29.7422C95.433 29.7531 90.7453 29.7585 86.0576 29.7592C86.0318 29.7592 86.0189 29.7721 86.0189 29.7972C85.9795 34.6293 81.5038 34.5927 78.0634 33.9608C78.0335 33.9554 78.0118 33.9289 78.0118 33.8984V31.6934C78.0118 31.671 78.0294 31.6533 78.0512 31.6533C78.0559 31.6533 78.0607 31.654 78.0655 31.6554C79.8529 32.2926 83.4957 32.8505 83.5215 29.7985C83.5215 29.7707 83.5079 29.7571 83.4801 29.7571ZM79.342 26.0468C79.7666 27.9559 82.0473 27.7157 83.4631 27.7014C83.4862 27.7014 83.4977 27.6899 83.4977 27.6668C83.4998 26.8198 83.4991 25.9729 83.495 25.1266C83.4896 23.7536 83.1655 22.4607 81.5058 22.4668C79.4976 22.4736 78.9799 24.4187 79.342 26.0468ZM103.579 25.1965C103.62 23.9477 103.071 22.6616 101.681 22.494C99.7796 22.2646 99.3115 23.5446 99.2973 25.1259C99.2898 25.9681 99.2891 26.8137 99.2966 27.6621C99.2966 27.6872 99.3088 27.6994 99.334 27.7001C101.373 27.7388 103.49 27.9125 103.579 25.1965Z" fill="#3A405A"/>
<path id="&#216;&#167;&#217;&#132;&#217;&#133;&#216;&#170;&#216;&#172;&#217;&#135; (&#217;&#129;&#217;&#138;&#217;&#131;&#216;&#170;&#217;&#136;&#216;&#177;)_4" d="M107.673 15.8613H109.988C110.01 15.8613 110.027 15.879 110.027 15.9007V29.7171C110.027 29.7388 110.01 29.7565 109.988 29.7565H107.673C107.651 29.7565 107.633 29.7388 107.633 29.7171V15.9007C107.633 15.879 107.651 15.8613 107.673 15.8613Z" fill="#3A405A"/>
<path id="&#216;&#167;&#217;&#132;&#217;&#133;&#216;&#170;&#216;&#172;&#217;&#135; (&#217;&#129;&#217;&#138;&#217;&#131;&#216;&#170;&#217;&#136;&#216;&#177;)_5" d="M62.2054 27.4887C62.9215 27.7025 63.6471 27.7656 64.3815 27.6787C65.3231 27.5674 65.6111 27.127 65.6145 26.2074C65.6261 22.7821 65.6315 19.3528 65.6322 15.918C65.6322 15.9011 65.6465 15.8868 65.6635 15.8868L68.0698 15.8848C68.0827 15.8848 68.0929 15.8949 68.0929 15.9072C68.0929 19.4403 68.0929 22.9769 68.0922 26.5175C68.0922 28.3703 67.2118 29.3354 65.3903 29.6319C63.982 29.8607 62.3739 29.7948 61.0254 29.2648C61.005 29.2566 60.9853 29.258 60.9656 29.2688C59.4648 30.1477 57.3432 29.8844 55.7962 29.3102C55.7752 29.3021 55.7541 29.3035 55.7344 29.3143C54.3858 30.0412 53.1079 29.7588 51.6758 29.7588C46.306 29.7582 40.9335 29.7575 35.5583 29.7582C35.5352 29.7582 35.5162 29.7772 35.5155 29.8002C35.4367 34.5964 31.0072 34.65 27.5315 33.9517C27.5132 33.9476 27.5003 33.932 27.5003 33.9137V31.7107C27.5003 31.6829 27.5227 31.6605 27.5505 31.6605C27.5566 31.6605 27.5621 31.6612 27.5675 31.6632C28.4657 31.9808 29.3998 32.1423 30.3699 32.1485C31.942 32.158 32.9726 31.4487 33.0107 29.7969C33.0113 29.7731 32.9991 29.7616 32.9753 29.7609C31.156 29.7446 29.1674 29.8688 27.6579 28.7171C26.2502 27.6427 26.0124 25.2925 26.4533 23.6868C27.1945 20.9897 30.0275 19.9602 32.5534 20.5703C34.2322 20.9755 35.1256 22.1347 35.3708 23.815C35.5074 24.7516 35.4218 25.8653 35.4483 26.8636C35.4544 27.1025 35.4476 27.3564 35.4265 27.6244C35.4224 27.678 35.4476 27.7052 35.5013 27.7052L39.1339 27.7059C39.1481 27.7059 39.1597 27.6943 39.1597 27.6801C39.1597 27.6733 39.157 27.6665 39.1522 27.6618C38.0115 26.5331 36.4945 24.4469 37.1487 22.7651C37.5767 21.6664 38.7459 21.0094 39.8153 20.702C41.9309 20.0939 45.304 20.1991 46.8597 22.0227C48.389 23.815 46.6783 26.3282 45.3902 27.6414C45.376 27.6563 45.376 27.6801 45.3909 27.6943C45.3977 27.7011 45.4072 27.7052 45.4174 27.7052H49.4271C49.4461 27.7052 49.461 27.6903 49.461 27.6713V21.3535C49.461 21.3291 49.4814 21.3087 49.5059 21.3087H51.83C51.8586 21.3087 51.8728 21.323 51.8728 21.3515V27.4541C51.8728 27.5783 51.97 27.6801 52.0943 27.6869C52.595 27.712 53.1093 27.7154 53.6378 27.6964C54.5394 27.6638 54.6725 26.9247 54.6739 26.1585C54.6759 24.5541 54.6766 22.9552 54.6746 21.3616C54.6746 21.3338 54.697 21.3114 54.7248 21.3114L57.0381 21.3135C57.0721 21.3135 57.0999 21.3413 57.1006 21.3752C57.1128 23.4065 57.1699 25.4778 57.0327 27.507C57.0313 27.5287 57.0415 27.543 57.0626 27.5498C57.8724 27.7934 59.3167 27.9387 59.6924 26.9953C59.7631 26.8175 59.7991 26.4686 59.8011 25.9495C59.8066 24.4265 59.8072 22.9029 59.8032 21.3779C59.8025 21.3406 59.8324 21.3107 59.8697 21.3101H59.8704L62.1837 21.3094C62.2068 21.3094 62.2197 21.3209 62.2231 21.3433C62.2598 21.6148 62.236 21.912 62.2353 22.1353C62.2313 23.8822 62.327 25.6984 62.1681 27.4337C62.166 27.4582 62.1817 27.4812 62.2054 27.4887ZM41.4879 27.0116C41.6482 27.1643 42.1286 27.6197 42.3446 27.5213C43.2529 27.1086 45.4758 24.5202 45.1572 23.4635C44.9242 22.6925 43.3365 22.4787 42.6286 22.4407C41.6951 22.3905 40.422 22.5086 39.6353 23.0821C38.4552 23.9406 40.8466 26.4015 41.4879 27.0116ZM33.008 27.26C33.0141 26.4001 33.0073 25.5409 32.9876 24.681C32.9611 23.494 32.4468 22.5324 31.1499 22.4679C29.6743 22.3939 28.8115 23.4099 28.7442 24.8039C28.5974 27.8436 30.6926 27.7289 32.9781 27.7032C33.0018 27.7025 33.0154 27.6903 33.0175 27.6665C33.031 27.5287 33.0073 27.3455 33.008 27.26Z" fill="#3A405A"/>
<path id="&#216;&#167;&#217;&#132;&#217;&#133;&#216;&#170;&#216;&#172;&#217;&#135; (&#217;&#129;&#217;&#138;&#217;&#131;&#216;&#170;&#217;&#136;&#216;&#177;)_6" d="M4.31928 19.1232C5.02767 19.1232 5.60194 18.5495 5.60194 17.8419C5.60194 17.1342 5.02767 16.5605 4.31928 16.5605C3.61089 16.5605 3.03662 17.1342 3.03662 17.8419C3.03662 18.5495 3.61089 19.1232 4.31928 19.1232Z" fill="#3A405A"/>
<path id="&#216;&#167;&#217;&#132;&#217;&#133;&#216;&#170;&#216;&#172;&#217;&#135; (&#217;&#129;&#217;&#138;&#217;&#131;&#216;&#170;&#217;&#136;&#216;&#177;)_7" d="M8.57953 17.9321C8.62997 17.2232 8.0956 16.6077 7.38598 16.5573C6.67637 16.507 6.06022 17.0408 6.00978 17.7497C5.95935 18.4585 6.49372 19.074 7.20333 19.1244C7.91295 19.1748 8.52909 18.641 8.57953 17.9321Z" fill="#3A405A"/>
<path id="&#216;&#167;&#217;&#132;&#217;&#133;&#216;&#170;&#216;&#172;&#217;&#135; (&#217;&#129;&#217;&#138;&#217;&#131;&#216;&#170;&#217;&#136;&#216;&#177;)_8" d="M116.921 17.3359H119.186C119.222 17.3359 119.251 17.3651 119.251 17.4011V29.6905C119.251 29.7264 119.222 29.7556 119.186 29.7556H116.921C116.885 29.7556 116.855 29.7264 116.855 29.6905V17.4011C116.855 17.3651 116.885 17.3359 116.921 17.3359Z" fill="#3A405A"/>
<path id="&#216;&#167;&#217;&#132;&#217;&#133;&#216;&#170;&#216;&#172;&#217;&#135; (&#217;&#129;&#217;&#138;&#217;&#131;&#216;&#170;&#217;&#136;&#216;&#177;)_9" d="M9.94777 27.6701C9.94709 27.6871 9.96068 27.7006 9.97766 27.7013H9.97834C10.4301 27.702 10.8873 27.7027 11.3486 27.7033C12.3045 27.704 12.9377 27.4013 12.9458 26.3277C12.9615 24.3731 12.9622 22.4206 12.9492 20.4701C12.9486 20.4355 12.9771 20.4069 13.0117 20.4063H13.0124H15.3916C15.4195 20.4063 15.4425 20.4293 15.4425 20.4572C15.4419 22.2855 15.4405 24.1179 15.4385 25.9544C15.4378 26.6575 15.4011 27.3029 15.1083 27.9836C14.4731 29.457 12.8847 29.7394 11.4635 29.7482C10.2698 29.7556 8.68073 29.7563 6.69492 29.7489C5.02434 29.7428 3.43528 29.7014 2.07857 28.6508C1.03709 27.8438 0.723899 26.2673 0.740883 25.0389C0.786401 21.7595 3.55417 19.9916 6.64329 20.4809C8.74256 20.8141 9.83635 22.2387 9.91856 24.3473C9.96204 25.4549 9.97155 26.5625 9.94777 27.6701ZM3.29126 24.4186C3.05551 25.7101 3.41626 27.2452 4.89458 27.5683C5.72953 27.7515 6.62902 27.7149 7.483 27.6966C7.5061 27.6959 7.51765 27.6843 7.51765 27.6619C7.54142 26.3718 7.53599 25.3606 7.50134 24.6269C7.45378 23.6306 7.06043 22.6852 5.97886 22.5047C4.55421 22.2672 3.54466 23.0273 3.29126 24.4186Z" fill="#3A405A"/>
<path id="&#216;&#167;&#217;&#132;&#217;&#133;&#216;&#170;&#216;&#172;&#217;&#135; (&#217;&#129;&#217;&#138;&#217;&#131;&#216;&#170;&#217;&#136;&#216;&#177;)_10" d="M20.5496 22.4652C19.8105 22.4598 19.0808 22.4591 18.3614 22.4625C18.3165 22.4632 18.2805 22.4266 18.2798 22.3818C18.2798 22.3811 18.2798 22.3811 18.2798 22.3804L18.2982 20.4381C18.2982 20.4197 18.307 20.4109 18.3254 20.4109C18.9728 20.4055 19.6189 20.4048 20.265 20.4089C22.6951 20.4245 24.6598 21.7581 25.0817 24.2278C25.1293 24.508 25.1538 24.941 25.1551 25.5267C25.1585 26.9255 25.1585 28.3249 25.1551 29.7236C25.1551 29.746 25.1442 29.7569 25.1218 29.7569H16.3925C16.3362 29.7569 16.3076 29.7284 16.3076 29.6721V27.7521C16.3076 27.7249 16.33 27.7032 16.3572 27.7032L22.6584 27.7046C22.6734 27.7046 22.6808 27.6971 22.6802 27.6815C22.6768 26.7687 22.674 25.8545 22.6734 24.939C22.6713 23.7004 21.9084 22.4754 20.5496 22.4652Z" fill="#3A405A"/>
<path id="&#216;&#167;&#217;&#132;&#217;&#133;&#216;&#170;&#216;&#172;&#217;&#135; (&#217;&#129;&#217;&#138;&#217;&#131;&#216;&#170;&#217;&#136;&#216;&#177;)_11" d="M108.486 34.1002C108.454 34.0941 108.431 34.0663 108.431 34.0337V31.8273C108.431 31.7981 108.444 31.788 108.472 31.7968C109.323 32.0649 110.297 32.3316 111.196 32.0757C112.362 31.7432 112.743 30.6546 112.743 29.5273C112.745 26.7984 112.745 24.0708 112.744 21.3432C112.744 21.3242 112.76 21.3086 112.779 21.3086H115.206C115.226 21.3086 115.242 21.3249 115.242 21.3446C115.241 24.1678 115.241 26.9891 115.24 29.809C115.239 33.9231 111.813 34.7076 108.486 34.1002Z" fill="#3A405A"/>
<path id="&#216;&#167;&#217;&#132;&#217;&#133;&#216;&#170;&#216;&#172;&#217;&#135; (&#217;&#129;&#217;&#138;&#217;&#131;&#216;&#170;&#217;&#136;&#216;&#177;)_12" d="M12.3101 33.1106C12.342 32.4082 11.7915 31.8125 11.0805 31.7802C10.3694 31.748 9.76707 32.2913 9.73511 32.9937C9.70315 33.6962 10.2537 34.2918 10.9647 34.3241C11.6758 34.3564 12.2781 33.8131 12.3101 33.1106Z" fill="#3A405A"/>
<path id="&#216;&#167;&#217;&#132;&#217;&#133;&#216;&#170;&#216;&#172;&#217;&#135; (&#217;&#129;&#217;&#138;&#217;&#131;&#216;&#170;&#217;&#136;&#216;&#177;)_13" d="M14.0015 34.3314C14.7092 34.3314 15.2828 33.7584 15.2828 33.0515C15.2828 32.3445 14.7092 31.7715 14.0015 31.7715C13.2939 31.7715 12.7202 32.3445 12.7202 33.0515C12.7202 33.7584 13.2939 34.3314 14.0015 34.3314Z" fill="#3A405A"/>
<path id="&#216;&#167;&#217;&#132;&#217;&#133;&#216;&#170;&#216;&#172;&#217;&#135; (&#217;&#129;&#217;&#138;&#217;&#131;&#216;&#170;&#217;&#136;&#216;&#177;)_14" d="M45.6016 46.2544C44.4827 45.2676 44.2306 43.4589 44.4127 42.0656C44.7673 39.3577 46.997 37.9169 49.6303 38.1823C50.1031 38.2298 50.5359 38.3791 50.9292 38.6302C50.9476 38.6417 50.972 38.6363 50.9836 38.618C50.9877 38.6119 50.9897 38.6044 50.9897 38.5969V34.7468C50.9897 34.7278 51.0047 34.7129 51.0237 34.7129H53.2317C53.2656 34.7129 53.2826 34.7299 53.2826 34.7638V47.4203C53.2826 47.44 53.267 47.4556 53.2473 47.4556C52.0305 47.4556 50.8076 47.4536 49.58 47.4495C48.1336 47.4441 46.7131 47.2357 45.6016 46.2544ZM50.4177 40.6119C49.8633 40.0154 48.7709 40.0486 48.0922 40.373C46.8747 40.9546 46.6349 42.4932 46.8965 43.6741C47.1132 44.6548 47.7314 45.2255 48.7498 45.3864C49.3769 45.4854 50.1126 45.5058 50.9564 45.4468C50.9775 45.4454 50.9884 45.4339 50.9884 45.4128C50.9938 44.4457 50.9897 43.4793 50.9768 42.5135C50.9687 41.8892 50.8633 41.0917 50.4177 40.6119Z" fill="#3A405A"/>
<path id="&#216;&#167;&#217;&#132;&#217;&#133;&#216;&#170;&#216;&#172;&#217;&#135; (&#217;&#129;&#217;&#138;&#217;&#131;&#216;&#170;&#217;&#136;&#216;&#177;)_15" d="M55.9663 37.4553C56.6709 37.4553 57.2422 36.8847 57.2422 36.1808C57.2422 35.4769 56.6709 34.9062 55.9663 34.9062C55.2617 34.9062 54.6904 35.4769 54.6904 36.1808C54.6904 36.8847 55.2617 37.4553 55.9663 37.4553Z" fill="#3A405A"/>
<path id="&#216;&#167;&#217;&#132;&#217;&#133;&#216;&#170;&#216;&#172;&#217;&#135; (&#217;&#129;&#217;&#138;&#217;&#131;&#216;&#170;&#217;&#136;&#216;&#177;)_16" d="M18.4517 40.8958C18.5964 41.2154 19.1854 41.4292 19.5163 41.5364C21.0802 42.0407 23.6074 42.5768 23.496 44.7052C23.3805 46.9068 21.2378 47.5705 19.4001 47.6391C18.2547 47.6818 17.133 47.487 16.0351 47.0547C16.0046 47.0425 15.9849 47.0133 15.9849 46.9807V44.8551C15.9849 44.8002 16.0093 44.7852 16.0582 44.8104C17.3436 45.4707 18.7778 45.8698 20.235 45.4931C20.61 45.396 21.1685 45.1348 21.2127 44.7045C21.265 44.1907 20.4558 44.0149 20.0727 43.9138C18.3532 43.4598 15.9917 42.9006 16.133 40.6277C16.2668 38.4655 18.5373 37.8791 20.2982 37.9442C21.1821 37.9775 22.0558 38.0827 22.9192 38.2605C22.9573 38.268 22.9817 38.3053 22.9736 38.3433C22.9736 38.3446 22.9729 38.346 22.9729 38.3467L22.4491 40.3047C22.4423 40.3298 22.4165 40.344 22.3907 40.3372C22.3893 40.3372 22.3886 40.3365 22.388 40.3365C21.4844 40.0278 19.4245 39.6104 18.6181 40.2911C18.4354 40.4458 18.3511 40.6739 18.4517 40.8958Z" fill="#3A405A"/>
<path id="&#216;&#167;&#217;&#132;&#217;&#133;&#216;&#170;&#216;&#172;&#217;&#135; (&#217;&#129;&#217;&#138;&#217;&#131;&#216;&#170;&#217;&#136;&#216;&#177;)_17" d="M91.9582 47.4613L89.6809 47.4708C89.6429 47.4708 89.6123 47.4403 89.6123 47.4023V38.8014C89.6123 38.7824 89.6238 38.7662 89.6408 38.76C91.1606 38.2069 92.73 37.9877 94.3503 38.1031C94.8428 38.1377 95.3591 38.3101 95.8979 38.6189C95.9162 38.6297 95.9386 38.6311 95.959 38.6236C97.4496 38.0373 99.6045 37.7434 101.037 38.5782C102.06 39.1747 102.385 40.116 102.39 41.2637C102.399 43.3214 102.404 45.3785 102.402 47.4348C102.402 47.4538 102.387 47.4694 102.368 47.4694H100.076C100.056 47.4694 100.039 47.4532 100.039 47.4328C100.043 45.9132 100.042 44.4073 100.038 42.9142C100.036 42.4188 100.053 41.8928 99.9979 41.3784C99.8335 39.8575 98.1894 39.9708 97.1534 40.3522C97.1323 40.3604 97.1242 40.3753 97.1289 40.3977C97.2002 40.7296 97.2356 41.018 97.2362 41.2637C97.239 43.3126 97.2396 45.3622 97.2376 47.4138C97.2376 47.4518 97.2186 47.4708 97.1812 47.4701L94.8843 47.4579C94.8455 47.4579 94.8258 47.4382 94.8265 47.3995C94.8544 45.3866 94.8523 43.3642 94.8217 41.3315C94.8136 40.756 94.5412 40.2803 93.9426 40.1778C93.2911 40.0658 92.6539 40.1133 92.0302 40.319C92.0037 40.3278 91.9901 40.3468 91.9901 40.3746V47.4294C91.9901 47.447 91.9759 47.4613 91.9582 47.4613Z" fill="#3A405A"/>
<path id="&#216;&#167;&#217;&#132;&#217;&#133;&#216;&#170;&#216;&#172;&#217;&#135; (&#217;&#129;&#217;&#138;&#217;&#131;&#216;&#170;&#217;&#136;&#216;&#177;)_18" d="M104.981 46.5553C103.47 45.2312 103.232 43.0018 103.801 41.1803C104.265 39.6974 105.469 38.6027 106.977 38.2497C108.362 37.9253 110.015 38.1086 111.175 38.9766C111.196 38.9922 111.202 39.0207 111.189 39.0431L110.234 40.6882C110.22 40.712 110.202 40.716 110.179 40.7004C109.497 40.2335 108.767 40.0557 107.99 40.167C107.058 40.3 106.321 40.8355 106.066 41.7476C105.772 42.7968 105.824 44.2607 106.706 45.0249C107.622 45.8169 109.065 45.7274 110.044 45.0806C110.088 45.0514 110.126 45.0575 110.158 45.0989L111.266 46.5207C111.285 46.5445 111.281 46.5798 111.257 46.5994C109.549 47.9982 106.657 48.024 104.981 46.5553Z" fill="#3A405A"/>
<path id="&#216;&#167;&#217;&#132;&#217;&#133;&#216;&#170;&#216;&#172;&#217;&#135; (&#217;&#129;&#217;&#138;&#217;&#131;&#216;&#170;&#217;&#136;&#216;&#177;)_19" d="M29.4537 47.455C26.6303 47.436 24.5799 46.4417 24.3163 43.3639C24.1139 40.9893 25.3564 38.9342 27.7098 38.3119C29.6413 37.8015 32.1318 38.1965 33.0544 40.1783C33.3608 40.8352 33.5144 41.5797 33.5157 42.4118C33.5184 44.0759 33.5164 45.7454 33.5096 47.4204C33.5096 47.436 33.4974 47.4489 33.4818 47.4509C33.354 47.4638 33.2229 47.4706 33.0884 47.4706C31.8771 47.4679 30.6651 47.4624 29.4537 47.455ZM26.8687 43.7901C27.0956 44.7559 27.9061 45.3158 28.8661 45.4047C29.6161 45.4739 30.3648 45.4923 31.1121 45.4604C31.1325 45.4597 31.1488 45.4427 31.1488 45.4223C31.1563 44.5123 31.1563 43.5994 31.1488 42.6832C31.1406 41.6048 30.803 40.4389 29.593 40.2129C27.2485 39.7744 26.4271 41.9143 26.8687 43.7901Z" fill="#3A405A"/>
<path id="&#216;&#167;&#217;&#132;&#217;&#133;&#216;&#170;&#216;&#172;&#217;&#135; (&#217;&#129;&#217;&#138;&#217;&#131;&#216;&#170;&#217;&#136;&#216;&#177;)_20" d="M63.3334 46.3218C62.3001 45.4728 61.9597 43.8942 62.0311 42.6013C62.1629 40.2212 63.6636 38.5191 66.0727 38.192C69.1312 37.7766 71.1945 39.2439 71.1992 42.4425C71.2019 44.0591 71.2026 45.7042 71.202 47.3771C71.202 47.4206 71.1802 47.4457 71.1374 47.4518C71.0504 47.464 70.9417 47.4701 70.8106 47.4701C69.5477 47.4721 68.2854 47.464 67.0231 47.4463C65.6671 47.428 64.3865 47.1871 63.3334 46.3218ZM64.4918 43.6879C64.86 45.7076 67.1848 45.485 68.7182 45.4511C68.7406 45.4504 68.7514 45.4395 68.7521 45.4178C68.7623 44.4263 68.7589 43.4354 68.7413 42.4452C68.7263 41.5908 68.4226 40.6087 67.5965 40.2972C67.0204 40.08 66.3091 40.0909 65.7439 40.344C64.4293 40.9318 64.2526 42.3767 64.4918 43.6879Z" fill="#3A405A"/>
<path id="&#216;&#167;&#217;&#132;&#217;&#133;&#216;&#170;&#216;&#172;&#217;&#135; (&#217;&#129;&#217;&#138;&#217;&#131;&#216;&#170;&#217;&#136;&#216;&#177;)_21" d="M88.238 46.5087C88.2387 46.8195 88.2339 47.1134 88.2251 47.3896C88.2237 47.4412 88.1973 47.467 88.1449 47.4677C86.8018 47.4772 85.5015 47.4717 84.2453 47.452C82.943 47.431 81.7113 47.2878 80.6147 46.5521C79.3341 45.6929 78.9353 43.9705 79.0325 42.5011C79.2444 39.289 82.0034 37.707 84.994 38.2085C87.1415 38.5682 88.2006 40.1563 88.2169 42.2975C88.2278 43.701 88.2346 45.1045 88.238 46.5087ZM82.2711 44.8968C82.9695 45.4174 83.6495 45.4439 84.6278 45.4669C85.0293 45.4764 85.4308 45.4758 85.8317 45.4642C85.8459 45.4635 85.8568 45.452 85.8568 45.4377C85.8636 44.4564 85.8595 43.4764 85.8452 42.4971C85.831 41.5021 85.4492 40.4577 84.3649 40.212C83.5395 40.0253 82.6583 40.2344 82.1046 40.8526C81.2581 41.798 81.18 44.0845 82.2711 44.8968Z" fill="#3A405A"/>
<path id="&#216;&#167;&#217;&#132;&#217;&#133;&#216;&#170;&#216;&#172;&#217;&#135; (&#217;&#129;&#217;&#138;&#217;&#131;&#216;&#170;&#217;&#136;&#216;&#177;)_22" d="M72.5787 47.4638C72.5494 47.4638 72.5263 47.4407 72.5263 47.4115C72.525 45.8085 72.525 44.1994 72.527 42.5848C72.5318 38.4972 75.843 37.8076 79.1237 38.2759C79.153 38.28 79.1733 38.3078 79.1693 38.337C79.1693 38.339 79.1686 38.3411 79.1679 38.3431L78.6455 40.314C78.6339 40.356 78.5911 40.3812 78.549 40.3696C76.5238 39.8246 74.9592 40.5875 74.9558 42.84C74.9537 44.367 74.9537 45.8764 74.9551 47.3681C74.9551 47.438 74.9198 47.4733 74.8498 47.4726L72.5787 47.4638Z" fill="#3A405A"/>
<path id="&#216;&#167;&#217;&#132;&#217;&#133;&#216;&#170;&#216;&#172;&#217;&#135; (&#217;&#129;&#217;&#138;&#217;&#131;&#216;&#170;&#217;&#136;&#216;&#177;)_23" d="M120.969 42.9131C120.969 45.5233 118.851 47.6387 116.238 47.6387C113.625 47.6387 111.508 45.5233 111.508 42.9131C111.508 40.3029 113.625 38.1875 116.238 38.1875C118.851 38.1875 120.969 40.3029 120.969 42.9131ZM118.802 42.9233C118.802 41.5069 117.653 40.3592 116.236 40.3592C114.818 40.3592 113.669 41.5069 113.669 42.9233C113.669 44.3397 114.818 45.4873 116.236 45.4873C117.653 45.4873 118.802 44.339 118.802 42.9233Z" fill="#3A405A"/>
<path id="&#216;&#167;&#217;&#132;&#217;&#133;&#216;&#170;&#216;&#172;&#217;&#135; (&#217;&#129;&#217;&#138;&#217;&#131;&#216;&#170;&#217;&#136;&#216;&#177;)_24" d="M40.2386 47.5917C37.6937 47.8109 34.86 47.6846 34.8559 44.2981C34.8539 42.3652 34.8525 40.374 34.8532 38.3237C34.8532 38.2783 34.8756 38.2559 34.9205 38.2559H37.1807C37.2032 38.2559 37.2147 38.2674 37.2147 38.2898C37.2161 40.1772 37.2161 42.0632 37.2147 43.9492C37.214 44.7188 37.4043 45.3928 38.2847 45.5244C38.8799 45.614 39.7393 45.6235 40.2162 45.3005C40.5307 45.0867 40.689 44.7582 40.6911 44.3164C40.6992 42.3177 40.7006 40.3156 40.6951 38.3095C40.6951 38.2796 40.7189 38.2559 40.7488 38.2559H43.109C43.1368 38.2559 43.1599 38.2783 43.1599 38.3061C43.1633 40.395 43.1518 42.4874 43.1239 44.5838C43.1001 46.402 42.0315 47.4369 40.2386 47.5917Z" fill="#3A405A"/>
<path id="&#216;&#167;&#217;&#132;&#217;&#133;&#216;&#170;&#216;&#172;&#217;&#135; (&#217;&#129;&#217;&#138;&#217;&#131;&#216;&#170;&#217;&#136;&#216;&#177;)_25" d="M54.8549 38.5117H57.0941C57.1274 38.5117 57.1546 38.5389 57.1546 38.5721V47.4071C57.1546 47.4403 57.1274 47.4675 57.0941 47.4675H54.8549C54.8216 47.4675 54.7944 47.4403 54.7944 47.4071V38.5721C54.7944 38.5382 54.8216 38.5117 54.8549 38.5117Z" fill="#3A405A"/>
<g id="Vector">
<path d="M149.379 0.689175C149.414 0.613215 149.308 0.489114 149.142 0.411986C148.976 0.334859 148.812 0.333912 148.777 0.409872C148.742 0.485832 148.848 0.609948 149.014 0.687076C149.18 0.764203 149.344 0.765135 149.379 0.689175Z" fill="#3A405A"/>
<path d="M137.425 1.95162C137.186 2.03645 136.465 2.05546 136.479 1.62111C136.844 1.408 137.181 1.44262 137.487 1.72562C137.503 1.73987 137.511 1.75956 137.511 1.77992C137.512 1.85389 137.483 1.9109 137.425 1.95162Z" fill="#3A405A"/>
<path d="M150.598 1.84385C150.636 1.75907 150.517 1.62185 150.33 1.53737C150.144 1.45289 149.961 1.45313 149.923 1.53791C149.884 1.62269 150.004 1.75991 150.191 1.84439C150.377 1.92888 150.559 1.92864 150.598 1.84385Z" fill="#3A405A"/>
<path d="M160.675 1.97358C160.71 1.92058 160.612 1.7964 160.458 1.69622C160.303 1.59605 160.15 1.55781 160.116 1.6108C160.081 1.66379 160.179 1.78796 160.333 1.88814C160.488 1.98832 160.641 2.02657 160.675 1.97358Z" fill="#3A405A"/>
<path d="M150.197 2.5943C150.238 2.49462 150.096 2.34037 149.88 2.24976C149.663 2.15916 149.453 2.1665 149.411 2.26618C149.37 2.36585 149.512 2.52012 149.728 2.61073C149.945 2.70133 150.155 2.69397 150.197 2.5943Z" fill="#3A405A"/>
<path d="M138.897 2.20837C139.125 2.18561 140.131 2.4094 139.66 2.76151C139.22 2.90438 138.849 2.81209 138.544 2.48399C138.584 2.31205 138.701 2.21975 138.897 2.20837Z" fill="#3A405A"/>
<path d="M160.616 2.67681C160.656 2.61511 160.544 2.47108 160.366 2.35511C160.188 2.23914 160.011 2.19514 159.971 2.25684C159.931 2.31854 160.042 2.46257 160.221 2.57854C160.399 2.69451 160.576 2.73851 160.616 2.67681Z" fill="#3A405A"/>
<path d="M151.761 3.18915C151.802 3.09355 151.666 2.94423 151.458 2.85564C151.25 2.76705 151.049 2.77273 151.008 2.86834C150.967 2.96394 151.103 3.11326 151.311 3.20185C151.518 3.29044 151.72 3.28475 151.761 3.18915Z" fill="#3A405A"/>
<path d="M141.435 3.75091C141.154 3.68147 140.917 3.53811 140.725 3.32157C140.55 2.31653 142.579 3.06023 142.081 3.63592C141.946 3.79273 141.633 3.75166 141.435 3.75091Z" fill="#3A405A"/>
<path d="M160.567 3.41832C160.616 3.3423 160.489 3.17113 160.282 3.03601C160.076 2.90088 159.868 2.85297 159.818 2.92899C159.768 3.00502 159.895 3.17618 160.102 3.31131C160.309 3.44644 160.517 3.49435 160.567 3.41832Z" fill="#3A405A"/>
<path d="M159.23 3.56629C159.269 3.50449 159.172 3.37264 159.014 3.27179C158.856 3.17095 158.695 3.1393 158.656 3.2011C158.616 3.26291 158.713 3.39477 158.871 3.49562C159.03 3.59646 159.19 3.6281 159.23 3.56629Z" fill="#3A405A"/>
<path d="M151.456 4.03925C151.513 3.90582 151.338 3.70347 151.065 3.58731C150.793 3.47114 150.526 3.48515 150.469 3.61858C150.412 3.75201 150.586 3.95434 150.859 4.0705C151.132 4.18667 151.399 4.17268 151.456 4.03925Z" fill="#3A405A"/>
<path d="M160.474 4.15413C160.529 4.06801 160.392 3.88098 160.168 3.73637C159.943 3.59177 159.716 3.54435 159.66 3.63046C159.605 3.71657 159.742 3.90361 159.967 4.04822C160.191 4.19282 160.418 4.24024 160.474 4.15413Z" fill="#3A405A"/>
<path d="M144.372 4.35188C144.447 4.1131 144.144 3.80378 143.693 3.66098C143.242 3.51819 142.816 3.59599 142.74 3.83477C142.664 4.07354 142.968 4.38286 143.418 4.52566C143.869 4.66845 144.296 4.59065 144.372 4.35188Z" fill="#3A405A"/>
<path d="M159.074 4.25099C159.119 4.17885 159.009 4.02783 158.828 3.91366C158.646 3.7995 158.462 3.76543 158.417 3.83756C158.371 3.90969 158.481 4.06071 158.663 4.17487C158.844 4.28904 159.028 4.32312 159.074 4.25099Z" fill="#3A405A"/>
<path d="M141.259 4.74354C140.687 4.87616 140.299 4.7205 140.094 4.27726C140.508 3.98759 140.91 3.99596 141.299 4.30309C141.474 4.44199 141.505 4.65349 141.259 4.74354Z" fill="#3A405A"/>
<path d="M153.076 4.81508C153.136 4.71017 153.009 4.52314 152.791 4.39733C152.572 4.27152 152.347 4.25457 152.286 4.35948C152.225 4.46438 152.353 4.65141 152.571 4.77722C152.789 4.90303 153.015 4.91998 153.076 4.81508Z" fill="#3A405A"/>
<path d="M160.411 4.9931C160.48 4.88979 160.326 4.66873 160.069 4.49934C159.812 4.32995 159.548 4.27637 159.48 4.37968C159.412 4.48299 159.565 4.70406 159.822 4.87345C160.079 5.04284 160.343 5.09641 160.411 4.9931Z" fill="#3A405A"/>
<path d="M161.485 4.73177C161.525 4.67315 161.431 4.53932 161.276 4.43286C161.12 4.32639 160.961 4.28761 160.921 4.34622C160.881 4.40483 160.975 4.53865 161.13 4.64512C161.286 4.75158 161.445 4.79038 161.485 4.73177Z" fill="#3A405A"/>
<path d="M150.98 4.91142C151.034 4.78453 150.873 4.59402 150.619 4.48592C150.365 4.37782 150.116 4.39307 150.062 4.51997C150.007 4.64686 150.169 4.83736 150.423 4.94546C150.677 5.05356 150.926 5.03832 150.98 4.91142Z" fill="#3A405A"/>
<path d="M158.915 4.91325C158.967 4.8314 158.85 4.66479 158.654 4.54111C158.459 4.41744 158.258 4.38352 158.206 4.46538C158.154 4.54723 158.271 4.71385 158.467 4.83753C158.663 4.96121 158.863 4.99511 158.915 4.91325Z" fill="#3A405A"/>
<path d="M146.3 5.21074C146.372 5.02282 146.146 4.76228 145.796 4.62878C145.446 4.49529 145.105 4.53939 145.033 4.7273C144.961 4.91522 145.186 5.17578 145.536 5.30927C145.886 5.44277 146.228 5.39865 146.3 5.21074Z" fill="#3A405A"/>
<path d="M142.802 4.69075C143.121 4.72855 144.077 5.13628 143.558 5.53253C143.129 5.68441 142.719 5.62838 142.327 5.36376C141.68 4.92701 142.338 4.64552 142.802 4.69075Z" fill="#3A405A"/>
<path d="M152.88 5.74555C152.964 5.5989 152.796 5.34444 152.503 5.1772C152.211 5.00997 151.906 4.99328 151.822 5.13993C151.738 5.28659 151.906 5.54104 152.199 5.70828C152.491 5.87552 152.796 5.8922 152.88 5.74555Z" fill="#3A405A"/>
<path d="M160.321 5.77209C160.398 5.65616 160.235 5.41509 159.959 5.23364C159.682 5.05219 159.396 4.99907 159.32 5.11501C159.244 5.23094 159.406 5.47203 159.683 5.65348C159.959 5.83492 160.245 5.88802 160.321 5.77209Z" fill="#3A405A"/>
<path d="M161.475 5.56127C161.522 5.49128 161.416 5.33886 161.239 5.22084C161.062 5.10281 160.88 5.06387 160.834 5.13386C160.787 5.20385 160.893 5.35627 161.07 5.47429C161.247 5.59232 161.429 5.63126 161.475 5.56127Z" fill="#3A405A"/>
<path d="M158.723 5.72462C158.785 5.6274 158.656 5.43474 158.434 5.29431C158.213 5.15388 157.983 5.11887 157.921 5.21609C157.86 5.31331 157.989 5.50597 158.211 5.6464C158.432 5.78683 158.662 5.82185 158.723 5.72462Z" fill="#3A405A"/>
<path d="M148.173 5.96628C148.242 5.80152 148.051 5.56402 147.746 5.4358C147.44 5.30759 147.136 5.33721 147.067 5.50197C146.998 5.66672 147.189 5.90423 147.494 6.03244C147.8 6.16066 148.104 6.13104 148.173 5.96628Z" fill="#3A405A"/>
<path d="M145.741 6.4188C145.132 6.68597 144.627 6.53041 144.226 5.95211C144.213 5.09618 146.047 5.61937 145.741 6.4188Z" fill="#3A405A"/>
<path d="M160.243 6.59603C160.329 6.46557 160.155 6.19963 159.856 6.00205C159.556 5.80446 159.243 5.75004 159.157 5.8805C159.07 6.01097 159.244 6.2769 159.544 6.47449C159.844 6.67208 160.157 6.72649 160.243 6.59603Z" fill="#3A405A"/>
<path d="M161.469 6.38323C161.521 6.30574 161.409 6.13852 161.218 6.00973C161.026 5.88094 160.829 5.83936 160.777 5.91684C160.724 5.99433 160.837 6.16155 161.028 6.29034C161.219 6.41913 161.417 6.46071 161.469 6.38323Z" fill="#3A405A"/>
<path d="M158.465 6.64871C158.105 6.62264 157.842 6.45776 157.675 6.15548C157.66 6.11672 157.654 6.08854 157.656 6.07092C157.668 5.97932 157.751 5.9145 157.841 5.92718C157.845 5.92789 157.848 5.92789 157.851 5.92859C158.158 5.98989 158.396 6.15266 158.569 6.41619C158.585 6.44226 158.589 6.47396 158.58 6.50356C158.56 6.56979 158.521 6.61771 158.465 6.64871Z" fill="#3A405A"/>
<path d="M154.481 6.5918C154.56 6.46456 154.416 6.23288 154.159 6.07433C153.902 5.91577 153.63 5.89039 153.551 6.01763C153.472 6.14486 153.617 6.37654 153.874 6.5351C154.131 6.69365 154.403 6.71904 154.481 6.5918Z" fill="#3A405A"/>
<path d="M152.25 6.95863C151.774 6.93608 151.441 6.72428 151.251 6.3239C151.257 5.7124 152.167 6.20911 152.355 6.41204C152.523 6.59514 152.581 6.90807 152.25 6.95863Z" fill="#3A405A"/>
<path d="M150.104 6.86853C150.172 6.72511 150.012 6.50615 149.746 6.37948C149.481 6.25281 149.21 6.26639 149.141 6.40981C149.073 6.55323 149.233 6.77219 149.498 6.89886C149.764 7.02553 150.035 7.01195 150.104 6.86853Z" fill="#3A405A"/>
<path d="M147.346 7.46935C146.758 7.41367 146.372 7.15135 146.189 6.68107C146.484 6.03233 147.452 6.44291 147.791 6.79177C148.169 7.18154 147.784 7.52436 147.346 7.46935Z" fill="#3A405A"/>
<path d="M160.13 7.48688C160.227 7.34066 160.044 7.04916 159.721 6.8358C159.399 6.62244 159.059 6.56801 158.962 6.71424C158.865 6.86046 159.048 7.15197 159.371 7.36533C159.693 7.57869 160.034 7.6331 160.13 7.48688Z" fill="#3A405A"/>
<path d="M161.458 7.31967C161.521 7.22858 161.398 7.03479 161.183 6.88682C160.969 6.73886 160.743 6.69275 160.681 6.78384C160.618 6.87493 160.741 7.06873 160.955 7.2167C161.17 7.36466 161.395 7.41076 161.458 7.31967Z" fill="#3A405A"/>
<path d="M144.067 6.75253C144.455 6.7423 144.748 6.88961 144.944 7.19582C145.035 7.84303 143.886 7.5791 143.715 7.06965C143.707 7.04783 143.708 7.02396 143.716 7.00282C143.774 6.84732 143.891 6.76412 144.067 6.75253Z" fill="#3A405A"/>
<path d="M158.307 7.46278C158.386 7.33867 158.24 7.10317 157.979 6.93678C157.719 6.77039 157.443 6.7361 157.364 6.86021C157.284 6.98432 157.431 7.21981 157.691 7.38621C157.952 7.5526 158.227 7.58688 158.307 7.46278Z" fill="#3A405A"/>
<path d="M154.371 7.70921C154.482 7.51583 154.272 7.1872 153.901 6.97518C153.531 6.76317 153.14 6.74805 153.029 6.94142C152.919 7.13479 153.129 7.46343 153.5 7.67544C153.87 7.88746 154.261 7.90258 154.371 7.70921Z" fill="#3A405A"/>
<path d="M149.936 8.18365C150.06 7.91711 149.78 7.52496 149.312 7.30774C148.844 7.09053 148.363 7.1305 148.24 7.39704C148.116 7.66358 148.395 8.05575 148.863 8.27296C149.332 8.49018 149.812 8.45019 149.936 8.18365Z" fill="#3A405A"/>
<path d="M151.902 7.73485C151.967 7.61005 151.833 7.41057 151.601 7.28927C151.37 7.16797 151.129 7.17079 151.064 7.29559C150.998 7.42039 151.133 7.6199 151.364 7.74119C151.595 7.86249 151.836 7.85965 151.902 7.73485Z" fill="#3A405A"/>
<path d="M147.129 8.41636C146.546 8.626 146.072 8.47646 145.708 7.9691C145.644 7.88101 145.666 7.76288 145.772 7.61538C145.876 7.51773 146.005 7.4713 146.157 7.4754C146.544 7.487 147.525 7.87418 147.129 8.41636Z" fill="#3A405A"/>
<path d="M160.031 8.45065C159.755 9.0233 158.279 7.90681 158.798 7.59203C159.252 7.49396 160.013 7.94248 160.031 8.45065Z" fill="#3A405A"/>
<path d="M161.447 8.22797C161.517 8.12556 161.387 7.91462 161.157 7.75682C160.926 7.59903 160.682 7.55412 160.612 7.65654C160.542 7.75896 160.672 7.96991 160.902 8.1277C161.133 8.2855 161.377 8.33039 161.447 8.22797Z" fill="#3A405A"/>
<path d="M158.086 8.46234C158.181 8.31432 158.014 8.03703 157.713 7.84301C157.412 7.64898 157.09 7.6117 156.994 7.75972C156.899 7.90775 157.066 8.18503 157.367 8.37906C157.669 8.57308 157.99 8.61037 158.086 8.46234Z" fill="#3A405A"/>
<path d="M156.104 8.60353C156.208 8.43426 156.029 8.13598 155.704 7.93731C155.38 7.73864 155.033 7.7148 154.929 7.88407C154.825 8.05333 155.004 8.35161 155.328 8.55028C155.653 8.74896 156 8.77279 156.104 8.60353Z" fill="#3A405A"/>
<path d="M152.807 7.78509C153.506 7.82268 153.951 8.13296 154.143 8.71662C153.847 9.41237 152.857 8.76446 152.589 8.38857C152.404 8.12886 152.48 7.85412 152.807 7.78509Z" fill="#3A405A"/>
<path d="M151.872 9.10773C152.002 8.85524 151.748 8.46471 151.303 8.23547C150.858 8.00622 150.392 8.02508 150.262 8.27757C150.131 8.53006 150.386 8.92059 150.831 9.14984C151.275 9.37908 151.741 9.36022 151.872 9.10773Z" fill="#3A405A"/>
<path d="M148.266 8.30338C148.882 8.3834 149.257 8.69116 149.391 9.22528C149.099 9.74094 148.387 9.53098 148.015 9.26016C147.838 9.13159 147.715 8.98318 147.644 8.81563C147.573 8.39503 147.924 8.2856 148.266 8.30338Z" fill="#3A405A"/>
<path d="M159.917 9.46991C160.04 9.28638 159.834 8.93464 159.459 8.68428C159.083 8.43391 158.679 8.37973 158.556 8.56326C158.434 8.74679 158.639 9.09853 159.015 9.3489C159.391 9.59926 159.795 9.65344 159.917 9.46991Z" fill="#3A405A"/>
<path d="M161.378 9.33462C161.035 9.30243 160.771 9.13072 160.588 8.82092C160.526 8.71646 160.536 8.62346 160.618 8.54189L160.689 8.51542C160.71 8.50755 160.73 8.50612 160.752 8.51113C160.98 8.56479 161.749 9.00122 161.378 9.33462Z" fill="#3A405A"/>
<path d="M157.855 9.50907C157.965 9.34019 157.786 9.0304 157.456 8.81716C157.126 8.60391 156.77 8.56796 156.66 8.73684C156.551 8.90572 156.73 9.21549 157.06 9.42874C157.39 9.64198 157.746 9.67795 157.855 9.50907Z" fill="#3A405A"/>
<path d="M162.948 17.4644C162.985 17.7922 162.81 17.9926 162.424 18.0664C162.385 18.0738 162.379 18.0914 162.407 18.1199C162.601 18.3196 162.738 18.5526 162.817 18.82C162.821 18.8329 162.834 18.8403 162.847 18.8369C162.853 18.8356 162.858 18.8315 162.861 18.8268C163.026 18.581 163.274 18.5729 163.545 18.6663C164.079 18.8512 164.444 19.2073 164.639 19.7361C164.841 20.2846 164.434 20.5798 163.92 20.3984C163.389 20.2108 163.021 19.8411 162.815 19.2899C162.807 19.2676 162.796 19.2662 162.783 19.2859C162.635 19.4958 162.429 19.5804 162.163 19.5405C162.149 19.5378 162.136 19.5479 162.134 19.5621C162.133 19.5709 162.136 19.5797 162.142 19.5858C162.409 19.8221 162.587 20.114 162.675 20.4613C162.682 20.4898 162.694 20.4925 162.712 20.4688C162.867 20.265 163.056 20.1898 163.281 20.2419C163.913 20.3889 164.333 20.7742 164.542 21.3984C164.798 22.1602 164.12 22.3566 163.564 22.0437C163.121 21.7952 162.823 21.4357 162.669 20.9658C162.662 20.9428 162.651 20.9407 162.637 20.9604C162.516 21.129 162.351 21.219 162.141 21.2319C162.067 21.2366 161.988 21.2062 161.906 21.2034C161.868 21.2028 161.864 21.2143 161.892 21.2393C162.324 21.6192 162.835 22.6518 161.964 22.8671L161.57 22.8332C161.077 22.6497 160.721 22.3268 160.501 21.8636C160.264 21.3646 160.412 20.7538 161.092 20.8378C161.136 20.8432 161.142 20.831 161.108 20.8019C160.884 20.6008 160.71 20.3618 160.588 20.0862C160.58 20.0693 160.56 20.0618 160.543 20.0693C160.541 20.07 160.539 20.0706 160.538 20.072C159.809 20.5453 158.888 19.7355 158.587 19.1112C158.577 19.0895 158.561 19.0841 158.539 19.0956C158.274 19.2358 158 19.2493 157.716 19.1376C157.708 19.1342 157.699 19.1383 157.696 19.1464C157.693 19.1532 157.695 19.1606 157.701 19.1647C158.054 19.4233 158.419 19.9393 158.303 20.3929C158.173 20.9008 157.59 20.9035 157.201 20.7369C156.775 20.5548 156.47 20.2507 156.285 19.8262C156.081 19.3556 156.267 18.8911 156.795 18.8417C156.917 18.8302 157.026 18.862 157.153 18.8877C157.199 18.8965 157.203 18.8877 157.166 18.86C156.907 18.665 156.712 18.4212 156.579 18.128C156.568 18.1057 156.553 18.0996 156.53 18.1097C155.732 18.4733 154.651 17.7691 154.496 16.9532C154.49 16.9255 154.477 16.9207 154.455 16.9397C154.248 17.1184 154.004 17.1895 153.725 17.1536C153.638 17.1421 153.629 17.1645 153.696 17.22C153.984 17.4597 154.174 17.9222 154.045 18.2783C153.831 18.8661 152.934 18.6839 152.533 18.4002C152.159 18.1612 151.939 17.8382 151.871 17.4299C151.859 16.9437 152.239 16.6912 152.694 16.7372C152.749 16.7433 152.757 16.7271 152.718 16.6885C152.113 16.098 151.959 15.0736 153.166 15.1433C153.178 15.144 153.189 15.1352 153.19 15.123C153.19 15.1155 153.188 15.1088 153.182 15.104C152.752 14.7357 152.349 13.8331 153.229 13.6665C153.304 13.653 153.401 13.6625 153.493 13.6537C153.526 13.6503 153.531 13.6374 153.506 13.6151C153.301 13.4275 153.169 13.198 153.111 12.9278C153.097 12.3319 153.65 12.2602 154.097 12.3672C154.138 12.3773 154.142 12.3685 154.11 12.3414C153.759 12.0442 153.479 11.7659 153.549 11.2682C153.716 11.0068 153.961 10.9154 154.285 10.9933C154.302 10.9974 154.318 10.9865 154.322 10.9703C154.325 10.9588 154.321 10.9473 154.312 10.9391C154.076 10.7421 153.933 10.4922 153.882 10.1896C153.878 10.1645 153.867 10.1611 153.849 10.1794C153.124 10.9269 151.253 9.2687 152.271 8.92541C152.834 8.73582 153.888 9.33099 153.911 9.96748C153.912 9.9905 153.921 9.99388 153.937 9.97763C154.208 9.71424 154.443 9.76502 154.796 9.82393C154.807 9.82528 154.817 9.81784 154.818 9.807C154.819 9.80023 154.816 9.79278 154.811 9.78872C154.536 9.59507 154.09 9.10619 154.419 8.7866C155.002 8.51169 156.076 9.06828 156.163 9.7332C156.166 9.76028 156.178 9.76435 156.197 9.74471C156.315 9.62689 156.447 9.57611 156.594 9.59304C157.213 9.66278 157.662 9.97967 157.941 10.5444C157.951 10.5654 157.965 10.5688 157.985 10.5559C158.234 10.3839 158.462 10.4516 158.716 10.5166C158.752 10.5261 158.756 10.5186 158.728 10.4936C158.531 10.3162 157.97 9.80362 158.283 9.51111C158.719 9.10281 159.716 9.87945 159.881 10.3094C160.087 10.847 159.533 10.8152 159.21 10.738C159.177 10.7306 159.174 10.7374 159.2 10.7583C159.478 10.9798 159.668 11.1599 159.801 11.4774C159.81 11.4984 159.824 11.5045 159.845 11.4971C160.509 11.2628 161.252 11.8268 161.499 12.401C161.506 12.4166 161.517 12.4206 161.531 12.4118C162.135 12.0597 162.915 12.7518 163.145 13.2535C163.361 13.7227 162.939 13.8473 162.577 13.7417C162.563 13.7376 162.548 13.7464 162.544 13.7606C162.54 13.7715 162.545 13.783 162.554 13.7891C162.84 13.9888 163.044 14.2536 163.164 14.5833C163.175 14.6131 163.191 14.6165 163.214 14.5942C163.752 14.0491 165.283 15.3932 164.79 15.9274C164.681 16.0473 164.523 16.075 164.316 16.012C163.773 15.8461 163.388 15.5062 163.163 14.9923C163.154 14.9713 163.142 14.9693 163.126 14.9855C162.991 15.1271 162.823 15.1778 162.621 15.1379C162.605 15.1345 162.589 15.1453 162.586 15.1609C162.584 15.1717 162.587 15.1826 162.596 15.1894C162.83 15.3844 162.985 15.6295 163.06 15.924C163.064 15.943 163.074 15.9457 163.088 15.9315C163.623 15.3722 164.555 16.2944 164.759 16.7602C164.929 17.1469 164.745 17.5227 164.286 17.4096C163.695 17.2633 163.286 16.9031 163.058 16.3282C163.05 16.3079 163.038 16.3052 163.022 16.3208C162.819 16.5178 162.582 16.5591 162.314 16.4447C162.302 16.44 162.288 16.4461 162.283 16.4583C162.279 16.4684 162.283 16.4792 162.292 16.486C162.64 16.7203 162.859 17.046 162.948 17.4644ZM156.393 10.6378C156.467 10.5247 156.358 10.3223 156.149 10.1869C155.94 10.0508 155.711 10.0332 155.637 10.1462C155.563 10.2593 155.672 10.4618 155.88 10.5972C156.09 10.7326 156.319 10.7509 156.393 10.6378ZM158.253 11.5817C158.321 11.4842 158.23 11.3021 158.048 11.1761C157.867 11.0502 157.664 11.0272 157.596 11.1247C157.527 11.2222 157.619 11.4043 157.8 11.5302C157.982 11.6569 158.184 11.6799 158.253 11.5817ZM156.05 11.8891C156.121 11.7794 156.022 11.5885 155.828 11.4639C155.634 11.3386 155.419 11.3264 155.348 11.4361C155.277 11.5458 155.376 11.7368 155.57 11.8614C155.764 11.9866 155.979 11.9988 156.05 11.8891ZM159.995 12.487C160.065 12.3929 159.977 12.2101 159.799 12.078C159.621 11.946 159.42 11.9155 159.35 12.0096C159.28 12.1038 159.368 12.2866 159.546 12.4186C159.724 12.55 159.925 12.5811 159.995 12.487ZM155.742 13.1919C155.819 13.0754 155.722 12.875 155.524 12.745C155.327 12.615 155.104 12.6035 155.027 12.7206C154.949 12.8371 155.046 13.0375 155.244 13.1675C155.442 13.2975 155.664 13.3083 155.742 13.1919ZM161.754 13.4167C161.834 13.3144 161.739 13.1086 161.542 12.9569C161.346 12.8052 161.122 12.766 161.043 12.8682C160.964 12.9705 161.059 13.1763 161.255 13.328C161.451 13.4796 161.675 13.5196 161.754 13.4167ZM155.408 14.5813C155.493 14.4567 155.396 14.2448 155.193 14.1087C154.99 13.9719 154.757 13.9624 154.673 14.087C154.589 14.2116 154.685 14.4235 154.888 14.5596C155.091 14.6957 155.324 14.7059 155.408 14.5813ZM161.642 14.7634C161.718 14.6659 161.634 14.4716 161.453 14.3301C161.271 14.1886 161.062 14.1527 160.986 14.2502C160.909 14.3477 160.993 14.542 161.174 14.6835C161.356 14.8257 161.565 14.8616 161.642 14.7634ZM155.112 16.0127C155.213 15.8658 155.11 15.618 154.879 15.4595C154.648 15.3011 154.379 15.2923 154.278 15.4392C154.176 15.5861 154.28 15.834 154.511 15.9924C154.741 16.1508 155.01 16.1596 155.112 16.0127ZM161.481 16.1231C161.566 16.0208 161.488 15.817 161.307 15.6681C161.127 15.5191 160.912 15.4812 160.827 15.5834C160.742 15.6857 160.819 15.8895 161 16.0384C161.18 16.1874 161.396 16.2253 161.481 16.1231ZM157.195 17.0338C157.288 16.9106 157.204 16.6905 157.007 16.5422C156.81 16.3939 156.574 16.3743 156.481 16.4975C156.388 16.6208 156.473 16.8408 156.67 16.9891C156.866 17.1374 157.102 17.157 157.195 17.0338ZM161.316 17.5836C161.409 17.4773 161.333 17.2613 161.149 17.1015C160.963 16.9417 160.738 16.8984 160.646 17.0047C160.554 17.111 160.629 17.327 160.814 17.4868C160.998 17.6466 161.224 17.6899 161.316 17.5836ZM159.142 18.0237C159.24 17.9066 159.165 17.6831 158.974 17.524C158.783 17.3649 158.549 17.3311 158.451 17.4482C158.352 17.5653 158.428 17.7888 158.619 17.9479C158.809 18.1063 159.043 18.1409 159.142 18.0237ZM161.108 19.0428C161.22 18.9162 161.142 18.6643 160.933 18.4794C160.723 18.2953 160.463 18.2485 160.351 18.3752C160.238 18.5018 160.317 18.7537 160.526 18.9385C160.735 19.122 160.996 19.1694 161.108 19.0428Z" fill="#3A405A"/>
<path d="M151.446 10.3254C151.327 10.4964 151.162 10.5792 150.95 10.5739C150.353 10.5593 149.911 10.2942 149.623 9.77797C149.579 9.69844 149.593 9.58776 149.665 9.44659C150.146 8.86272 151.601 9.57053 151.446 10.3254Z" fill="#3A405A"/>
<path d="M137.752 9.60781C137.771 9.44891 137.567 9.29397 137.297 9.26174C137.026 9.22952 136.792 9.33221 136.773 9.49111C136.754 9.65001 136.958 9.80494 137.228 9.83717C137.499 9.86939 137.733 9.76671 137.752 9.60781Z" fill="#3A405A"/>
<path d="M143.067 10.0553C142.81 10.0418 142.614 9.94089 142.476 9.75127C142.443 9.56809 142.539 9.46589 142.763 9.44339C143.093 9.41061 143.337 9.52374 143.494 9.78277C143.504 9.80141 143.506 9.82326 143.497 9.84255C143.426 10.0007 143.283 10.072 143.067 10.0553Z" fill="#3A405A"/>
<path d="M161.06 9.61905C161.301 9.75266 161.441 9.94651 161.477 10.202C161.446 10.3328 161.363 10.3861 161.229 10.3619C160.844 10.2927 160.56 10.0864 160.375 9.74228C160.259 9.52558 160.46 9.40443 160.656 9.44597C160.808 9.47781 160.943 9.53528 161.06 9.61905Z" fill="#3A405A"/>
<path d="M134.52 10.0507C134.524 9.90088 134.313 9.77341 134.048 9.76604C133.784 9.75866 133.566 9.87418 133.562 10.024C133.558 10.1739 133.769 10.3014 134.033 10.3087C134.298 10.3161 134.516 10.2006 134.52 10.0507Z" fill="#3A405A"/>
<path d="M148.55 10.5041C148.638 10.3068 148.446 10.0307 148.122 9.88724C147.798 9.74381 147.464 9.78743 147.377 9.98467C147.289 10.1819 147.481 10.4581 147.805 10.6015C148.129 10.7449 148.463 10.7013 148.55 10.5041Z" fill="#3A405A"/>
<path d="M140.494 10.5073C140.541 10.2611 140.255 10.0005 139.856 9.92506C139.456 9.84966 139.095 9.98808 139.048 10.2342C139.002 10.4804 139.288 10.741 139.687 10.8164C140.086 10.8918 140.448 10.7534 140.494 10.5073Z" fill="#3A405A"/>
<path d="M153.523 11.2109C153.457 11.9036 152.405 11.5278 152.07 11.2833C151.686 11.0264 151.52 10.704 151.569 10.316C152.13 9.63288 153.542 10.4349 153.523 11.2109Z" fill="#3A405A"/>
<path d="M145.849 10.8953C145.929 10.6755 145.711 10.3958 145.363 10.2707C145.015 10.1456 144.669 10.2224 144.589 10.4423C144.51 10.6621 144.728 10.9418 145.076 11.0669C145.424 11.192 145.77 11.1152 145.849 10.8953Z" fill="#3A405A"/>
<path d="M136.923 10.7605C136.938 10.5937 136.723 10.4382 136.442 10.4132C136.162 10.3882 135.923 10.5032 135.908 10.67C135.893 10.8368 136.108 10.9924 136.388 11.0173C136.669 11.0423 136.908 10.9274 136.923 10.7605Z" fill="#3A405A"/>
<path d="M161.409 11.3897C161.523 11.2309 161.36 10.9189 161.045 10.6929C160.73 10.4669 160.382 10.4124 160.268 10.5712C160.154 10.73 160.317 11.0419 160.632 11.268C160.946 11.494 161.294 11.5485 161.409 11.3897Z" fill="#3A405A"/>
<path d="M150.767 11.5073C150.894 11.2615 150.672 10.8948 150.272 10.6884C149.872 10.4819 149.444 10.5139 149.317 10.7597C149.19 11.0056 149.412 11.3722 149.812 11.5787C150.212 11.7851 150.64 11.7532 150.767 11.5073Z" fill="#3A405A"/>
<path d="M142.907 11.4431C142.978 11.1742 142.693 10.8658 142.271 10.7544C141.848 10.643 141.449 10.7706 141.377 11.0396C141.306 11.3085 141.591 11.6168 142.013 11.7283C142.435 11.8397 142.835 11.712 142.907 11.4431Z" fill="#3A405A"/>
<path d="M169.07 11.4705C169.123 11.403 169.027 11.2406 168.857 11.1078C168.686 10.9751 168.505 10.9222 168.452 10.9898C168.399 11.0574 168.495 11.2197 168.666 11.3525C168.837 11.4852 169.018 11.5381 169.07 11.4705Z" fill="#3A405A"/>
<path d="M167.692 11.5974C167.757 11.5147 167.651 11.3235 167.455 11.1704C167.26 11.0172 167.049 10.96 166.984 11.0427C166.919 11.1254 167.025 11.3166 167.22 11.4697C167.416 11.6229 167.627 11.6801 167.692 11.5974Z" fill="#3A405A"/>
<path d="M170.196 11.4468C170.243 11.3877 170.16 11.2457 170.012 11.1296C169.864 11.0136 169.706 10.9675 169.66 11.0266C169.613 11.0857 169.696 11.2277 169.844 11.3438C169.992 11.4598 170.15 11.5059 170.196 11.4468Z" fill="#3A405A"/>
<path d="M148.073 11.8596C148.177 11.6232 147.961 11.2991 147.59 11.1358C147.219 10.9724 146.834 11.0316 146.73 11.268C146.625 11.5044 146.841 11.8284 147.212 11.9918C147.583 12.1552 147.968 12.096 148.073 11.8596Z" fill="#3A405A"/>
<path d="M166.256 11.8349C166.343 11.7219 166.208 11.4716 165.955 11.2759C165.701 11.0802 165.425 11.0132 165.338 11.1262C165.25 11.2392 165.385 11.4894 165.638 11.6851C165.892 11.8808 166.168 11.9479 166.256 11.8349Z" fill="#3A405A"/>
<path d="M139.512 11.5939C139.545 11.3882 139.307 11.1797 138.981 11.1281C138.656 11.0766 138.365 11.2016 138.333 11.4073C138.3 11.613 138.538 11.8215 138.863 11.873C139.189 11.9245 139.48 11.7995 139.512 11.5939Z" fill="#3A405A"/>
<path d="M164.678 12.0199C164.772 11.8967 164.637 11.6351 164.376 11.4357C164.115 11.2363 163.827 11.1746 163.732 11.2979C163.638 11.4211 163.773 11.6827 164.034 11.8821C164.295 12.0815 164.583 12.1432 164.678 12.0199Z" fill="#3A405A"/>
<path d="M162.683 11.5449L163 11.9532C163.065 12.1919 163.011 12.317 162.837 12.3292C162.472 12.3536 162.057 11.9647 161.919 11.629C161.871 11.5133 161.884 11.4234 161.956 11.358C162.14 11.192 162.529 11.404 162.683 11.5449Z" fill="#3A405A"/>
<path d="M151.967 11.43C152.402 11.5393 153.365 12.1938 152.868 12.7077C152.332 13.1318 151.213 12.5074 151.15 11.8923C151.102 11.4166 151.631 11.3483 151.967 11.43Z" fill="#3A405A"/>
<path d="M144.552 11.5432C144.851 11.6333 145.077 11.8137 145.23 12.0848C145.348 12.5095 145.093 12.7159 144.724 12.7406C144.392 12.7631 144.102 12.6568 143.854 12.4215C143.195 11.7968 143.997 11.3685 144.552 11.5432Z" fill="#3A405A"/>
<path d="M150.363 12.9468C150.513 12.6529 150.263 12.2246 149.805 11.9901C149.346 11.7556 148.852 11.8037 148.701 12.0976C148.551 12.3915 148.801 12.8198 149.259 13.0543C149.718 13.2888 150.212 13.2407 150.363 12.9468Z" fill="#3A405A"/>
<path d="M169.13 12.4118C169.183 12.3465 169.099 12.1905 168.941 12.0634C168.784 11.9364 168.614 11.8864 168.561 11.9517C168.508 12.0171 168.593 12.1731 168.75 12.3001C168.907 12.4272 169.077 12.4772 169.13 12.4118Z" fill="#3A405A"/>
<path d="M167.852 12.7106C167.932 12.6108 167.815 12.3824 167.589 12.2004C167.363 12.0184 167.115 11.9518 167.034 12.0516C166.954 12.1514 167.071 12.3798 167.297 12.5618C167.523 12.7438 167.771 12.8104 167.852 12.7106Z" fill="#3A405A"/>
<path d="M166.316 12.9209C166.422 12.7868 166.275 12.4946 165.988 12.2682C165.701 12.0418 165.383 11.967 165.277 12.1011C165.171 12.2352 165.317 12.5274 165.604 12.7538C165.891 12.9802 166.21 13.055 166.316 12.9209Z" fill="#3A405A"/>
<path d="M141.909 12.6765C141.954 12.4904 141.761 12.2842 141.478 12.2158C141.195 12.1474 140.929 12.2428 140.884 12.4289C140.839 12.6149 141.032 12.8212 141.315 12.8896C141.598 12.958 141.864 12.8626 141.909 12.6765Z" fill="#3A405A"/>
<path d="M164.62 13.2552C164.202 13.3152 163.467 12.8048 163.55 12.3488C163.619 12.2433 163.722 12.206 163.858 12.2382C164.287 12.3374 164.586 12.5711 164.755 12.9387C164.819 13.0777 164.774 13.1832 164.62 13.2552Z" fill="#3A405A"/>
<path d="M147.423 13.3964C146.87 14.2405 145.335 12.9193 146.286 12.5564C146.786 12.4527 147.496 12.7682 147.423 13.3964Z" fill="#3A405A"/>
<path d="M152.648 14.0869C152.849 13.7382 152.566 13.1993 152.016 12.8834C151.466 12.5675 150.857 12.5941 150.656 12.9429C150.456 13.2916 150.739 13.8305 151.289 14.1464C151.839 14.4623 152.447 14.4357 152.648 14.0869Z" fill="#3A405A"/>
<path d="M167.743 13.6768C167.811 13.5938 167.716 13.4042 167.532 13.2533C167.347 13.1025 167.143 13.0475 167.075 13.1305C167.007 13.2135 167.101 13.4032 167.285 13.554C167.47 13.7049 167.675 13.7598 167.743 13.6768Z" fill="#3A405A"/>
<path d="M144.274 13.6345C144.328 13.469 144.175 13.27 143.932 13.19C143.688 13.11 143.446 13.1794 143.392 13.3449C143.337 13.5104 143.491 13.7094 143.734 13.7894C143.978 13.8694 144.219 13.8001 144.274 13.6345Z" fill="#3A405A"/>
<path d="M166.259 14.0164C166.362 13.8904 166.232 13.6152 165.968 13.4015C165.705 13.1879 165.409 13.1168 165.307 13.2427C165.204 13.3686 165.334 13.6439 165.597 13.8575C165.861 14.0712 166.157 14.1423 166.259 14.0164Z" fill="#3A405A"/>
<path d="M164.763 14.4894C164.915 14.3014 164.736 13.9058 164.364 13.6057C163.992 13.3057 163.567 13.2148 163.415 13.4027C163.263 13.5907 163.442 13.9863 163.814 14.2864C164.186 14.5864 164.611 14.6773 164.763 14.4894Z" fill="#3A405A"/>
<path d="M149.294 14.7047C148.828 14.7317 148.173 14.3996 148.152 13.8099C148.312 13.0075 149.309 13.4458 149.584 13.8878C149.806 14.2431 149.713 14.6297 149.294 14.7047Z" fill="#3A405A"/>
<path d="M146.558 14.6344C146.625 14.4755 146.491 14.2677 146.259 14.1702C146.027 14.0727 145.784 14.1225 145.717 14.2814C145.65 14.4403 145.784 14.6481 146.017 14.7456C146.249 14.8431 146.491 14.7933 146.558 14.6344Z" fill="#3A405A"/>
<path d="M150.885 15.7749L150.437 15.458C149.949 14.9595 149.957 14.1382 150.857 14.1923C151.427 14.2266 151.858 14.4762 152.149 14.941C152.321 15.2163 152.355 15.5623 152.093 15.7802C151.773 16.0456 151.246 15.9531 150.885 15.7749Z" fill="#3A405A"/>
<path d="M165.47 14.4997C165.797 14.5033 166.016 14.6909 166.126 15.0625C166.047 15.5662 165.156 14.7436 165.47 14.4997Z" fill="#3A405A"/>
<path d="M149.149 15.9255C149.299 15.632 149.08 15.2199 148.66 15.0051C148.24 14.7904 147.778 14.8543 147.627 15.1478C147.477 15.4414 147.696 15.8535 148.116 16.0682C148.536 16.283 148.998 16.2191 149.149 15.9255Z" fill="#3A405A"/>
<path d="M167.837 16.0962C167.928 15.9927 167.83 15.7592 167.619 15.5747C167.408 15.3903 167.164 15.3247 167.073 15.4282C166.982 15.5317 167.08 15.7652 167.291 15.9496C167.502 16.1341 167.746 16.1997 167.837 16.0962Z" fill="#3A405A"/>
<path d="M166.391 16.7232C166.558 16.5342 166.397 16.12 166.031 15.798C165.666 15.4761 165.234 15.3684 165.067 15.5574C164.901 15.7464 165.062 16.1606 165.427 16.4826C165.793 16.8045 166.224 16.9122 166.391 16.7232Z" fill="#3A405A"/>
<path d="M146.006 16.4748C146.106 16.2353 145.918 15.9294 145.587 15.7916C145.255 15.6538 144.906 15.7363 144.806 15.9758C144.706 16.2154 144.894 16.5213 145.225 16.6591C145.557 16.7969 145.906 16.7144 146.006 16.4748Z" fill="#3A405A"/>
<path d="M150.841 15.8209C151.365 16.0308 151.869 16.6218 151.579 17.2576C150.992 17.7745 150.148 17.38 149.82 16.7316C149.384 15.8727 150.243 15.5789 150.841 15.8209Z" fill="#3A405A"/>
<path d="M169.597 17.0815C169.699 16.9705 169.595 16.7076 169.364 16.4943C169.132 16.2811 168.862 16.1982 168.759 16.3092C168.657 16.4202 168.761 16.6831 168.992 16.8963C169.224 17.1096 169.494 17.1925 169.597 17.0815Z" fill="#3A405A"/>
<path d="M167.173 16.3812C167.682 16.5523 168.014 16.8785 168.169 17.3591C168.235 17.564 168.162 17.7132 167.948 17.8053C167.402 17.7105 167.017 17.4055 166.794 16.8917C166.66 16.5841 166.812 16.2725 167.173 16.3812Z" fill="#3A405A"/>
<path d="M148.589 17.6667C148.759 17.3387 148.531 16.8835 148.08 16.6498C147.629 16.4161 147.125 16.4926 146.955 16.8205C146.785 17.1485 147.012 17.6037 147.464 17.8374C147.915 18.0711 148.419 17.9946 148.589 17.6667Z" fill="#3A405A"/>
<path d="M166.475 18.1913C166.666 17.9835 166.505 17.5243 166.114 17.1657C165.724 16.8071 165.252 16.6848 165.061 16.8926C164.87 17.1004 165.031 17.5595 165.422 17.9182C165.812 18.2768 166.284 18.399 166.475 18.1913Z" fill="#3A405A"/>
<path d="M171.228 18.0673C171.344 17.9494 171.234 17.6533 170.982 17.4059C170.73 17.1585 170.432 17.0536 170.316 17.1715C170.2 17.2893 170.31 17.5854 170.562 17.8328C170.814 18.0802 171.112 18.1852 171.228 18.0673Z" fill="#3A405A"/>
<path d="M164.548 18.6699C163.916 18.9928 162.901 18.0428 163.04 17.4143C163.503 16.6224 165.154 18.095 164.548 18.6699Z" fill="#3A405A"/>
<path d="M145.474 18.4094C145.618 18.0501 145.349 17.6047 144.873 17.4144C144.397 17.2242 143.894 17.3612 143.75 17.7205C143.606 18.0798 143.876 18.5253 144.352 18.7155C144.828 18.9058 145.33 18.7687 145.474 18.4094Z" fill="#3A405A"/>
<path d="M169.838 18.636C169.998 18.4711 169.857 18.0734 169.521 17.7475C169.186 17.4217 168.784 17.2912 168.623 17.456C168.463 17.6209 168.605 18.0186 168.94 18.3445C169.275 18.6703 169.677 18.8008 169.838 18.636Z" fill="#3A405A"/>
<path d="M151.038 18.8164C151.249 18.4701 151.032 17.9535 150.552 17.6625C150.073 17.3715 149.514 17.4164 149.303 17.7627C149.093 18.1091 149.31 18.6257 149.789 18.9166C150.268 19.2076 150.828 19.1627 151.038 18.8164Z" fill="#3A405A"/>
<path d="M167.826 18.1811C167.96 18.3166 168.065 18.4789 168.144 18.6692C168.287 19.1068 168.105 19.3793 167.684 19.1911C167.385 19.0576 166.573 18.3124 166.945 17.8903C167.164 17.6431 167.646 17.9957 167.826 18.1811Z" fill="#3A405A"/>
<path d="M155.901 19.2545C156.122 18.97 155.959 18.4747 155.538 18.1481C155.116 17.8216 154.596 17.7875 154.375 18.072C154.154 18.3565 154.316 18.8519 154.738 19.1784C155.159 19.5049 155.68 19.539 155.901 19.2545Z" fill="#3A405A"/>
<path d="M172.953 19.1413C173.098 19.0005 172.968 18.6322 172.662 18.3186C172.357 18.005 171.992 17.8649 171.847 18.0056C171.702 18.1464 171.832 18.5147 172.138 18.8283C172.443 19.1419 172.808 19.282 172.953 19.1413Z" fill="#3A405A"/>
<path d="M166.244 19.5226C165.673 19.7168 165.133 19.1427 164.996 18.6884C164.867 17.7743 166.759 18.7669 166.244 19.5226Z" fill="#3A405A"/>
<path d="M148 19.6008C148.194 19.2194 147.944 18.7038 147.441 18.4492C146.939 18.1947 146.375 18.2975 146.181 18.6789C145.988 19.0604 146.238 19.576 146.74 19.8305C147.242 20.0851 147.807 19.9822 148 19.6008Z" fill="#3A405A"/>
<path d="M171.418 19.559C171.564 19.4156 171.44 19.0534 171.142 18.7499C170.843 18.4464 170.483 18.3166 170.337 18.4599C170.191 18.6033 170.314 18.9655 170.613 19.269C170.911 19.5725 171.272 19.7023 171.418 19.559Z" fill="#3A405A"/>
<path d="M152.46 18.549C152.862 18.6661 153.147 18.8911 153.316 19.2239C153.526 19.6404 153.427 20.0569 152.937 20.1797C152.418 20.2003 152.025 20.0186 151.758 19.6354C151.313 18.9975 151.653 18.41 152.46 18.549Z" fill="#3A405A"/>
<path d="M168.914 18.8384C169.403 18.9596 169.711 19.2669 169.838 19.7598C169.863 19.857 169.819 19.9576 169.758 20.024C169.374 20.3519 168.25 19.0896 168.914 18.8384Z" fill="#3A405A"/>
<path d="M174.492 20.0673C174.623 19.9471 174.508 19.6114 174.237 19.3174C173.965 19.0234 173.639 18.8825 173.509 19.0027C173.378 19.1229 173.493 19.4586 173.765 19.7526C174.036 20.0466 174.362 20.1875 174.492 20.0673Z" fill="#3A405A"/>
<path d="M144.695 20.4068C144.844 20.0134 144.561 19.5422 144.064 19.3544C143.566 19.1666 143.042 19.3333 142.893 19.7267C142.745 20.1202 143.027 20.5914 143.525 20.7792C144.022 20.967 144.546 20.8003 144.695 20.4068Z" fill="#3A405A"/>
<path d="M173.036 20.5291C173.177 20.3992 173.066 20.0497 172.787 19.7482C172.509 19.4468 172.169 19.3077 172.028 19.4376C171.887 19.5674 171.999 19.917 172.277 20.2184C172.556 20.5198 172.896 20.6589 173.036 20.5291Z" fill="#3A405A"/>
<path d="M167.908 20.389C168.04 20.2608 167.949 19.9545 167.705 19.7048C167.461 19.4551 167.157 19.3567 167.025 19.4849C166.893 19.6131 166.985 19.9194 167.228 20.1691C167.472 20.4187 167.777 20.5172 167.908 20.389Z" fill="#3A405A"/>
<path d="M150.317 20.7051C150.523 20.3868 150.35 19.9088 149.93 19.6375C149.51 19.3662 149.003 19.4043 148.797 19.7226C148.591 20.0409 148.764 20.5189 149.184 20.7902C149.603 21.0615 150.111 21.0234 150.317 20.7051Z" fill="#3A405A"/>
<path d="M155.306 20.8538C155.491 20.6306 155.383 20.2377 155.065 19.9763C154.748 19.7149 154.341 19.6841 154.157 19.9073C153.973 20.1306 154.081 20.5235 154.398 20.7849C154.715 21.0463 155.122 21.0771 155.306 20.8538Z" fill="#3A405A"/>
<path d="M166.248 21.1447C166.453 20.9433 166.327 20.4849 165.967 20.1207C165.608 19.7566 165.151 19.6246 164.946 19.826C164.742 20.0273 164.868 20.4858 165.227 20.85C165.587 21.2141 166.044 21.3461 166.248 21.1447Z" fill="#3A405A"/>
<path d="M171.39 20.9205C171.513 20.8078 171.426 20.5107 171.194 20.257C170.962 20.0033 170.674 19.8889 170.55 20.0016C170.426 20.1143 170.514 20.4113 170.746 20.6651C170.978 20.9188 171.266 21.0332 171.39 20.9205Z" fill="#3A405A"/>
<path d="M160.103 21.4307C160.336 21.1767 160.207 20.6776 159.813 20.3159C159.42 19.9543 158.911 19.867 158.677 20.121C158.443 20.375 158.573 20.8741 158.966 21.2358C159.36 21.5974 159.869 21.6847 160.103 21.4307Z" fill="#3A405A"/>
<path d="M176.004 20.9929C176.105 20.9062 176.022 20.6461 175.82 20.412C175.618 20.178 175.373 20.0585 175.272 20.1453C175.171 20.232 175.254 20.492 175.456 20.7261C175.658 20.9602 175.904 21.0796 176.004 20.9929Z" fill="#3A405A"/>
<path d="M147.191 21.6101C147.387 21.2404 147.173 20.742 146.712 20.4969C146.25 20.2519 145.717 20.353 145.52 20.7227C145.323 21.0924 145.538 21.5907 145.999 21.8358C146.46 22.0808 146.994 21.9798 147.191 21.6101Z" fill="#3A405A"/>
<path d="M174.484 21.3777C174.593 21.2827 174.513 21.0125 174.306 20.774C174.098 20.5356 173.842 20.4193 173.732 20.5142C173.623 20.6092 173.702 20.8794 173.91 21.1178C174.117 21.3563 174.374 21.4726 174.484 21.3777Z" fill="#3A405A"/>
<path d="M157.713 22.1741C157.973 21.8907 157.849 21.3547 157.436 20.9768C157.024 20.5989 156.478 20.5223 156.218 20.8057C155.958 21.0891 156.082 21.6251 156.495 22.003C156.908 22.3809 157.453 22.4575 157.713 22.1741Z" fill="#3A405A"/>
<path d="M152.367 21.5413C152.499 21.3688 152.418 21.0861 152.186 20.9098C151.954 20.7335 151.66 20.7305 151.529 20.903C151.397 21.0755 151.478 21.3582 151.71 21.5345C151.941 21.7108 152.236 21.7138 152.367 21.5413Z" fill="#3A405A"/>
<path d="M141.016 21.9394C140.445 22.2595 139.547 21.7797 140.021 21.0802C140.35 20.8572 140.657 20.8464 140.943 21.0479C141.27 21.2783 141.349 21.6571 141.016 21.9394Z" fill="#3A405A"/>
<path d="M168.06 22.0759C167.555 22.4154 166.651 21.3925 167.053 21.0485C167.542 20.8183 168.241 21.6168 168.06 22.0759Z" fill="#3A405A"/>
<path d="M177.539 21.9777C177.626 21.908 177.559 21.6817 177.389 21.4722C177.22 21.2627 177.013 21.1494 176.926 21.2191C176.84 21.2889 176.907 21.5152 177.076 21.7247C177.245 21.9342 177.453 22.0475 177.539 21.9777Z" fill="#3A405A"/>
<path d="M149.377 22.2179C149.51 22.0185 149.416 21.7218 149.165 21.5553C148.915 21.3887 148.605 21.4153 148.472 21.6147C148.339 21.8141 148.433 22.1108 148.683 22.2774C148.934 22.4439 149.244 22.4173 149.377 22.2179Z" fill="#3A405A"/>
<path d="M143.785 22.5428C143.924 22.1526 143.659 21.7019 143.194 21.5364C142.728 21.3708 142.238 21.553 142.099 21.9432C141.96 22.3335 142.225 22.7841 142.69 22.9497C143.155 23.1152 143.645 22.9331 143.785 22.5428Z" fill="#3A405A"/>
<path d="M166.099 22.8023C166.293 22.623 166.199 22.2051 165.888 21.8687C165.578 21.5324 165.168 21.4051 164.974 21.5844C164.779 21.7637 164.873 22.1816 165.184 22.5179C165.495 22.8542 165.904 22.9816 166.099 22.8023Z" fill="#3A405A"/>
<path d="M154.758 22.9177C154.241 23.1834 153.46 22.3821 153.823 21.8936C153.935 21.7675 154.06 21.7151 154.198 21.7348C154.641 21.7996 154.896 22.0537 154.965 22.4959C154.992 22.6751 154.902 22.8339 154.758 22.9177Z" fill="#3A405A"/>
<path d="M159.668 23.0777C159.863 22.8822 159.784 22.4874 159.491 22.1957C159.198 21.9041 158.802 21.8261 158.607 22.0216C158.412 22.217 158.492 22.6118 158.785 22.9035C159.078 23.1951 159.473 23.2731 159.668 23.0777Z" fill="#3A405A"/>
<path d="M164.24 23.7021C164.513 23.4497 164.399 22.8832 163.985 22.4369C163.571 21.9906 163.015 21.8334 162.742 22.0859C162.469 22.3384 162.583 22.9049 162.997 23.3512C163.41 23.7975 163.967 23.9546 164.24 23.7021Z" fill="#3A405A"/>
<path d="M169.759 23.0615C169.904 22.9354 169.828 22.6121 169.59 22.3394C169.352 22.0667 169.041 21.9478 168.897 22.0739C168.752 22.1999 168.828 22.5233 169.066 22.796C169.304 23.0687 169.614 23.1876 169.759 23.0615Z" fill="#3A405A"/>
<path d="M146.161 23.3241C146.29 23.0922 146.172 22.78 145.897 22.627C145.621 22.4739 145.293 22.5378 145.164 22.7698C145.035 23.0017 145.153 23.3138 145.429 23.4669C145.704 23.62 146.032 23.5561 146.161 23.3241Z" fill="#3A405A"/>
<path d="M157.302 24.1859C157.577 23.9072 157.483 23.3688 157.092 22.9834C156.701 22.598 156.161 22.5115 155.885 22.7902C155.61 23.0689 155.704 23.6073 156.096 23.9927C156.487 24.3781 157.027 24.4646 157.302 24.1859Z" fill="#3A405A"/>
<path d="M167.97 23.8292C168.145 23.677 168.064 23.2999 167.791 22.9869C167.518 22.6739 167.155 22.5434 166.98 22.6956C166.805 22.8477 166.885 23.2248 167.159 23.5379C167.432 23.8509 167.795 23.9813 167.97 23.8292Z" fill="#3A405A"/>
<path d="M161.474 22.9455C161.883 23.2265 162.33 23.8853 161.958 24.3718C161.47 24.8463 160.689 24.0675 160.521 23.6269C160.215 22.8169 160.884 22.5472 161.474 22.9455Z" fill="#3A405A"/>
<path d="M140.506 23.6966C140.565 23.2737 140.211 22.8753 139.716 22.8067C139.221 22.7381 138.772 23.0254 138.714 23.4483C138.655 23.8712 139.008 24.2696 139.503 24.3382C139.998 24.4068 140.447 24.1196 140.506 23.6966Z" fill="#3A405A"/>
<path d="M166.029 24.5924C166.242 24.4087 166.163 23.9677 165.851 23.6074C165.54 23.2471 165.115 23.104 164.902 23.2877C164.689 23.4714 164.768 23.9124 165.08 24.2727C165.391 24.633 165.816 24.7761 166.029 24.5924Z" fill="#3A405A"/>
<path d="M171.428 24.0095C171.533 23.925 171.484 23.6899 171.318 23.4845C171.152 23.2791 170.932 23.1811 170.828 23.2657C170.723 23.3502 170.772 23.5852 170.938 23.7906C171.104 23.9961 171.324 24.094 171.428 24.0095Z" fill="#3A405A"/>
<path d="M142.785 24.4264C142.885 24.1158 142.683 23.7723 142.332 23.6592C141.982 23.5462 141.616 23.7063 141.516 24.0169C141.415 24.3275 141.618 24.6709 141.968 24.784C142.319 24.8971 142.684 24.737 142.785 24.4264Z" fill="#3A405A"/>
<path d="M169.534 25.0634C169.095 24.8421 168.569 24.1869 168.935 23.6935C169.369 23.6955 169.701 23.9128 169.932 24.3453C170.105 24.6688 170.175 25.3714 169.534 25.0634Z" fill="#3A405A"/>
<path d="M154.473 24.8881C154.678 24.6722 154.615 24.28 154.333 24.0121C154.05 23.7441 153.655 23.7019 153.45 23.9178C153.245 24.1337 153.307 24.5259 153.59 24.7938C153.873 25.0618 154.268 25.104 154.473 24.8881Z" fill="#3A405A"/>
<path d="M163.994 25.4619C163.285 25.9008 162.176 24.6483 162.607 23.9425C163.214 23.3457 164.654 24.7279 163.994 25.4619Z" fill="#3A405A"/>
<path d="M159.321 25.0865C159.524 24.9009 159.47 24.5124 159.201 24.2188C158.932 23.9252 158.549 23.8377 158.346 24.0234C158.143 24.209 158.197 24.5975 158.467 24.8911C158.736 25.1847 159.119 25.2722 159.321 25.0865Z" fill="#3A405A"/>
<path d="M136.892 25.3148C137.247 25.28 137.51 25.0087 137.481 24.7088C137.452 24.4089 137.14 24.194 136.785 24.2288C136.43 24.2635 136.166 24.5348 136.196 24.8347C136.225 25.1346 136.537 25.3496 136.892 25.3148Z" fill="#3A405A"/>
<path d="M167.735 25.2256C167.849 25.1368 167.815 24.9045 167.659 24.7068C167.504 24.5091 167.287 24.4208 167.173 24.5096C167.06 24.5984 167.094 24.8307 167.249 25.0284C167.404 25.2261 167.622 25.3144 167.735 25.2256Z" fill="#3A405A"/>
<path d="M156.961 25.4844C157.21 26.0544 156.808 26.6743 156.148 26.4266C155.541 26.1988 154.86 25.2551 155.608 24.7837C156.19 24.5709 156.739 24.9855 156.961 25.4844Z" fill="#3A405A"/>
<path d="M171.686 26.0954C171.862 25.9634 171.795 25.5786 171.538 25.236C171.28 24.8933 170.929 24.7226 170.753 24.8546C170.577 24.9866 170.643 25.3713 170.901 25.714C171.158 26.0566 171.51 26.2274 171.686 26.0954Z" fill="#3A405A"/>
<path d="M165.964 26.5218C166.207 26.3282 166.144 25.8434 165.822 25.4391C165.5 25.0347 165.041 24.8639 164.798 25.0575C164.554 25.2511 164.618 25.7359 164.94 26.1403C165.261 26.5446 165.72 26.7155 165.964 26.5218Z" fill="#3A405A"/>
<path d="M139.507 25.8318C139.608 25.5219 139.406 25.1777 139.055 25.0631C138.704 24.9484 138.337 25.1067 138.235 25.4166C138.134 25.7265 138.336 26.0706 138.687 26.1853C139.039 26.2999 139.405 26.1417 139.507 25.8318Z" fill="#3A405A"/>
<path d="M161.338 26.0428C161.489 25.9161 161.457 25.6296 161.266 25.4028C161.076 25.1759 160.799 25.0947 160.648 25.2214C160.497 25.348 160.529 25.6346 160.719 25.8614C160.91 26.0882 161.187 26.1694 161.338 26.0428Z" fill="#3A405A"/>
<path d="M169.553 25.769C169.729 25.9336 169.782 26.1264 169.711 26.3472C169.365 26.5372 168.825 25.8344 169.089 25.5776C169.106 25.5608 169.129 25.5523 169.153 25.553C169.316 25.5572 169.449 25.629 169.553 25.769Z" fill="#3A405A"/>
<path d="M162.962 25.9666C163.611 26.1772 163.942 26.6065 163.957 27.2553C163.622 28.1255 162.607 27.2255 162.455 26.7217C162.33 26.3113 162.434 25.9517 162.962 25.9666Z" fill="#3A405A"/>
<path d="M158.553 27.2058C157.979 27.1001 157.478 26.4916 157.94 25.9767C158.449 25.9195 158.782 26.0956 158.939 26.5055C159.07 26.8457 159.002 27.1765 158.553 27.2058Z" fill="#3A405A"/>
<path d="M173.337 26.3703C173.517 26.5744 173.59 26.8096 173.556 27.0753C173.493 27.1913 173.374 27.2408 173.244 27.1791C172.83 26.9818 172.594 26.6645 172.534 26.228C172.521 26.1365 172.55 26.0639 172.619 26.011C172.845 25.8416 173.227 26.1941 173.337 26.3703Z" fill="#3A405A"/>
<path d="M154.047 27.1735C154.266 26.9816 154.247 26.6025 154.005 26.327C153.762 26.0514 153.389 25.9837 153.17 26.1757C152.951 26.3676 152.97 26.7466 153.213 27.0222C153.455 27.2978 153.829 27.3655 154.047 27.1735Z" fill="#3A405A"/>
<path d="M167.82 27.4541C167.988 27.3284 167.945 26.9884 167.724 26.6948C167.504 26.4012 167.189 26.2651 167.021 26.3908C166.854 26.5165 166.897 26.8565 167.117 27.1501C167.338 27.4437 167.653 27.5798 167.82 27.4541Z" fill="#3A405A"/>
<path d="M136.182 27.3963C136.503 27.2989 136.695 26.9958 136.61 26.7193C136.526 26.4428 136.198 26.2975 135.877 26.3949C135.556 26.4923 135.364 26.7954 135.448 27.0719C135.533 27.3485 135.861 27.4937 136.182 27.3963Z" fill="#3A405A"/>
<path d="M171.594 27.5714C171.716 27.4878 171.684 27.2281 171.522 26.9915C171.36 26.7549 171.129 26.6309 171.007 26.7146C170.884 26.7982 170.917 27.0578 171.079 27.2944C171.241 27.5311 171.472 27.6551 171.594 27.5714Z" fill="#3A405A"/>
<path d="M156.327 28.5926C156.641 28.3431 156.63 27.8069 156.302 27.3949C155.974 26.9829 155.453 26.8512 155.139 27.1007C154.825 27.3502 154.837 27.8864 155.165 28.2984C155.493 28.7104 156.013 28.8421 156.327 28.5926Z" fill="#3A405A"/>
<path d="M165.032 26.9992C165.693 27.1906 166.057 27.6246 166.123 28.302C166.149 28.5706 166.015 28.756 165.721 28.8587C165.069 28.6913 164.692 28.282 164.589 27.6313C164.533 27.2826 164.665 27.0152 165.032 26.9992Z" fill="#3A405A"/>
<path d="M175.076 28.2002C175.179 28.1349 175.148 27.9045 175.008 27.6856C174.867 27.4667 174.671 27.3421 174.569 27.4074C174.467 27.4727 174.497 27.7031 174.638 27.922C174.778 28.1409 174.974 28.2654 175.076 28.2002Z" fill="#3A405A"/>
<path d="M133.782 28.4977C134.07 28.4092 134.245 28.1486 134.173 27.9156C134.101 27.6826 133.81 27.5654 133.522 27.6539C133.234 27.7424 133.059 28.003 133.13 28.236C133.202 28.469 133.494 28.5861 133.782 28.4977Z" fill="#3A405A"/>
<path d="M173.477 28.836C173.609 28.7503 173.574 28.4609 173.399 28.1897C173.223 27.9185 172.973 27.7681 172.841 27.8538C172.708 27.9395 172.743 28.2288 172.919 28.5001C173.094 28.7713 173.344 28.9217 173.477 28.836Z" fill="#3A405A"/>
<path d="M167.916 29.8677C168.17 29.6947 168.134 29.2005 167.836 28.7637C167.538 28.327 167.09 28.1132 166.836 28.2862C166.583 28.4591 166.618 28.9534 166.917 29.3901C167.215 29.8268 167.662 30.0407 167.916 29.8677Z" fill="#3A405A"/>
<path d="M158.311 29.4148C158.53 29.2549 158.531 28.8816 158.311 28.581C158.092 28.2804 157.736 28.1664 157.516 28.3263C157.297 28.4862 157.297 28.8596 157.516 29.1601C157.735 29.4607 158.091 29.5747 158.311 29.4148Z" fill="#3A405A"/>
<path d="M163.29 29.4086C163.457 29.2923 163.447 28.9896 163.267 28.7326C163.088 28.4757 162.807 28.3617 162.64 28.478C162.473 28.5944 162.483 28.897 162.662 29.154C162.842 29.411 163.123 29.525 163.29 29.4086Z" fill="#3A405A"/>
<path d="M153.523 29.6346C153.749 29.464 153.764 29.1024 153.556 28.8268C153.348 28.5512 152.996 28.466 152.77 28.6366C152.543 28.8071 152.528 29.1688 152.736 29.4444C152.944 29.72 153.296 29.8051 153.523 29.6346Z" fill="#3A405A"/>
<path d="M174.74 29.0653C175.163 29.2846 175.304 29.5945 175.165 29.995C174.75 29.8202 174.563 29.5472 174.602 29.1746C174.606 29.1363 174.62 29.1091 174.643 29.0931C174.67 29.0743 174.703 29.0653 174.74 29.0653Z" fill="#3A405A"/>
<path d="M164.92 29.1722C165.571 29.4223 165.905 29.903 165.919 30.6127C165.566 31.7261 164.193 30.3381 164.389 29.5176C164.45 29.2611 164.627 29.1462 164.92 29.1722Z" fill="#3A405A"/>
<path d="M155.724 30.899C156.024 30.6967 156.058 30.2228 155.8 29.8406C155.542 29.4585 155.09 29.3127 154.789 29.5151C154.489 29.7175 154.455 30.1914 154.713 30.5735C154.971 30.9557 155.423 31.1014 155.724 30.899Z" fill="#3A405A"/>
<path d="M168.177 32.0651C167.709 32.871 166.948 31.8851 166.752 31.3871C166.629 31.0745 166.61 30.7914 166.694 30.5365C167.141 29.9169 167.808 30.6904 168.02 31.1081C168.169 31.4035 168.221 31.7223 168.177 32.0651Z" fill="#3A405A"/>
<path d="M176.96 31.3017C177.055 31.2489 177.032 31.029 176.91 30.8103C176.787 30.5916 176.612 30.4571 176.517 30.5098C176.423 30.5625 176.446 30.7825 176.568 31.0012C176.69 31.2199 176.866 31.3544 176.96 31.3017Z" fill="#3A405A"/>
<path d="M157.722 31.6803C157.947 31.5408 157.978 31.1854 157.791 30.8863C157.605 30.5873 157.272 30.458 157.048 30.5975C156.823 30.7369 156.793 31.0924 156.979 31.3914C157.165 31.6904 157.498 31.8198 157.722 31.6803Z" fill="#3A405A"/>
<path d="M152.946 32.4493C153.189 32.3197 153.262 31.98 153.108 31.6905C152.954 31.401 152.631 31.2714 152.387 31.4009C152.144 31.5305 152.071 31.8702 152.225 32.1597C152.379 32.4492 152.702 32.5788 152.946 32.4493Z" fill="#3A405A"/>
<path d="M169.841 33.3383C170.06 33.2121 170.052 32.7888 169.823 32.3929C169.594 31.9969 169.231 31.7782 169.012 31.9044C168.793 32.0305 168.802 32.4538 169.03 32.8498C169.259 33.2458 169.622 33.4645 169.841 33.3383Z" fill="#3A405A"/>
<path d="M165.385 33.0153C165.565 32.9081 165.572 32.589 165.401 32.3025C165.23 32.016 164.946 31.8707 164.766 31.9779C164.586 32.0851 164.578 32.4042 164.749 32.6907C164.92 32.9772 165.205 33.1225 165.385 33.0153Z" fill="#3A405A"/>
<path d="M155.071 33.7158C155.396 33.5514 155.492 33.0897 155.286 32.6846C155.081 32.2795 154.651 32.0843 154.326 32.2488C154.002 32.4132 153.906 32.8748 154.112 33.28C154.317 33.6851 154.747 33.8802 155.071 33.7158Z" fill="#3A405A"/>
<path d="M167.096 32.8907C167.656 33.1523 167.952 33.5817 167.985 34.1781C167.993 34.3376 167.927 34.4794 167.786 34.6033C166.828 34.9628 165.92 32.7908 167.096 32.8907Z" fill="#3A405A"/>
<path d="M157.039 34.356C157.268 34.2407 157.33 33.9049 157.179 33.6058C157.028 33.3068 156.72 33.1579 156.492 33.2732C156.263 33.3885 156.201 33.7244 156.352 34.0234C156.503 34.3224 156.811 34.4714 157.039 34.356Z" fill="#3A405A"/>
<path d="M169.15 34.2314C169.335 34.2898 169.504 34.4074 169.657 34.5834C170.054 35.0437 170.151 35.526 169.949 36.0308C169.572 36.2108 169.267 35.9464 169.055 35.6708C168.81 35.3572 168.372 34.1902 169.15 34.2314Z" fill="#3A405A"/>
<path d="M154.303 36.742C154.621 36.6385 154.776 36.2346 154.648 35.8399C154.519 35.4452 154.157 35.2091 153.838 35.3126C153.519 35.4161 153.364 35.82 153.493 36.2147C153.621 36.6094 153.984 36.8455 154.303 36.742Z" fill="#3A405A"/>
<path d="M167.504 36.8722C167.714 36.766 167.737 36.3912 167.556 36.0351C167.375 35.679 167.059 35.4765 166.849 35.5827C166.64 35.6889 166.616 36.0637 166.797 36.4198C166.978 36.7759 167.295 36.9784 167.504 36.8722Z" fill="#3A405A"/>
<path d="M169.355 36.866C169.835 37.1837 170.149 37.8315 170.024 38.4211C169.923 38.7032 169.681 38.7381 169.451 38.5737C168.9 38.1787 168.705 37.6302 168.867 36.9283C169.023 36.7989 169.186 36.7784 169.355 36.866Z" fill="#3A405A"/>
<path d="M153.765 38.6691C153.861 38.7906 153.918 38.9266 153.934 39.0783C153.987 39.7986 153.11 39.9541 152.924 39.2502C152.793 38.7534 153.305 38.1402 153.765 38.6691Z" fill="#3A405A"/>
<path d="M170.878 38.5701C171.114 38.5574 171.322 38.651 171.5 38.8495C171.919 39.3165 172.017 39.8063 171.796 40.3189C171.033 40.4291 170.302 39.0553 170.878 38.5701Z" fill="#3A405A"/>
<path d="M169.533 40.8621C169.729 40.778 169.76 40.4139 169.602 40.0489C169.445 39.6839 169.159 39.4562 168.963 39.5403C168.768 39.6244 168.737 39.9885 168.894 40.3535C169.052 40.7185 169.338 40.9462 169.533 40.8621Z" fill="#3A405A"/>
<path d="M170.88 41.2816C171.294 41.5927 171.5 42.0099 171.498 42.5333C171.497 42.6795 171.449 42.7943 171.351 42.8777C171.24 42.9158 171.158 42.9178 171.106 42.8824C170.627 42.5573 170.416 42.1174 170.474 41.564C170.498 41.3323 170.629 41.1935 170.88 41.2816Z" fill="#3A405A"/>
<path d="M172.368 45.6968C171.84 45.3724 171.627 44.9009 171.729 44.2818C171.822 44.0567 172.054 44.1507 172.173 44.2984C172.425 44.6116 172.544 44.9705 172.53 45.375C172.526 45.4889 172.472 45.5962 172.368 45.6968Z" fill="#3A405A"/>
</g>
</g>
<defs>
<clipPath id="clip0_652_5198">
<rect width="176.956" height="47.4904" fill="white" transform="translate(0.739746 0.273438)"/>
</clipPath>
</defs>
</svg>
