<svg width="126" height="36" viewBox="0 0 126 36" fill="none" xmlns="http://www.w3.org/2000/svg">
<g id="&#216;&#180;&#216;&#185;&#216;&#167;&#216;&#177;" opacity="0.4" clip-path="url(#clip0_652_5244)">
<path id="&#216;&#167;&#217;&#132;&#217;&#133;&#216;&#170;&#216;&#172;&#217;&#135; (&#217;&#129;&#217;&#138;&#217;&#131;&#216;&#170;&#217;&#136;&#216;&#177;)" d="M111.101 10.396L109.846 11.1029C109.834 11.1097 109.834 11.117 109.845 11.1248C109.852 11.13 109.863 11.1295 109.877 11.1237C109.837 11.1456 109.796 11.1456 109.757 11.1685C109.064 11.5711 108.386 11.9961 107.722 12.443C107.56 12.5517 107.45 12.6953 107.39 12.8747C107.376 12.9169 107.398 12.9621 107.44 12.9762C107.444 12.9772 107.448 12.9783 107.452 12.9793C107.522 12.9923 107.598 13.0084 107.672 13.0105C109.248 13.0474 110.989 13.1135 112.892 13.2087C113.03 13.2155 113.127 13.2233 113.181 13.2316C113.094 13.4927 112.854 13.7097 112.65 13.8834C112.64 13.8917 112.641 13.8995 112.651 13.9073C112.659 13.9131 112.666 13.9125 112.672 13.9068C112.646 13.9308 112.618 13.9209 112.582 13.9458C111.579 14.6398 110.588 14.6674 109.394 14.6481C109.265 14.6455 109.176 14.7064 109.126 14.8307C109.119 14.8463 109.119 14.8635 109.125 14.8796C109.237 15.2198 109.708 15.6578 109.946 15.8664C109.995 15.9263 110.06 15.9876 110.14 16.0506C110.342 16.2113 111.201 16.8777 111.396 16.8418C111.394 16.8715 111.399 16.8897 111.414 16.897C113.219 17.8307 115.19 18.3301 117.234 18.5346C117.253 18.5361 117.262 18.547 117.262 18.5663V19.8377C117.262 19.8585 117.246 19.8757 117.225 19.8767C115.1 19.9495 112.981 20.0707 110.867 20.2408C110.193 20.2949 109.48 20.3412 108.83 20.5384C108.793 20.5493 108.772 20.5883 108.784 20.6258C108.785 20.6299 108.787 20.6341 108.789 20.6377C108.794 20.6476 108.818 20.6591 108.861 20.671C109.067 20.7283 109.274 20.7865 109.489 20.8125C111.932 21.1085 114.556 21.2235 117.084 21.3156C117.101 21.3166 117.114 21.3307 117.113 21.3478C117.113 21.3494 117.113 21.351 117.113 21.3525L116.833 22.7753C116.83 22.7904 116.821 22.7982 116.805 22.7987C114.897 22.8637 112.991 22.9683 111.088 23.1134C110.435 23.1628 109.784 23.2367 109.136 23.334C108.97 23.3589 108.81 23.4032 108.658 23.4666C108.636 23.476 108.626 23.5015 108.635 23.5233C108.64 23.5342 108.649 23.5426 108.66 23.5467C108.823 23.6076 108.996 23.6518 109.177 23.6804C109.766 23.7725 110.357 23.8412 110.952 23.8869C112.73 24.0238 114.536 24.1299 116.37 24.2053C116.38 24.2058 116.388 24.2142 116.388 24.2246C116.388 24.2266 116.388 24.2292 116.387 24.2313L115.775 25.6858C115.767 25.7051 115.748 25.7181 115.728 25.7191C113.75 25.8075 111.681 25.9069 109.777 26.1925C109.653 26.2112 109.524 26.2643 109.4 26.3038C109.373 26.3121 109.357 26.3418 109.365 26.3694C109.37 26.3855 109.383 26.398 109.398 26.4037C109.645 26.4916 109.908 26.5525 110.186 26.5852C111.791 26.7756 113.417 26.8708 115.028 26.9483C115.044 26.9494 115.057 26.9634 115.055 26.9796C115.055 26.9842 115.054 26.9894 115.051 26.9936C114.694 27.5513 114.309 28.0892 113.895 28.6073C113.862 28.6484 113.822 28.6728 113.765 28.678C112.771 28.7696 111.766 28.8325 110.787 29.0401C110.682 29.0625 110.591 29.0958 110.513 29.14C110.487 29.1545 110.478 29.1878 110.492 29.2144C110.499 29.2263 110.509 29.2352 110.522 29.2393C111.277 29.4942 112.151 29.5457 112.941 29.6102C112.95 29.6108 112.956 29.618 112.956 29.6264C112.956 29.6305 112.954 29.6342 112.951 29.6373C112.069 30.4967 111.096 31.2369 110.032 31.8586C110.016 31.8684 110.001 31.8664 109.987 31.8534L108.865 30.7864C108.682 30.5612 108.483 30.3635 108.268 30.1929C108.264 30.17 108.257 30.1533 108.247 30.1424C107.698 29.5468 107.192 28.9168 106.729 28.2515C106.72 28.239 106.708 28.2265 106.692 28.2145C106.672 28.1989 106.66 28.1854 106.656 28.174C106.439 27.8161 106.205 27.479 105.956 27.1627L104.777 25.4835C104.786 25.4845 104.791 25.4762 104.791 25.459C104.791 25.4512 104.789 25.4429 104.783 25.4346C104.504 25.0116 104.227 24.6048 103.953 24.2131C103.758 23.9551 103.581 23.7585 103.423 23.6237C103.118 23.3647 102.826 23.424 102.431 23.5493C101.869 23.7278 101.295 23.8464 100.707 23.9041C100.575 23.9171 100.461 23.9109 100.364 23.8854C100.325 23.8755 100.302 23.836 100.312 23.797C100.317 23.7756 100.332 23.7579 100.352 23.7486C100.631 23.6185 100.901 23.4859 101.162 23.3501C102.728 22.5344 104.051 21.1106 104.258 19.293C104.379 18.2297 104.283 17.1591 103.968 16.0808C103.962 16.0615 103.956 16.061 103.949 16.0802C103.676 16.8304 103.469 17.4192 102.885 18.0008C102.872 18.0133 102.852 18.0138 102.839 18.0014C102.831 17.9935 102.828 17.9826 102.83 17.9717C103.061 16.7971 102.868 15.5444 102.172 14.5612C102.163 14.5488 102.145 14.5456 102.133 14.5545C102.127 14.5586 102.123 14.5644 102.122 14.5711L101.759 16.2118C101.756 16.2249 101.749 16.2342 101.737 16.2389C100.959 16.5515 100.44 17.1066 100.182 17.9036C100.172 17.9327 100.188 17.9639 100.217 17.9733C100.221 17.9748 100.225 17.9753 100.23 17.9759C100.571 18.0034 100.875 17.9114 101.142 17.7002C101.152 17.6918 101.167 17.6934 101.175 17.7038C101.181 17.71 101.182 17.7184 101.18 17.7256C100.652 19.6613 99.9404 21.5278 98.951 23.2715C98.8157 23.5098 98.6342 23.786 98.4069 24.1002C97.9012 24.6912 97.4736 25.151 96.7427 25.472C96.4795 25.587 96.0425 25.7217 95.8168 25.5303C95.295 25.0876 94.8107 24.5929 94.3638 24.0461C94.6468 23.9743 94.8908 23.8417 95.0963 23.6487C95.2721 23.4838 95.605 23.1108 95.5041 22.8533C95.4974 22.8361 95.4781 22.8278 95.4609 22.8341C95.4573 22.8356 95.4537 22.8377 95.4511 22.8403C95.0292 23.1992 94.2723 23.8984 93.7172 23.3693C93.5679 23.2273 93.5549 23.0702 93.6792 22.898L94.7862 21.1798L95.5967 20.066L96.9544 18.3925C96.957 18.3889 96.957 18.3858 96.9539 18.3821C96.9451 18.3733 96.9456 18.3707 96.9565 18.3733L97.9886 17.2065L99.518 15.6053L100.943 14.2616L102.518 12.8773C103.155 12.3285 103.815 11.8005 104.497 11.2933L105.931 10.2191L108.704 8.26728C108.713 8.26104 108.724 8.25688 108.736 8.25532C108.769 8.25168 108.791 8.23451 108.8 8.20278C109.073 8.0514 109.337 7.87401 109.593 7.67113C112.706 5.59187 115.95 3.69885 119.333 2.09089C120.614 1.48174 121.922 0.939162 123.258 0.463175C123.517 0.370578 124.037 0.12192 124.179 0.490225C124.283 0.75709 124.059 0.889222 123.807 1.00263C119.798 2.80149 116 5.07063 112.313 7.45108C111.666 7.86881 110.855 8.23711 110.294 8.55288C108.514 9.55479 106.789 10.6441 105.12 11.8203C104.964 11.9306 105.081 12.161 105.265 12.0408C111.377 8.05972 118.229 5.47014 125.25 3.50585C125.345 3.47932 125.459 3.47672 125.594 3.49857C125.61 3.50117 125.624 3.50949 125.635 3.52146C125.735 3.63434 125.774 3.76439 125.752 3.91265C125.75 3.93242 125.741 3.94855 125.726 3.96155C125.625 4.04842 125.53 4.10877 125.44 4.14206C120.634 5.91752 115.723 7.94892 111.101 10.396Z" fill="#3A405A"/>
<path id="&#216;&#167;&#217;&#132;&#217;&#133;&#216;&#170;&#216;&#172;&#217;&#135; (&#217;&#129;&#217;&#138;&#217;&#131;&#216;&#170;&#217;&#136;&#216;&#177;)_2" d="M97.1054 5.70493C97.0107 5.359 97.7639 5.25287 97.9627 5.25391C100.232 5.26536 102.5 5.31218 104.768 5.39489C105.694 5.4287 106.62 5.48488 107.544 5.56344C107.676 5.57488 107.799 5.59881 107.912 5.63574C107.93 5.64199 107.939 5.66123 107.933 5.67892C107.929 5.69037 107.919 5.69869 107.907 5.70077C107.576 5.75851 107.249 5.79753 106.927 5.81834C103.956 6.00717 100.964 6.05763 97.9887 6.07844C97.7374 6.08 97.1881 6.00561 97.1054 5.70493Z" fill="#3A405A"/>
<path id="&#216;&#167;&#217;&#132;&#217;&#133;&#216;&#170;&#216;&#172;&#217;&#135; (&#217;&#129;&#217;&#138;&#217;&#131;&#216;&#170;&#217;&#136;&#216;&#177;)_3" d="M23.5285 25.013C23.0281 24.9699 22.5376 25.0323 22.0517 25.1493C22.0376 25.153 22.0231 25.1446 22.0194 25.1301C22.0179 25.1238 22.0184 25.1176 22.021 25.1124C24.0097 20.6938 26.0125 16.2767 27.9378 11.8274C28.6031 10.2897 29.244 8.73999 29.7486 7.14088C29.7538 7.12476 29.7705 7.11539 29.7871 7.11904C30.3729 7.25273 30.8203 7.28706 31.3935 7.11956C31.4242 7.11071 31.457 7.12736 31.4674 7.15753C31.7197 7.87697 31.9824 8.59225 32.2545 9.30389C34.162 14.2833 36.3277 19.1545 38.5203 24.0132C38.6878 24.3846 38.8584 24.7524 39.0327 25.1166C39.0374 25.1259 39.0332 25.1379 39.0239 25.142C39.0208 25.1436 39.0171 25.1441 39.0135 25.1441C38.3481 25.0822 37.6921 24.9985 37.0044 25C36.3989 25.0016 35.7653 25.076 35.1463 25.1509C35.1088 25.1556 35.0833 25.14 35.0703 25.1046C34.381 23.2506 33.6678 21.4059 32.9297 19.5701C32.9167 19.5374 32.8844 19.516 32.849 19.516C32.6155 19.516 32.3835 19.5098 32.153 19.4968C30.2766 19.3912 28.4049 19.4016 26.5379 19.528C26.5145 19.5296 26.4942 19.5441 26.4849 19.566C25.7243 21.3836 25.0002 23.235 24.4347 25.1259C24.4301 25.142 24.4139 25.1519 24.3973 25.1498C24.107 25.1067 23.837 25.0396 23.5285 25.013ZM27.4452 17.9242C29.0068 18.0381 30.5659 18.0329 32.1228 17.9091C32.1364 17.9081 32.1463 17.8961 32.1452 17.8826C32.1452 17.8805 32.1447 17.8784 32.1436 17.8763L29.7502 11.6089C29.746 11.5985 29.7341 11.5933 29.7237 11.5975C29.7185 11.5996 29.7148 11.6032 29.7127 11.6084L27.1133 17.8789C27.1076 17.8925 27.1138 17.9081 27.1273 17.9138C27.131 17.9154 27.1346 17.9159 27.1382 17.9159C27.2397 17.9138 27.3422 17.9169 27.4452 17.9242Z" fill="#3A405A"/>
<path id="&#216;&#167;&#217;&#132;&#217;&#133;&#216;&#170;&#216;&#172;&#217;&#135; (&#217;&#129;&#217;&#138;&#217;&#131;&#216;&#170;&#217;&#136;&#216;&#177;)_4" d="M61.7152 19.5283C61.544 19.5048 61.3193 19.5179 61.1934 19.51C59.2416 19.3878 57.3215 19.4268 55.3702 19.522C55.3468 19.5231 55.3265 19.5376 55.3172 19.5589C54.5571 21.3791 53.8512 23.2243 53.2681 25.1095C53.2624 25.1267 53.2509 25.1355 53.2327 25.135C53.1677 25.1345 53.1032 25.1272 53.0392 25.1132C52.314 24.9529 51.5977 24.967 50.8907 25.1553C50.8731 25.16 50.8554 25.1491 50.8507 25.1319C50.8486 25.1246 50.8497 25.1168 50.8528 25.1101C52.7109 21.0134 54.5462 16.9111 56.3591 12.8036C57.102 11.1202 57.9671 9.0737 58.5742 7.15155C58.5825 7.12606 58.6095 7.11149 58.6356 7.11929C59.1636 7.27848 59.6916 7.27952 60.2201 7.1219C60.2581 7.11045 60.2841 7.12346 60.2976 7.16091C61.4483 10.3794 62.74 13.5521 64.1034 16.6859C65.3316 19.508 66.5822 22.3197 67.8551 25.122C67.8629 25.1392 67.8572 25.1465 67.839 25.1449C67.1924 25.0835 66.5577 25.0013 65.8825 25.0003C65.2448 24.9998 64.5893 25.0726 63.9515 25.1553C63.9359 25.1574 63.9213 25.1485 63.9161 25.134C63.2222 23.267 62.5033 21.4098 61.7589 19.5621C61.7516 19.5439 61.7344 19.5309 61.7152 19.5283ZM55.9908 17.9089C56.5188 17.9364 57.0494 17.9619 57.5821 17.9853C58.7079 18.0342 59.8367 17.9994 60.9572 17.9099C60.9702 17.9089 60.9806 17.8974 60.9796 17.8844C60.9796 17.8823 60.9791 17.8797 60.978 17.8776L58.5929 11.6347C58.5747 11.5863 58.5554 11.5863 58.5362 11.6336L55.9555 17.8527C55.9409 17.8881 55.9523 17.9068 55.9908 17.9089Z" fill="#3A405A"/>
<path id="&#216;&#167;&#217;&#132;&#217;&#133;&#216;&#170;&#216;&#172;&#217;&#135; (&#217;&#129;&#217;&#138;&#217;&#131;&#216;&#170;&#217;&#136;&#216;&#177;)_5" d="M14.3003 24.9119L20.0631 28.4883C20.073 28.4946 20.0761 28.5076 20.0699 28.518C20.0678 28.5216 20.0642 28.5247 20.0605 28.5263C19.0732 28.9784 18.129 29.5069 17.2275 30.1109C17.215 30.1192 17.203 30.1187 17.1911 30.1098C15.2434 28.5872 13.2932 27.0609 11.3409 25.5315C11.3065 25.5044 11.2727 25.4847 11.2259 25.4873C8.04744 25.6626 5.0006 24.965 2.88545 22.5039C1.05173 20.3711 0.506038 17.7321 0.869141 14.9895C0.99347 14.0506 1.2156 13.1938 1.53604 12.4192C2.84488 9.25533 5.78455 7.57767 9.0712 7.22758C13.9283 6.70997 19.0336 8.84645 19.9299 14.1583C20.7004 18.7241 18.8214 23.1718 14.305 24.8656C14.2915 24.8708 14.2847 24.8859 14.2899 24.8989C14.292 24.9046 14.2956 24.9093 14.3003 24.9119ZM10.2859 24.1701C12.3823 24.2185 14.3039 23.1443 15.3615 21.3282C16.0086 20.2171 16.3364 18.9161 16.4451 17.6426C16.6069 15.7433 16.5866 14.0261 15.9166 12.273C15.1644 10.3046 13.6474 8.90575 11.5172 8.57751C8.91098 8.17643 6.53312 9.3162 5.34654 11.6821C4.51889 13.3332 4.26191 15.3121 4.33162 17.1583C4.46583 20.7305 6.40932 24.0812 10.2859 24.1701Z" fill="#3A405A"/>
<path id="&#216;&#167;&#217;&#132;&#217;&#133;&#216;&#170;&#216;&#172;&#217;&#135; (&#217;&#129;&#217;&#138;&#217;&#131;&#216;&#170;&#217;&#136;&#216;&#177;)_6" d="M109.593 7.67161C109.337 7.87449 109.073 8.05188 108.799 8.20326C104.062 8.37285 99.3275 8.47585 94.5947 8.51278C94.2264 8.51538 93.1106 8.39886 93.0216 7.95929C92.9196 7.45573 94.1499 7.33244 94.4641 7.334C99.1808 7.35325 103.896 7.44792 108.611 7.61803C108.747 7.62323 109.075 7.64144 109.593 7.67161Z" fill="#3A405A"/>
<path id="&#216;&#167;&#217;&#132;&#217;&#133;&#216;&#170;&#216;&#172;&#217;&#135; (&#217;&#129;&#217;&#138;&#217;&#131;&#216;&#170;&#217;&#136;&#216;&#177;)_7" d="M43.3626 17.3669C43.3189 14.6259 43.3912 11.8855 43.2861 9.14402C43.2856 9.12321 43.2746 9.11281 43.2538 9.11281C41.494 9.09512 39.7362 9.15702 37.9816 9.29852C37.9582 9.3006 37.9493 9.2902 37.9556 9.26679C38.1241 8.65034 38.1262 8.03286 37.9613 7.41434C37.9556 7.39353 37.968 7.3722 37.9888 7.36648C37.993 7.36544 37.9972 7.36492 38.0019 7.36544C38.2557 7.38573 38.4955 7.40029 38.7208 7.40914C43.0712 7.57976 47.4207 7.56936 51.7701 7.37792C51.7904 7.37688 51.7987 7.38625 51.7951 7.40601C51.6713 8.08592 51.6317 8.59312 51.7961 9.26158C51.8013 9.28291 51.793 9.2928 51.7711 9.29072C50.082 9.1539 48.3903 9.09616 46.696 9.11645C46.657 9.11697 46.6367 9.13674 46.6357 9.17575C46.6185 9.80624 46.6092 10.4492 46.6071 11.1047C46.5951 14.7841 46.593 18.4635 46.6008 22.1429C46.6034 23.138 46.6586 24.1165 46.7673 25.0794C46.7725 25.1268 46.7517 25.1471 46.7049 25.1408C46.1306 25.068 45.5594 25.0238 44.9913 25.0077C44.3827 24.991 43.7512 25.0748 43.1316 25.146C43.1134 25.1481 43.1045 25.1398 43.1056 25.1216C43.2642 22.5315 43.4037 19.9643 43.3626 17.3669Z" fill="#3A405A"/>
<path id="&#216;&#167;&#217;&#132;&#217;&#133;&#216;&#170;&#216;&#172;&#217;&#135; (&#217;&#129;&#217;&#138;&#217;&#131;&#216;&#170;&#217;&#136;&#216;&#177;)_8" d="M79.8104 7.61216C82.1872 8.25513 83.2775 10.6543 82.6164 12.9364C82.0545 14.8747 80.2307 15.9942 78.346 16.3256C78.3205 16.3303 78.3153 16.3427 78.3299 16.3641C80.3696 19.3454 82.4546 22.2772 84.7128 25.0889C84.7237 25.1025 84.7211 25.1222 84.7081 25.1326C84.7013 25.1378 84.693 25.1404 84.6847 25.1394C83.2661 24.9683 81.7809 24.9136 80.3758 25.1462C80.3587 25.1493 80.341 25.1425 80.3295 25.1285C80.2843 25.0739 80.238 25.0078 80.1912 24.9303C78.514 22.1482 76.595 19.4052 74.6791 16.7287C74.6702 16.7163 74.6557 16.7085 74.6395 16.7085L74.0829 16.7022C74.0678 16.7022 74.06 16.71 74.06 16.7251C74.0574 18.3252 74.0345 19.9316 74.0725 21.5313C74.1006 22.7272 74.1292 23.92 74.1578 25.1092C74.1584 25.1306 74.1412 25.1488 74.1193 25.1493C74.1167 25.1493 74.1147 25.1493 74.1121 25.1488C72.9634 24.9558 71.8143 24.9547 70.6652 25.1467C70.6454 25.1498 70.6267 25.1363 70.6236 25.1165C70.623 25.1139 70.623 25.1118 70.623 25.1092C70.7037 23.2152 70.7947 21.3216 70.8233 19.4343C70.8847 15.4329 70.9362 11.406 70.6699 7.41032C70.6688 7.39003 70.6839 7.37234 70.7047 7.3713C70.7068 7.3713 70.7089 7.3713 70.7104 7.3713C72.8308 7.5851 74.9496 7.46078 77.0731 7.37546C77.9756 7.33905 78.9338 7.37494 79.8104 7.61216ZM74.0663 15.4719C74.8996 15.5463 75.886 15.6295 76.6772 15.4776C78.8891 15.0532 79.6647 12.9604 79.2928 10.9311C79.1991 10.4197 78.9947 9.99417 78.6795 9.65396C77.5054 8.3857 75.6316 8.61771 74.0855 8.78262C74.0678 8.7847 74.059 8.79458 74.059 8.81227V15.3585C74.059 15.3694 74.0569 15.3804 74.0522 15.3903C74.0424 15.4137 74.0403 15.4355 74.047 15.4563C74.0496 15.4652 74.0574 15.4714 74.0663 15.4719Z" fill="#3A405A"/>
<path id="&#216;&#167;&#217;&#132;&#217;&#133;&#216;&#170;&#216;&#172;&#217;&#135; (&#217;&#129;&#217;&#138;&#217;&#131;&#216;&#170;&#217;&#136;&#216;&#177;)_9" d="M105.931 10.2185L104.497 11.2927C100.437 11.3941 96.3816 11.4534 92.3313 11.4706C91.7893 11.4727 91.0261 11.3858 90.6193 11.0628C90.3748 10.8682 90.34 10.6039 90.6136 10.4078C91.1156 10.0484 91.8309 9.99738 92.4354 9.99529C96.9315 9.98125 101.438 10.0978 105.931 10.2185Z" fill="#3A405A"/>
<path id="&#216;&#167;&#217;&#132;&#217;&#133;&#216;&#170;&#216;&#172;&#217;&#135; (&#217;&#129;&#217;&#138;&#217;&#131;&#216;&#170;&#217;&#136;&#216;&#177;)_10" d="M111.101 10.3965C112.178 10.4589 113.246 10.4964 114.296 10.6347C114.403 10.6488 114.499 10.6712 114.583 10.7029C114.604 10.7107 114.615 10.7341 114.607 10.7549C114.602 10.7674 114.591 10.7773 114.578 10.7804C114.413 10.8184 114.259 10.8444 114.114 10.8589C112.703 11.0025 111.292 11.0592 109.877 11.1243C109.863 11.13 109.852 11.1305 109.845 11.1253C109.834 11.1175 109.834 11.1102 109.845 11.1034L111.101 10.3965Z" fill="#3A405A"/>
<path id="&#216;&#167;&#217;&#132;&#217;&#133;&#216;&#170;&#216;&#172;&#217;&#135; (&#217;&#129;&#217;&#138;&#217;&#131;&#216;&#170;&#217;&#136;&#216;&#177;)_11" d="M102.517 12.8773L100.943 14.2615C97.2742 14.3422 93.9657 14.3869 91.0177 14.3958C90.5089 14.3973 89.1231 14.2543 88.8947 13.68C88.7345 13.2752 89.338 13.0032 89.6537 12.9116C90.0657 12.7925 90.4871 12.7306 90.9173 12.7264C91.8859 12.7176 92.8545 12.7191 93.8237 12.7301C96.7191 12.7634 99.6167 12.8123 102.517 12.8773Z" fill="#3A405A"/>
<path id="&#216;&#167;&#217;&#132;&#217;&#133;&#216;&#170;&#216;&#172;&#217;&#135; (&#217;&#129;&#217;&#138;&#217;&#131;&#216;&#170;&#217;&#136;&#216;&#177;)_12" d="M113.181 13.2324C114.149 13.2709 115.313 13.325 116.13 13.5061C116.156 13.5118 116.172 13.5378 116.166 13.5643C116.162 13.5825 116.148 13.5966 116.13 13.6007C115.818 13.6725 115.506 13.7209 115.195 13.7459C114.353 13.8135 113.513 13.8676 112.672 13.9076C112.665 13.9134 112.659 13.9139 112.651 13.9082C112.64 13.9004 112.64 13.8926 112.65 13.8842C112.854 13.7105 113.093 13.4936 113.181 13.2324Z" fill="#3A405A"/>
<path id="&#216;&#167;&#217;&#132;&#217;&#133;&#216;&#170;&#216;&#172;&#217;&#135; (&#217;&#129;&#217;&#138;&#217;&#131;&#216;&#170;&#217;&#136;&#216;&#177;)_13" d="M99.518 15.6046L97.9886 17.2058C97.8227 17.199 97.5636 17.199 97.2114 17.2047C94.9126 17.2438 92.6144 17.2656 90.3156 17.2698C89.7059 17.2708 88.537 17.1637 88.1261 16.6549C87.7692 16.2138 88.3586 15.8741 88.6936 15.7555C89.1483 15.5952 89.6185 15.511 90.1044 15.5032C90.7848 15.4917 91.4652 15.4891 92.1462 15.4959C94.5969 15.5198 97.0543 15.5562 99.518 15.6046Z" fill="#3A405A"/>
<path id="&#216;&#167;&#217;&#132;&#217;&#133;&#216;&#170;&#216;&#172;&#217;&#135; (&#217;&#129;&#217;&#138;&#217;&#131;&#216;&#170;&#217;&#136;&#216;&#177;)_14" d="M109.945 15.8672C111.774 15.953 113.598 16.0149 115.425 16.1403C115.895 16.1725 116.363 16.2267 116.828 16.3026C116.897 16.314 116.948 16.3312 116.983 16.3536C117.008 16.3692 117.014 16.4009 116.999 16.4254C116.991 16.4379 116.978 16.4462 116.964 16.4488C116.476 16.5336 115.993 16.5918 115.516 16.6246C114.144 16.7193 112.771 16.7921 111.396 16.8426C111.201 16.8785 110.342 16.2121 110.14 16.0513C110.06 15.9889 109.995 15.9275 109.945 15.8672Z" fill="#3A405A"/>
<path id="&#216;&#167;&#217;&#132;&#217;&#133;&#216;&#170;&#216;&#172;&#217;&#135; (&#217;&#129;&#217;&#138;&#217;&#131;&#216;&#170;&#217;&#136;&#216;&#177;)_15" d="M96.9567 18.3745C96.9458 18.3719 96.9452 18.3745 96.9541 18.3833C96.9572 18.3869 96.9572 18.3901 96.9546 18.3937L95.5969 20.0672C93.7319 20.0963 91.8805 20.1109 90.0427 20.1109C89.5292 20.1104 89.0277 20.037 88.5377 19.8898C88.0591 19.7457 87.31 19.2838 88.0378 18.7594C88.4581 18.4556 89.304 18.3126 89.7732 18.3084C91.6605 18.2912 94.055 18.3131 96.9567 18.3745Z" fill="#3A405A"/>
<path id="&#216;&#167;&#217;&#132;&#217;&#133;&#216;&#170;&#216;&#172;&#217;&#135; (&#217;&#129;&#217;&#138;&#217;&#131;&#216;&#170;&#217;&#136;&#216;&#177;)_16" d="M94.786 21.1796L93.679 22.8978C92.559 22.9056 91.4681 22.9113 90.4064 22.9145C89.8482 22.916 88.2496 22.8052 88.0306 22.1305C87.9812 21.9786 88.0239 21.8397 88.1596 21.7133C88.6965 21.2134 89.7244 21.1421 90.4241 21.1411C91.8692 21.138 93.3232 21.151 94.786 21.1796Z" fill="#3A405A"/>
<path id="&#216;&#167;&#217;&#132;&#217;&#133;&#216;&#170;&#216;&#172;&#217;&#135; (&#217;&#129;&#217;&#138;&#217;&#131;&#216;&#170;&#217;&#136;&#216;&#177;)_17" d="M94.3636 24.0465C94.8105 24.5932 95.2948 25.0879 95.8165 25.5306C96.0423 25.7221 96.4793 25.5873 96.7425 25.4724C97.4734 25.1514 97.901 24.6915 98.4066 24.1006L103.953 24.2135C104.227 24.6052 104.503 25.012 104.783 25.4349C104.789 25.4432 104.791 25.4515 104.791 25.4594C104.791 25.4765 104.786 25.4848 104.777 25.4838C101.022 25.58 97.2674 25.6477 93.5115 25.6867C92.7957 25.6945 92.081 25.6851 91.3657 25.7054C90.7732 25.7221 89.2224 25.6378 88.9093 25.025C88.5441 24.3113 90.331 24.0527 90.7024 24.035C91.2684 24.0085 92.4888 24.0121 94.3636 24.0465Z" fill="#3A405A"/>
<path id="&#216;&#167;&#217;&#132;&#217;&#133;&#216;&#170;&#216;&#172;&#217;&#135; (&#217;&#129;&#217;&#138;&#217;&#131;&#216;&#170;&#217;&#136;&#216;&#177;)_18" d="M105.956 27.1621C106.205 27.4783 106.438 27.8154 106.656 28.1733C102.445 28.2935 98.2503 28.3757 94.0705 28.4199C93.4775 28.4261 92.8844 28.4282 92.2919 28.4256C91.7858 28.4241 91.3233 28.3403 90.9035 28.1754C90.5799 28.048 90.1788 27.6895 90.5997 27.3649C91.0668 27.0039 91.8029 26.943 92.3699 26.941C96.8936 26.9248 101.426 27.0403 105.956 27.1621Z" fill="#3A405A"/>
<path id="&#216;&#167;&#217;&#132;&#217;&#133;&#216;&#170;&#216;&#172;&#217;&#135; (&#217;&#129;&#217;&#138;&#217;&#131;&#216;&#170;&#217;&#136;&#216;&#177;)_19" d="M21.0959 34.0298C20.8285 33.9752 20.6038 33.9663 20.3353 34.0272C20.326 34.0298 20.3161 34.0235 20.314 34.0137C20.313 34.01 20.3135 34.0058 20.3151 34.0022C20.9726 32.5534 21.6213 31.0989 22.2617 29.6377C22.4911 29.1149 22.7018 28.5754 22.8937 28.0204C22.8963 28.0126 22.9052 28.0079 22.913 28.0105C23.0872 28.063 23.2625 28.0641 23.4384 28.0141C23.455 28.0094 23.4659 28.0152 23.4717 28.0313C24.1921 30.0565 25.0874 32.0452 25.9827 33.9939C25.9894 34.009 25.9832 34.0261 25.9681 34.0334C25.9624 34.036 25.9562 34.0365 25.9504 34.0355C25.5442 33.9653 25.1374 33.9642 24.73 34.0334C24.6988 34.0391 24.6676 34.0215 24.6562 33.9913L23.9601 32.1857C23.9534 32.168 23.9404 32.1586 23.9216 32.1576C23.2251 32.1206 22.529 32.1201 21.8325 32.157C21.8226 32.1576 21.8138 32.1638 21.8101 32.1726C21.5552 32.7756 21.3274 33.3889 21.1261 34.0121C21.1224 34.0251 21.1089 34.0324 21.0959 34.0298ZM22.2294 31.6275C22.7038 31.666 23.1793 31.6582 23.6558 31.6046C23.674 31.6025 23.6803 31.5926 23.6735 31.5755L22.8989 29.5388C22.8963 29.5321 22.8885 29.529 22.8823 29.5316C22.8791 29.5326 22.8765 29.5352 22.875 29.5383L22.0328 31.5781C22.026 31.5937 22.0312 31.603 22.0484 31.6056C22.1092 31.6155 22.1696 31.6228 22.2294 31.6275Z" fill="#3A405A"/>
<path id="&#216;&#167;&#217;&#132;&#217;&#133;&#216;&#170;&#216;&#172;&#217;&#135; (&#217;&#129;&#217;&#138;&#217;&#131;&#216;&#170;&#217;&#136;&#216;&#177;)_20" d="M42.4733 34.0265C42.1846 33.9828 41.9968 33.9626 41.7216 34.0281C41.7118 34.0302 41.7014 34.0239 41.6993 34.0141C41.6982 34.0104 41.6988 34.0063 41.7003 34.0031C42.5925 32.0368 43.5637 30.0048 44.2821 28.0353C44.2888 28.0177 44.3013 28.0114 44.3195 28.0166C44.4865 28.065 44.654 28.064 44.821 28.0135C44.8392 28.0083 44.8512 28.0145 44.8574 28.0317C45.5909 30.0615 46.4768 32.042 47.3716 34.0042C47.3768 34.0156 47.3721 34.0291 47.3607 34.0349C47.3565 34.0369 47.3513 34.0375 47.3466 34.0364C46.931 33.9646 46.5158 33.9641 46.1007 34.0354C46.0789 34.0395 46.057 34.0271 46.0487 34.0063L45.3485 32.1975C45.3397 32.1746 45.3178 32.159 45.2928 32.1574C44.6046 32.1205 43.9169 32.1205 43.2287 32.1574C43.212 32.1585 43.2006 32.1668 43.1938 32.1824C42.9436 32.7791 42.7173 33.3851 42.516 34.0005C42.5087 34.0213 42.4947 34.0297 42.4733 34.0265ZM43.61 31.6279C44.0933 31.6633 44.5755 31.6555 45.0556 31.605C45.0634 31.604 45.0692 31.5972 45.0686 31.5894C45.0686 31.5883 45.0681 31.5868 45.0676 31.5857L44.2826 29.5439C44.28 29.5367 44.2717 29.533 44.2644 29.5356C44.2608 29.5372 44.2582 29.5398 44.2566 29.5434L43.4222 31.5764C43.4154 31.5935 43.4206 31.6034 43.4388 31.6066C43.495 31.617 43.5517 31.6237 43.61 31.6279Z" fill="#3A405A"/>
<path id="&#216;&#167;&#217;&#132;&#217;&#133;&#216;&#170;&#216;&#172;&#217;&#135; (&#217;&#129;&#217;&#138;&#217;&#131;&#216;&#170;&#217;&#136;&#216;&#177;)_21" d="M52.6337 30.9119C52.1931 30.541 52.1 29.9199 52.2087 29.3862C52.5291 27.812 54.4778 27.811 55.602 28.3718C55.6113 28.3765 55.6155 28.3874 55.6124 28.3973L55.3518 29.1781C55.3393 29.2145 55.2998 29.2338 55.2633 29.2218C55.2425 29.2145 55.2264 29.1984 55.2196 29.1776C54.9127 28.224 53.2252 28.1741 53.0982 29.2702C52.9703 30.372 54.586 30.4157 55.2769 30.9406C56.1373 31.5939 56.0322 32.9704 55.2701 33.6409C54.4263 34.3833 52.9947 34.2194 52.0906 33.7101C52.0745 33.7013 52.0693 33.6878 52.075 33.6701C52.1744 33.386 52.2347 33.0921 52.256 32.7888C52.2592 32.7415 52.2997 32.7056 52.3471 32.7087C52.3793 32.7108 52.4074 32.7306 52.4204 32.7602C52.6316 33.243 52.9874 33.6706 53.5695 33.7174C54.0237 33.7543 54.3717 33.6222 54.6126 33.3205C54.9455 32.9038 54.9429 32.2967 54.5527 31.9154C54.4555 31.8202 54.2937 31.7245 54.0679 31.6277C53.5872 31.4223 53.0431 31.2568 52.6337 30.9119Z" fill="#3A405A"/>
<path id="&#216;&#167;&#217;&#132;&#217;&#133;&#216;&#170;&#216;&#172;&#217;&#135; (&#217;&#129;&#217;&#138;&#217;&#131;&#216;&#170;&#217;&#136;&#216;&#177;)_22" d="M27.8412 34.0289C27.4152 33.9904 27.1093 33.967 26.691 34.032C26.6713 34.0351 26.6531 34.0221 26.6499 34.0024C26.6494 33.9998 26.6494 33.9966 26.6494 33.994C26.7519 32.4199 26.7535 30.8088 26.7306 29.3725C26.7254 29.0448 26.6999 28.6271 26.6536 28.1199C26.652 28.1058 26.6629 28.0928 26.6775 28.0918C26.6796 28.0918 26.6822 28.0918 26.6843 28.0918C27.0729 28.1589 27.462 28.1605 27.8516 28.097C27.875 28.0934 27.8859 28.1032 27.8839 28.1272C27.8542 28.4617 27.837 28.6978 27.8324 28.8357C27.772 30.5591 27.784 32.2815 27.8688 34.0029C27.8693 34.0221 27.8599 34.031 27.8412 34.0289Z" fill="#3A405A"/>
<path id="&#216;&#167;&#217;&#132;&#217;&#133;&#216;&#170;&#216;&#172;&#217;&#135; (&#217;&#129;&#217;&#138;&#217;&#131;&#216;&#170;&#217;&#136;&#216;&#177;)_23" d="M30.6324 31.2195H30.5002C30.4711 31.2195 30.4565 31.234 30.4571 31.2632L30.5008 33.9922C30.5013 34.0104 30.4867 34.0249 30.4685 34.0254C30.4664 34.0254 30.4643 34.0254 30.4623 34.0249C30.0903 33.963 29.7189 33.9641 29.348 34.028C29.335 34.0306 29.322 34.0218 29.3194 34.0088C29.3188 34.0067 29.3188 34.0046 29.3188 34.0026C29.3984 32.0414 29.4401 30.0849 29.3376 28.1248C29.3365 28.1055 29.3454 28.0972 29.3646 28.0988C30.159 28.1669 30.9715 28.1076 31.6494 28.0962C32.4344 28.0831 33.1444 28.35 33.3499 29.1548C33.6027 30.1442 32.8458 30.9115 31.9324 31.0832C31.911 31.0873 31.9063 31.0983 31.9183 31.1165C32.579 32.1069 33.2797 33.0683 34.0199 34.0005C34.0267 34.0088 34.0257 34.0208 34.0173 34.0275C34.0132 34.0312 34.0074 34.0327 34.0017 34.0317C33.5283 33.9583 33.055 33.9568 32.5816 34.027C32.5639 34.0296 32.5504 34.0234 32.541 34.0083C31.9563 33.0631 31.3362 32.1418 30.6807 31.2439C30.6683 31.2278 30.6521 31.2195 30.6324 31.2195ZM30.4929 30.7976C30.6589 30.8309 30.8925 30.8277 31.0631 30.8246C31.8715 30.8101 32.3418 30.1858 32.2247 29.4024C32.078 28.4166 31.1983 28.5269 30.4867 28.5706C30.4753 28.5711 30.4659 28.581 30.4659 28.5929V30.7648C30.4659 30.7809 30.4768 30.795 30.4929 30.7976Z" fill="#3A405A"/>
<path id="&#216;&#167;&#217;&#132;&#217;&#133;&#216;&#170;&#216;&#172;&#217;&#135; (&#217;&#129;&#217;&#138;&#217;&#131;&#216;&#170;&#217;&#136;&#216;&#177;)_24" d="M36.5591 32.4167C37.098 31.0002 37.5828 29.5655 38.0136 28.1126C38.0193 28.0944 38.0307 28.0881 38.0489 28.0938C38.2758 28.1636 38.5041 28.1651 38.7335 28.0991C38.7627 28.0907 38.7923 28.1074 38.8006 28.136C39.2256 29.5853 39.7001 31.0179 40.225 32.4344C40.238 32.4693 40.251 32.4693 40.264 32.4344C40.7961 31.0195 41.2591 29.5822 41.6529 28.1225C41.6586 28.1017 41.6716 28.0938 41.6919 28.0996C41.9375 28.1625 42.1835 28.163 42.4301 28.1006C42.4525 28.0949 42.4598 28.1027 42.4509 28.124C41.6742 30.0613 40.9678 32.024 40.3316 34.0117C40.3269 34.0263 40.3118 34.0346 40.2973 34.0299H40.2967C40.0809 33.9618 39.8655 33.9623 39.6496 34.0315C39.6272 34.0382 39.6038 34.0263 39.5966 34.0039C39.1299 32.5385 38.6623 31.0772 38.1343 29.669C38.1249 29.6441 38.1155 29.6441 38.1062 29.6695C37.5745 31.0996 37.0819 32.5432 36.6277 34.0003C36.6215 34.02 36.6085 34.0273 36.5882 34.0216C36.3786 33.9628 36.1694 33.9649 35.9598 34.0278C35.9426 34.033 35.9249 34.0237 35.9192 34.0065C35.2882 32.0386 34.6073 30.0883 33.8764 28.1558C33.8592 28.1105 33.8748 28.0912 33.9227 28.0991C34.3212 28.163 34.7191 28.163 35.1166 28.0991C35.1296 28.097 35.142 28.1048 35.1457 28.1173C35.5702 29.5619 36.0311 30.995 36.5284 32.4162C36.5377 32.4448 36.5482 32.4448 36.5591 32.4167Z" fill="#3A405A"/>
<path id="&#216;&#167;&#217;&#132;&#217;&#133;&#216;&#170;&#216;&#172;&#217;&#135; (&#217;&#129;&#217;&#138;&#217;&#131;&#216;&#170;&#217;&#136;&#216;&#177;)_25" d="M49.4303 30.9758C49.9791 30.0566 50.4634 29.1041 50.8843 28.1188C50.8921 28.1006 50.9118 28.0902 50.9316 28.0949C51.2052 28.1578 51.4794 28.163 51.7535 28.11C51.7639 28.1079 51.7738 28.1152 51.7759 28.1256C51.7769 28.1302 51.7759 28.1349 51.7733 28.1391C51.0471 29.269 50.362 30.4228 49.7174 31.6005C49.693 31.6458 49.681 31.7186 49.6821 31.8185C49.6904 32.539 49.7148 33.2595 49.7549 33.981C49.7565 34.007 49.7367 34.0288 49.7107 34.0304C49.707 34.0304 49.7029 34.0304 49.6992 34.0299C49.3377 33.9649 48.9756 33.9649 48.613 34.0299C48.5928 34.0335 48.573 34.02 48.5693 33.9997C48.5688 33.9971 48.5688 33.995 48.5688 33.9924L48.624 31.6988C48.624 31.6895 48.6214 31.6801 48.6167 31.6718L46.5057 28.1334C46.4984 28.1219 46.5021 28.1068 46.514 28.0995C46.5187 28.0964 46.5249 28.0954 46.5301 28.0964C46.9874 28.1635 47.4441 28.1646 47.9004 28.099C47.9092 28.098 47.9175 28.1027 47.9212 28.1105C48.3769 29.0848 48.87 30.0399 49.4012 30.9752C49.4105 30.9919 49.4204 30.9924 49.4303 30.9758Z" fill="#3A405A"/>
<path id="&#216;&#167;&#217;&#132;&#217;&#133;&#216;&#170;&#216;&#172;&#217;&#135; (&#217;&#129;&#217;&#138;&#217;&#131;&#216;&#170;&#217;&#136;&#216;&#177;)_26" d="M78.1137 28.9336C77.8651 28.8161 77.9213 28.3354 78.1101 28.1897C78.4383 27.938 79.1016 28.1346 79.0501 28.6277C79.0074 29.034 78.378 29.059 78.1137 28.9336Z" fill="#3A405A"/>
<path id="&#216;&#167;&#217;&#132;&#217;&#133;&#216;&#170;&#216;&#172;&#217;&#135; (&#217;&#129;&#217;&#138;&#217;&#131;&#216;&#170;&#217;&#136;&#216;&#177;)_27" d="M79.4793 28.9336C79.2639 28.8337 79.2852 28.4405 79.3887 28.2797C79.5755 27.9879 80.156 28.0545 80.3371 28.3088C80.5249 28.5731 80.3948 28.8878 80.0811 28.9731C79.8637 29.0325 79.6629 29.0194 79.4793 28.9336Z" fill="#3A405A"/>
<path id="&#216;&#167;&#217;&#132;&#217;&#133;&#216;&#170;&#216;&#172;&#217;&#135; (&#217;&#129;&#217;&#138;&#217;&#131;&#216;&#170;&#217;&#136;&#216;&#177;)_28" d="M57.9947 29.0135C57.7954 28.9084 57.8017 28.5135 57.912 28.3538C58.054 28.1484 58.3437 28.1525 58.5695 28.2024C59.0138 28.3013 59.0876 28.8777 58.6527 29.0384C58.4134 29.1274 58.1939 29.1191 57.9947 29.0135Z" fill="#3A405A"/>
<path id="&#216;&#167;&#217;&#132;&#217;&#133;&#216;&#170;&#216;&#172;&#217;&#135; (&#217;&#129;&#217;&#138;&#217;&#131;&#216;&#170;&#217;&#136;&#216;&#177;)_29" d="M60.2456 28.542C60.3912 29.2141 58.943 29.3915 59.1838 28.4489C59.2957 28.0119 60.1504 28.0993 60.2456 28.542Z" fill="#3A405A"/>
<path id="&#216;&#167;&#217;&#132;&#217;&#133;&#216;&#170;&#216;&#172;&#217;&#135; (&#217;&#129;&#217;&#138;&#217;&#131;&#216;&#170;&#217;&#136;&#216;&#177;)_30" d="M67.1071 34.0425C67.0665 34.8608 66.6441 35.3534 65.8404 35.5215C65.4227 35.6083 65.0497 35.5007 64.7215 35.1984C64.6538 35.136 64.5461 35.0455 64.6117 34.9487C64.671 34.8608 64.8567 34.9149 64.9769 34.9347C65.4388 35.0106 65.8498 34.8306 66.0214 34.4124C66.0735 34.2855 66.1021 34.0862 66.1078 33.8142C66.1255 32.9678 66.1426 32.1323 66.1588 31.3078C66.1593 31.274 66.1437 31.2537 66.1109 31.2464C65.9127 31.2001 65.7442 31.0669 65.9668 30.8906C66.3341 30.5993 66.7097 30.3189 67.0936 30.0494C67.1102 30.0375 67.1185 30.0421 67.1191 30.0624L67.1534 33.0536C67.1539 33.0708 67.1628 33.0791 67.1799 33.0791H68.3681C68.3868 33.0791 68.4019 33.0635 68.4019 33.0448V29.5802C68.4019 29.563 68.3967 29.548 68.3858 29.5349C68.2245 29.3425 68.0898 29.2192 68.3608 29.0049C68.7036 28.7344 69.0563 28.4753 69.4179 28.2277C69.4251 28.2225 69.435 28.224 69.4402 28.2313C69.4423 28.2339 69.4433 28.2376 69.4433 28.2412L69.4418 30.9327C69.4418 30.9499 69.4558 30.9639 69.473 30.9639C69.4792 30.9639 69.485 30.9624 69.4902 30.9587C69.8626 30.7174 70.1919 30.6763 70.6767 30.6752C71.9341 30.6721 73.1914 30.6732 74.4487 30.6789C75.1932 30.682 75.9064 31.1122 76.1274 31.84C76.2294 32.1739 76.194 32.6426 76.1914 33.0266C76.1909 33.0552 76.2143 33.0786 76.2429 33.0791H76.2435H79.4682C79.4895 33.0791 79.5067 33.0619 79.5067 33.0411L79.5114 32.445C79.5114 32.4257 79.5015 32.4158 79.4822 32.4158H78.1422C78.1209 32.4158 78.1099 32.4049 78.1094 32.3836C78.0964 31.8774 77.9986 31.2797 78.4569 30.8828C79.0505 30.3688 79.7881 30.0484 80.5039 29.7976C80.5201 29.7919 80.5279 29.7977 80.5279 29.8148L80.5357 33.0401C80.5357 33.0614 80.5533 33.0791 80.5747 33.0791H81.8622C81.8793 33.0791 81.8882 33.0703 81.8882 33.0531V29.4876C81.8882 29.4684 81.8788 29.4569 81.8596 29.4538L81.7399 29.434C81.7222 29.4309 81.7087 29.4215 81.6988 29.4065C81.6364 29.305 81.6551 29.214 81.7545 29.1339C82.1129 28.8446 82.4875 28.5835 82.8787 28.3499C82.9026 28.3359 82.9146 28.3426 82.9146 28.3702L82.9161 34.003C82.9161 34.0181 82.9041 34.0306 82.8891 34.0306L67.1269 34.0238C67.1144 34.0238 67.1076 34.03 67.1071 34.0425ZM79.4744 31.6777C79.4932 31.6777 79.5083 31.6626 79.5083 31.6439V31.1663C79.5083 31.1538 79.4979 31.1434 79.4854 31.1434C79.4828 31.1434 79.4802 31.1439 79.4776 31.1445C79.2497 31.222 78.9137 31.3796 78.8726 31.6459C78.8705 31.6589 78.8793 31.6709 78.8918 31.6725C78.8929 31.6725 78.8939 31.673 78.8955 31.673L79.4744 31.6777ZM69.486 33.0801H75.1489C75.1734 33.0801 75.1937 33.0604 75.1937 33.0354V32.2145C75.1937 31.9076 74.9372 31.6589 74.6209 31.6589H70.014C69.6977 31.6589 69.4413 31.9076 69.4413 32.2145V33.0354C69.4413 33.0604 69.461 33.0801 69.486 33.0801Z" fill="#3A405A"/>
<path id="&#216;&#167;&#217;&#132;&#217;&#133;&#216;&#170;&#216;&#172;&#217;&#135; (&#217;&#129;&#217;&#138;&#217;&#131;&#216;&#170;&#217;&#136;&#216;&#177;)_31" d="M83.6427 29.4533C83.3566 29.4726 83.4903 29.1771 83.637 29.0679C83.9782 28.8145 84.3283 28.5721 84.6873 28.3417C84.6982 28.3344 84.7133 28.338 84.7205 28.3495C84.7231 28.3536 84.7242 28.3578 84.7242 28.3625L84.7205 33.9838C84.7205 34.0155 84.6951 34.041 84.6638 34.041L83.7207 34.0426C83.7041 34.0426 83.6957 34.0343 83.6957 34.0176V29.5033C83.6957 29.4757 83.6734 29.4533 83.6458 29.4533C83.6448 29.4533 83.6437 29.4533 83.6427 29.4533Z" fill="#3A405A"/>
<path id="&#216;&#167;&#217;&#132;&#217;&#133;&#216;&#170;&#216;&#172;&#217;&#135; (&#217;&#129;&#217;&#138;&#217;&#131;&#216;&#170;&#217;&#136;&#216;&#177;)_32" d="M63.7034 31.8635C63.6134 31.8224 63.5484 31.7568 63.5083 31.6658C63.501 31.6492 63.501 31.6304 63.5078 31.6133C63.6514 31.2601 64.3692 30.8428 64.697 30.654C64.7084 30.6478 64.7225 30.6519 64.7287 30.6629C64.7308 30.6665 64.7318 30.6701 64.7318 30.6743L64.7198 34.0015C64.7193 34.0099 64.7126 34.0166 64.7042 34.0166L57.6035 34.026C57.5832 34.0265 57.5738 34.0161 57.5754 33.9953C57.6128 33.5214 57.6648 33.0506 57.6888 32.5777C57.7325 31.7178 58.8629 31.1071 59.6078 30.7034C59.6213 30.6956 59.6307 30.6826 59.6338 30.6675L59.6983 30.3211C59.703 30.2961 59.6931 30.2795 59.6692 30.2717C59.5688 30.2378 59.485 30.1796 59.419 30.0974C59.407 30.0828 59.4054 30.062 59.4153 30.0459C59.4653 29.9637 59.5355 29.8799 59.6265 29.7941C59.9595 29.4794 60.296 29.1652 60.6357 28.852C60.6451 28.8432 60.6597 28.8437 60.668 28.8531C60.6721 28.8572 60.6742 28.8629 60.6742 28.8692L60.6763 33.0542C60.6763 33.0688 60.6877 33.0808 60.7023 33.0808H63.7257C63.7361 33.0808 63.745 33.0724 63.745 33.062L63.7528 31.9405C63.7528 31.9046 63.7361 31.8791 63.7034 31.8635ZM59.6666 33.0724C59.6713 33.0724 59.6754 33.0683 59.6754 33.0636V31.7933C59.6754 31.7751 59.6603 31.7605 59.6427 31.7605C59.6375 31.7605 59.6328 31.7615 59.6281 31.7641C59.0814 32.0445 58.4472 32.2526 58.6158 33.0418C58.6189 33.0579 58.6288 33.0657 58.6449 33.0657L59.6666 33.0724Z" fill="#3A405A"/>
<path id="&#216;&#167;&#217;&#132;&#217;&#133;&#216;&#170;&#216;&#172;&#217;&#135; (&#217;&#129;&#217;&#138;&#217;&#131;&#216;&#170;&#217;&#136;&#216;&#177;)_33" d="M108.268 30.194C108.483 30.3646 108.682 30.5623 108.865 30.7875C104.441 30.9519 99.6935 31.0534 94.62 31.0913C94.2756 31.0939 93.0094 30.9998 93.0156 30.5061C93.0209 30.0644 94.0295 29.9276 94.3505 29.9209C95.1126 29.9047 96.7429 29.9172 99.2404 29.9588C102.245 30.0093 105.254 30.0879 108.268 30.194Z" fill="#3A405A"/>
<path id="&#216;&#167;&#217;&#132;&#217;&#133;&#216;&#170;&#216;&#172;&#217;&#135; (&#217;&#129;&#217;&#138;&#217;&#131;&#216;&#170;&#217;&#136;&#216;&#177;)_34" d="M97.2204 32.9498C97.0357 32.8224 97.0872 32.6351 97.2542 32.5243C97.4456 32.3974 97.647 32.3344 97.8587 32.336C100.838 32.3542 103.835 32.4083 106.81 32.5883C107.162 32.6096 107.525 32.6517 107.9 32.7136C107.919 32.7162 107.932 32.7339 107.93 32.7527C107.928 32.7667 107.918 32.7781 107.905 32.7818C107.484 32.9077 106.933 32.9051 106.494 32.9274C103.656 33.0731 100.817 33.1574 97.9757 33.1808C97.6974 33.1829 97.4456 33.1059 97.2204 32.9498Z" fill="#3A405A"/>
<path id="&#216;&#167;&#217;&#132;&#217;&#133;&#216;&#170;&#216;&#172;&#217;&#135; (&#217;&#129;&#217;&#138;&#217;&#131;&#216;&#170;&#217;&#136;&#216;&#177;)_35" d="M61.9164 35.2543C61.4347 35.4124 61.0394 35.195 61.1757 34.6487C61.2755 34.2492 62.15 34.2877 62.2312 34.7596C62.2733 35.0067 62.1682 35.1716 61.9164 35.2543Z" fill="#3A405A"/>
<path id="&#216;&#167;&#217;&#132;&#217;&#133;&#216;&#170;&#216;&#172;&#217;&#135; (&#217;&#129;&#217;&#138;&#217;&#131;&#216;&#170;&#217;&#136;&#216;&#177;)_36" d="M63.4204 35.1939C63.2233 35.2963 62.6947 35.378 62.5772 35.1091C62.3145 34.5093 62.9096 34.2034 63.3736 34.4521C63.654 34.6029 63.7367 35.029 63.4204 35.1939Z" fill="#3A405A"/>
</g>
<defs>
<clipPath id="clip0_652_5244">
<rect width="125.099" height="35.3292" fill="white" transform="translate(0.720703 0.273438)"/>
</clipPath>
</defs>
</svg>
