<svg width="114" height="26" viewBox="0 0 114 26" fill="none" xmlns="http://www.w3.org/2000/svg">
<g id="&#216;&#180;&#216;&#185;&#216;&#167;&#216;&#177;" opacity="0.4" clip-path="url(#clip0_652_5335)">
<path id="&#216;&#167;&#217;&#132;&#217;&#133;&#216;&#170;&#216;&#172;&#217;&#135; (&#217;&#129;&#217;&#138;&#217;&#131;&#216;&#170;&#217;&#136;&#216;&#177;)" d="M39.4495 0.763815C38.7248 0.787497 37.9718 0.850646 37.1919 0.954844C35.6447 1.16324 33.8134 2.5178 33.7676 4.19127C33.6918 6.97145 33.6823 11.4535 33.7392 17.6406C33.7597 19.8998 33.6855 22.44 33.736 24.8476C33.7376 24.8902 33.7597 24.9123 33.8023 24.9123H39.5189C39.571 24.9123 39.5979 24.8855 39.5979 24.8334L39.5995 0.90906C39.5995 0.809599 39.5489 0.760658 39.4495 0.763815Z" fill="#3A405A"/>
<path id="&#216;&#167;&#217;&#132;&#217;&#133;&#216;&#170;&#216;&#172;&#217;&#135; (&#217;&#129;&#217;&#138;&#217;&#131;&#216;&#170;&#217;&#136;&#216;&#177;)_2" d="M74.324 8.49434C71.9859 8.21648 69.5973 8.68694 67.6681 10.1141C67.6586 10.122 67.646 10.1252 67.6349 10.1252C67.6333 10.1252 67.6318 10.1252 67.6302 10.1236C67.6286 10.1236 67.627 10.1236 67.6254 10.122C67.6128 10.1204 67.6018 10.1141 67.5939 10.1047C67.5939 10.1047 67.5923 10.1047 67.5923 10.1031C67.5923 10.1015 67.5923 10.1015 67.5907 10.0999C67.5844 10.0904 67.5797 10.081 67.5797 10.0699V0.842151C67.5797 0.797946 67.5576 0.775844 67.5134 0.777423C65.3378 0.794789 62.7945 1.09159 61.9309 3.35236C61.7746 3.76125 61.6973 4.43696 61.6973 5.37947C61.7004 11.8571 61.7004 18.3394 61.6973 24.8265C61.6973 24.8849 61.7257 24.9133 61.7841 24.9133H67.1376C67.1866 24.9133 67.2134 24.8896 67.2181 24.8407L67.3602 23.4561C67.3618 23.4466 67.3649 23.4388 67.3697 23.4324C67.3713 23.4309 67.3728 23.4309 67.3744 23.4309C67.3792 23.4261 67.3839 23.4261 67.3886 23.423C67.3949 23.4214 67.3981 23.4182 67.4044 23.4182C67.406 23.4182 67.4076 23.4166 67.4092 23.4166C67.4186 23.4182 67.4265 23.4214 67.4344 23.4277C69.6447 25.2875 72.4011 25.7785 75.1671 25.1959C80.0123 24.176 82.2446 19.7034 81.37 15.0777C80.6706 11.3645 77.9978 8.93007 74.324 8.49434ZM72.2811 20.8196C70.4056 21.1133 67.5702 20.0192 67.5797 17.7458C67.5844 16.9391 67.4234 15.7297 67.8149 15.0161C68.699 13.4106 70.7498 12.768 72.4185 13.098C76.6432 13.93 76.5295 20.1502 72.2811 20.8196Z" fill="#3A405A"/>
<path id="&#216;&#167;&#217;&#132;&#217;&#133;&#216;&#170;&#216;&#172;&#217;&#135; (&#217;&#129;&#217;&#138;&#217;&#131;&#216;&#170;&#217;&#136;&#216;&#177;)_3" d="M12.8239 20.3795C12.8223 20.3748 12.8176 20.3701 12.8144 20.3669C12.8113 20.3622 12.8065 20.3558 12.8018 20.3527C12.7971 20.3495 12.7923 20.3464 12.7876 20.3432C12.7829 20.3401 12.7781 20.3369 12.7718 20.3353C12.7655 20.3337 12.7592 20.3322 12.7529 20.3322C12.7481 20.3322 12.7418 20.3306 12.7371 20.3306C12.7229 20.3306 12.7087 20.3337 12.696 20.3416C11.9161 20.7679 11.092 20.94 10.2253 20.8595C8.50288 20.7 8.43184 19.467 8.42237 18.0477C8.40816 16.0159 8.41132 14.3645 8.43184 13.0936C8.43342 13.0289 8.46499 12.9973 8.52972 12.9973H11.973C11.9824 12.9973 11.9919 12.9942 11.9998 12.991C12.0077 12.9894 12.014 12.9878 12.0203 12.9847C12.0266 12.9815 12.0329 12.9768 12.0377 12.972C12.044 12.9673 12.0487 12.9642 12.0535 12.9578C12.0582 12.9531 12.0614 12.9468 12.0645 12.9405C12.0677 12.9342 12.0724 12.9278 12.074 12.9215C12.0772 12.9152 12.0772 12.9073 12.0787 12.8994C12.0803 12.89 12.0819 12.8805 12.0819 12.871L11.6414 9.01571C11.6335 8.94309 11.572 8.88941 11.4978 8.88941L8.51709 8.90046H8.51551C8.5092 8.90046 8.50288 8.89731 8.49657 8.89731C8.49025 8.89573 8.48236 8.89573 8.47604 8.89257C8.46973 8.88941 8.46499 8.88468 8.45868 8.88152C8.45394 8.87836 8.44763 8.8752 8.44289 8.87047C8.43815 8.86573 8.435 8.85942 8.43184 8.85468C8.42868 8.84994 8.42395 8.84521 8.42079 8.83889C8.41763 8.83258 8.41763 8.82626 8.41605 8.81837C8.41447 8.81205 8.41131 8.80574 8.41131 8.79942V8.79784L8.41289 2.28394C8.41289 2.21289 8.37658 2.17816 8.30396 2.17974C7.11517 2.22237 5.70219 2.26341 4.57497 2.83966C2.00162 4.15633 2.54945 6.60497 2.52734 8.97782C2.52734 9.03939 2.49735 9.07097 2.43578 9.0757L0.351838 9.21937C0.318684 9.22253 0.287109 9.25568 0.287109 9.29515V12.9168C0.287109 12.9689 0.313948 12.9957 0.366046 12.9957H2.42315C2.4863 12.9957 2.53682 13.0463 2.53682 13.1094C2.53524 15.0781 2.53682 17.0531 2.53997 19.0344C2.54471 23.968 5.46223 25.823 10.0658 25.3605C13.348 25.0305 12.8586 22.915 12.835 20.4206C12.835 20.4064 12.8302 20.3922 12.8239 20.3795Z" fill="#3A405A"/>
<path id="&#216;&#167;&#217;&#132;&#217;&#133;&#216;&#170;&#216;&#172;&#217;&#135; (&#217;&#129;&#217;&#138;&#217;&#131;&#216;&#170;&#217;&#136;&#216;&#177;)_4" d="M113.568 20.3828C113.569 20.3212 113.543 20.3054 113.489 20.3322C111.855 21.1674 109.179 21.3853 109.176 18.7551C109.174 16.8653 109.177 14.9708 109.185 13.0716C109.185 13.0211 109.21 12.9958 109.261 12.9958H112.733C112.81 12.9958 112.845 12.9563 112.837 12.879L112.385 8.9921C112.379 8.93369 112.33 8.89106 112.273 8.89106H109.263C109.212 8.89106 109.187 8.8658 109.185 8.81528L109.162 2.26191C109.162 2.21928 109.139 2.19718 109.095 2.1956C106.634 2.17981 103.241 2.80658 103.29 6.05406C103.304 7.02341 103.301 7.99749 103.281 8.97474C103.279 9.03947 103.246 9.0742 103.181 9.07893L101.105 9.2226C101.044 9.22734 101.014 9.25891 101.014 9.32048L101.037 12.8916C101.037 12.9611 101.072 12.9958 101.143 12.9958H103.186H103.188C103.195 12.9958 103.202 12.999 103.21 13.0005C103.218 13.0021 103.225 13.0021 103.232 13.0053C103.238 13.0084 103.244 13.0132 103.249 13.0179C103.255 13.0226 103.262 13.0258 103.268 13.0305C103.273 13.0353 103.276 13.0432 103.281 13.0479C103.285 13.0542 103.29 13.059 103.293 13.0668C103.297 13.0732 103.297 13.0811 103.298 13.089C103.3 13.0968 103.303 13.1032 103.303 13.1111V13.1126C103.298 15.1492 103.298 17.1921 103.306 19.2413C103.323 24.3612 106.94 26.1199 111.601 25.2437C114.103 24.7717 113.554 22.2315 113.568 20.3828Z" fill="#3A405A"/>
<path id="&#216;&#167;&#217;&#132;&#217;&#133;&#216;&#170;&#216;&#172;&#217;&#135; (&#217;&#129;&#217;&#138;&#217;&#131;&#216;&#170;&#217;&#136;&#216;&#177;)_5" d="M20.3905 8.53832C18.8165 8.73251 16.1674 9.05141 16.48 11.3311C16.5779 12.0416 16.63 12.6289 16.7578 13.2619C16.7689 13.3188 16.8021 13.3346 16.8557 13.3093C18.3492 12.6036 19.7764 12.4631 21.4672 12.4615C23.1991 12.4599 25.8909 12.8025 25.6983 15.2212C25.6935 15.2733 25.6683 15.289 25.6193 15.2701C21.9093 13.7545 14.8428 13.4908 14.0377 18.9486C13.0336 25.7514 22.1461 27.0412 25.984 23.6453C25.9935 23.6359 26.0061 23.6327 26.0188 23.6296C26.0203 23.6296 26.0219 23.628 26.0235 23.628C26.0251 23.628 26.0282 23.628 26.0298 23.628C26.0345 23.628 26.0393 23.628 26.044 23.6296C26.0487 23.6311 26.0535 23.6311 26.0566 23.6327C26.0614 23.6343 26.0645 23.6359 26.0693 23.639C26.074 23.6422 26.0772 23.6438 26.0803 23.6485C26.0819 23.6501 26.0835 23.6501 26.0851 23.6532C26.0866 23.6548 26.0866 23.6564 26.0866 23.658C26.0945 23.6674 26.1008 23.6801 26.1024 23.6927L26.2335 24.8294C26.2398 24.8783 26.2792 24.9147 26.3266 24.9147C27.2218 24.9194 28.1201 24.9194 29.0184 24.9147C30.5624 24.9099 31.5601 24.6842 31.5712 22.9412C31.5886 20.2968 31.5949 17.6524 31.5886 15.0112C31.5759 8.95669 24.9247 7.97944 20.3905 8.53832ZM25.703 20.2795C25.703 20.3473 25.6762 20.4137 25.6272 20.4626C24.4037 21.6609 22.9434 22.054 21.2446 21.6451C20.4 21.443 19.958 20.461 20.0622 19.6574C20.4 17.0841 24.1764 17.9634 25.6193 18.8791C25.6762 18.9154 25.7046 18.9675 25.7046 19.0354L25.703 20.2795Z" fill="#3A405A"/>
<path id="&#216;&#167;&#217;&#132;&#217;&#133;&#216;&#170;&#216;&#172;&#217;&#135; (&#217;&#129;&#217;&#138;&#217;&#131;&#216;&#170;&#217;&#136;&#216;&#177;)_6" d="M59.0637 13.1341C57.7344 8.62518 52.0699 8.08051 48.2193 8.53203C46.7764 8.70096 44.1525 8.96303 44.2157 11.0233C44.2346 11.6343 44.3341 12.37 44.514 13.2335C44.5251 13.2856 44.5535 13.2998 44.6024 13.2793C45.6302 12.8325 46.8553 12.5689 48.2809 12.4899C50.0665 12.3905 53.6913 12.4347 53.4339 15.2117C53.4292 15.2701 53.3992 15.2875 53.3471 15.2654C49.1255 13.5335 41.3644 13.6756 41.7512 20.3221C42.0307 25.1262 47.4473 26.0372 51.1242 25.071C52.002 24.8405 52.8798 24.3684 53.7576 23.6533C53.8223 23.6012 53.857 23.617 53.8649 23.6975L53.9817 24.8279C53.9881 24.8831 54.0196 24.9115 54.0749 24.9115C54.9716 24.9178 55.8715 24.9178 56.773 24.9131C58.2586 24.9052 59.3163 24.6668 59.3258 22.9791C59.34 20.6726 59.34 18.3645 59.3289 16.0579C59.3226 14.6844 59.2342 13.7103 59.0637 13.1341ZM53.4513 20.2211C53.4513 20.2732 53.4339 20.3237 53.4039 20.3647C52.4851 21.6056 50.6806 21.9972 49.2408 21.6893C47.6336 21.3467 47.2689 19.3133 48.4861 18.4308C49.7933 17.4851 52.1394 18.0898 53.3976 18.9012C53.4339 18.9249 53.4513 18.9565 53.4513 18.9975V20.2211Z" fill="#3A405A"/>
<path id="&#216;&#167;&#217;&#132;&#217;&#133;&#216;&#170;&#216;&#172;&#217;&#135; (&#217;&#129;&#217;&#138;&#217;&#131;&#216;&#170;&#217;&#136;&#216;&#177;)_7" d="M100.013 13.1814C98.5383 8.09468 91.6802 7.99206 87.5992 8.73723C86.3756 8.95983 85.0653 9.68447 85.1805 11.1274C85.2374 11.8347 85.31 12.5357 85.4 13.2288C85.4016 13.2398 85.4047 13.2493 85.4095 13.2572C85.4126 13.2635 85.4158 13.2667 85.4205 13.2714C85.4237 13.2761 85.4268 13.2793 85.43 13.2824C85.4347 13.2856 85.4395 13.2888 85.4442 13.2903C85.4489 13.2935 85.4537 13.2966 85.4584 13.2982C85.4631 13.2998 85.4679 13.2998 85.4726 13.3014C85.4789 13.303 85.4837 13.303 85.49 13.303C85.4994 13.3014 85.5105 13.2998 85.52 13.2951C87.0277 12.602 88.5701 12.4378 90.2341 12.471C91.9897 12.5057 94.5267 12.7851 94.3862 15.2132C94.383 15.2606 94.3594 15.2748 94.3151 15.2575C92.1791 14.4144 89.9831 14.1476 87.727 14.4554C84.0596 14.9559 82.0088 17.654 82.8456 21.3451C83.826 25.6661 89.6357 26.0324 92.899 24.7631C93.5305 24.5168 94.1225 24.089 94.6893 23.6801C94.6972 23.6737 94.7067 23.6706 94.7161 23.669C94.7177 23.669 94.7177 23.6674 94.7193 23.6674C94.7225 23.6674 94.724 23.6674 94.7272 23.6674C94.7319 23.6674 94.7351 23.6674 94.7398 23.669C94.743 23.6706 94.7477 23.6706 94.7509 23.6722C94.754 23.6737 94.7572 23.6753 94.7619 23.6769C94.7651 23.6801 94.7682 23.6816 94.7714 23.6848C94.773 23.6864 94.7761 23.688 94.7777 23.6895C94.7777 23.6911 94.7777 23.6911 94.7793 23.6927C94.784 23.7006 94.7888 23.7101 94.7903 23.7195L94.9072 24.8152C94.9135 24.8736 94.9466 24.9036 95.0051 24.9052C95.897 24.9146 96.789 24.9162 97.681 24.9083C99.0956 24.8973 100.228 24.7299 100.253 23.0928C100.273 21.8045 100.276 19.3638 100.259 15.7705C100.253 14.5912 100.171 13.7261 100.013 13.1814ZM94.1052 20.6504C93.0585 21.7382 90.7061 22.2418 89.4384 21.3688C88.4912 20.7183 88.5133 19.2296 89.2995 18.527C90.4756 17.4772 92.8722 18.0708 94.1146 18.7528C94.6104 19.0259 94.4525 20.2905 94.1052 20.6504Z" fill="#3A405A"/>
</g>
<defs>
<clipPath id="clip0_652_5335">
<rect width="113.425" height="24.7924" fill="white" transform="translate(0.287109 0.763672)"/>
</clipPath>
</defs>
</svg>
