<svg width="136" height="47" viewBox="0 0 136 47" fill="none" xmlns="http://www.w3.org/2000/svg">
<g id="&#216;&#180;&#216;&#185;&#216;&#167;&#216;&#177;" opacity="0.4" clip-path="url(#clip0_652_5281)">
<path id="&#216;&#167;&#217;&#132;&#217;&#133;&#216;&#170;&#216;&#172;&#217;&#135; (&#217;&#129;&#217;&#138;&#217;&#131;&#216;&#170;&#217;&#136;&#216;&#177;)" d="M14.8649 8.43968C13.8535 9.89318 14.4447 11.1866 15.5544 12.4327C18.1885 15.3943 21.8123 18.4596 21.0155 22.9201C20.9991 23.0202 21.03 23.0384 21.1083 22.9747C21.7977 22.4235 22.4253 21.8104 22.9911 21.1355C23.0147 21.1064 23.0584 21.1028 23.0893 21.1264C23.0984 21.1337 23.1057 21.1446 23.1093 21.1574C23.595 22.6836 23.897 24.2317 24.0189 25.8016C24.1662 27.7118 23.5259 29.3817 22.2543 30.7643C21.0191 32.105 19.7803 33.4457 18.5378 34.7828C17.9247 35.445 17.5427 36.3564 17.3954 37.5152C17.1607 39.3616 16.9369 41.208 16.7223 43.0545C16.3748 46.0524 13.7007 46.8601 11.4922 45.0483C10.308 44.075 9.44386 42.8707 8.89994 41.4318C8.87083 41.359 8.90903 41.2772 8.9818 41.2481C8.98544 41.2462 8.98726 41.2462 8.99089 41.2444L9.4475 41.1025C9.50571 41.0843 9.56757 41.108 9.60031 41.1589C10.2916 42.2741 11.3904 43.944 12.9312 43.8021C14.2337 43.6821 14.874 42.2195 15.0596 41.0498C15.3106 39.4744 15.5598 37.8972 15.8054 36.32C16.182 33.8969 17.479 32.4561 19.2564 30.6279C20.91 28.9269 22.9802 27.2861 23.1402 24.7174C23.1439 24.6701 23.1075 24.6283 23.0602 24.6247C23.0366 24.6228 23.0147 24.6301 22.9965 24.6447C21.6613 25.7598 20.0913 26.7622 19.009 28.1374C18.9125 28.2593 18.8361 28.2484 18.7779 28.1065C18.3832 27.1515 17.8993 25.9545 18.5851 24.9576C18.8125 24.6265 19.0381 24.2936 19.26 23.9588C20.7244 21.7486 19.9294 19.7693 18.3613 17.9011C17.4281 16.7896 16.4967 15.7618 15.5653 14.8158C15.4107 14.6575 15.3379 14.6903 15.3488 14.9104C15.4562 17.0625 15.0941 19.0817 14.2628 20.97C13.1786 23.4368 11.9634 25.4979 11.8579 28.2884C11.8397 28.7832 11.7069 29.087 11.2903 29.3217C11.2503 29.3435 11.1993 29.329 11.1757 29.289C11.1702 29.2799 11.1666 29.2689 11.1666 29.2599C10.7373 26.3419 11.4831 23.7969 12.7074 21.0391C13.4897 19.28 14.5993 16.8023 14.563 14.6976C14.5393 13.3532 13.6916 12.209 13.5952 10.8537C13.5188 9.78767 13.7934 8.81988 14.4211 7.94851C14.5393 7.78479 14.552 7.56649 14.452 7.39003C13.3423 5.43262 12.8166 1.58148 15.2269 0.315355C15.3597 0.246228 15.4543 0.2626 15.5144 0.364472C15.5453 0.419047 15.5362 0.466345 15.4871 0.506366C13.2623 2.24184 14.7631 5.47083 16.2347 7.20266C17.1643 8.29779 18.8598 10.499 21.3211 13.8062C24.5464 18.143 27.4753 23.1202 28.1738 28.3194C28.7469 32.5762 27.408 37.9536 22.4908 38.9869C20.8718 39.327 19.3164 39.2142 17.8229 38.6503C17.6992 38.603 17.6264 38.4739 17.6519 38.3447L18.0157 36.4673C18.0393 36.3454 18.1558 36.2654 18.2777 36.289C18.2831 36.2909 18.2868 36.2909 18.2922 36.2927C22.3544 37.3569 25.8271 34.6027 26.5894 30.6806C27.0369 28.3794 26.7221 26.1309 25.647 23.937C24.2408 21.0664 22.7837 18.6142 21.2738 16.5786C19.2273 13.8189 17.1316 11.1029 14.985 8.43422C14.9595 8.40148 14.9122 8.39784 14.8795 8.42513C14.8722 8.42877 14.8686 8.43422 14.8649 8.43968Z" fill="#3A405A"/>
<path id="&#216;&#167;&#217;&#132;&#217;&#133;&#216;&#170;&#216;&#172;&#217;&#135; (&#217;&#129;&#217;&#138;&#217;&#131;&#216;&#170;&#217;&#136;&#216;&#177;)_2" d="M3.61023 20.6673C5.44758 18.8372 7.74334 17.733 10.1974 16.1285C11.3016 15.4063 12.444 14.3785 12.4804 12.9577C12.4822 12.905 12.4422 12.8595 12.3876 12.8577C12.3658 12.8558 12.3458 12.8631 12.3294 12.874C10.201 14.3439 8.95854 10.6729 11.3034 10.4418C12.5659 10.3163 13.0353 11.6498 13.1917 12.7012C13.5373 15.0243 13.4591 17.0908 12.4968 19.2447C11.7982 20.811 11.0979 22.3773 10.3938 23.9436C8.50193 28.1476 7.65239 32.67 8.3855 37.2416C8.45463 37.6691 8.5565 37.9547 8.0908 38.2002C8.01985 38.2385 7.93253 38.2112 7.89433 38.1402C7.88706 38.1275 7.88342 38.1147 7.87978 38.1002C6.82649 32.7464 7.4068 27.591 9.62071 22.6338C10.3556 20.9893 11.891 18.2314 12.5186 15.792C12.5295 15.7538 12.5077 15.7156 12.4695 15.7046C12.4404 15.6974 12.4076 15.7083 12.3895 15.7337C11.9965 16.3104 11.4926 16.8125 10.8777 17.2436C6.36079 20.4162 0.939723 23.2723 2.08943 29.9468C2.10034 29.9977 2.14946 30.0286 2.20039 30.0177C2.23496 30.0104 2.26043 29.985 2.26952 29.9522C2.62062 28.4969 4.24876 26.987 5.54035 28.6679C6.57909 30.0214 7.04479 31.5458 6.93746 33.2394C6.79193 35.5316 4.71446 35.4952 3.39739 34.1799C3.31553 34.0981 3.16818 33.9671 2.95352 33.7834C2.91532 33.7506 2.89531 33.7597 2.89349 33.8088C2.81163 35.8754 3.74121 39.1662 6.32259 39.0862C10.0191 38.9697 10.3065 33.6797 10.7213 31.0128C10.8086 30.4434 11.0906 29.9704 11.5508 29.5538C12.5132 28.6861 13.4373 27.7802 14.325 26.836C14.3741 26.7833 14.4069 26.7924 14.4233 26.8615C14.6052 27.5801 14.7034 28.3041 14.7198 29.0336C14.7543 30.6599 11.6982 31.8314 11.6018 33.0229C11.3798 35.7244 11.1106 41.5784 7.20851 41.331C6.07518 41.2582 5.10376 40.7725 4.29605 39.8739C2.3914 37.7491 2.08033 35.5643 1.92752 32.6864C1.87113 31.6313 1.31811 30.538 1.1089 29.6066C0.317574 26.0938 1.15074 23.114 3.61023 20.6673ZM3.34828 32.4044C4.18691 32.7992 5.33297 32.7537 5.72045 31.815C5.99878 31.1365 5.27658 30.1487 4.49434 30.5143C3.78669 30.8436 3.34646 31.353 3.17546 32.0406C3.13362 32.2098 3.19183 32.3299 3.34828 32.4044Z" fill="#3A405A"/>
<path id="&#216;&#167;&#217;&#132;&#217;&#133;&#216;&#170;&#216;&#172;&#217;&#135; (&#217;&#129;&#217;&#138;&#217;&#131;&#216;&#170;&#217;&#136;&#216;&#177;)_3" d="M9.6128 15.5567C10.3744 15.5567 10.9917 14.9393 10.9917 14.1777C10.9917 13.4162 10.3744 12.7988 9.6128 12.7988C8.85125 12.7988 8.23389 13.4162 8.23389 14.1777C8.23389 14.9393 8.85125 15.5567 9.6128 15.5567Z" fill="#3A405A"/>
<path id="&#216;&#167;&#217;&#132;&#217;&#133;&#216;&#170;&#216;&#172;&#217;&#135; (&#217;&#129;&#217;&#138;&#217;&#131;&#216;&#170;&#217;&#136;&#216;&#177;)_4" d="M17.9345 20.7186C17.9727 20.6531 18.0146 20.6058 18.0637 20.5785C18.1473 20.5294 18.2565 20.5585 18.3038 20.644C18.3165 20.6677 18.3256 20.6931 18.3274 20.7204C18.3784 21.4717 18.0491 21.7355 17.4761 22.3759C16.6957 23.2472 15.9316 24.1186 15.1858 24.9863C15.1403 25.0391 15.0603 25.0464 15.0057 24.9991C14.9857 24.9827 14.9711 24.9591 14.9657 24.9336C14.862 24.5061 14.8711 24.1714 15.1803 23.813C16.0444 22.8179 16.9267 21.8374 17.8272 20.8714C17.8563 20.8405 17.8908 20.7896 17.9345 20.7186Z" fill="#3A405A"/>
<path id="&#216;&#167;&#217;&#132;&#217;&#133;&#216;&#170;&#216;&#172;&#217;&#135; (&#217;&#129;&#217;&#138;&#217;&#131;&#216;&#170;&#217;&#136;&#216;&#177;)_5" d="M6.05855 25.0151C6.1877 25.0788 6.34233 25.0278 6.406 24.9005C6.40964 24.8932 6.41328 24.886 6.41692 24.8769L6.61157 24.3766C6.63885 24.302 6.72253 24.262 6.79894 24.2911C6.85897 24.3129 6.89717 24.3711 6.89354 24.433C6.87716 24.926 6.72254 25.3444 6.43147 25.69C5.99669 26.2067 5.31451 26.0066 5.18717 25.3771C4.90702 23.9982 6.09129 22.5829 7.19188 21.9062C7.23917 21.8789 7.30102 21.8935 7.32831 21.9426C7.34105 21.9626 7.34468 21.9881 7.34105 22.0099C7.23008 22.5829 4.6196 24.2947 6.05855 25.0151Z" fill="#3A405A"/>
<path id="&#216;&#167;&#217;&#132;&#217;&#133;&#216;&#170;&#216;&#172;&#217;&#135; (&#217;&#129;&#217;&#138;&#217;&#131;&#216;&#170;&#217;&#136;&#216;&#177;)_6" d="M60.0327 24.2418C60.0818 28.7405 60.0964 33.2065 60.0728 37.6434C60.0527 41.5946 56.8092 42.8262 53.5147 41.2908C53.4747 41.2726 53.4547 41.2272 53.4656 41.1835L54.1569 38.6603C54.1769 38.5857 54.2224 38.5657 54.2897 38.6039C55.6922 39.3807 56.8256 38.2383 56.8147 36.8248C56.7837 32.6826 56.7765 28.4949 56.791 24.2636C56.791 24.1381 56.8547 24.0744 56.9802 24.0762L59.9218 24.129C59.9836 24.1308 60.0327 24.1799 60.0327 24.2418Z" fill="#3A405A"/>
<path id="&#216;&#167;&#217;&#132;&#217;&#133;&#216;&#170;&#216;&#172;&#217;&#135; (&#217;&#129;&#217;&#138;&#217;&#131;&#216;&#170;&#217;&#136;&#216;&#177;)_7" d="M127.381 34.7274L126.632 36.9504C126.621 36.9832 126.59 37.005 126.555 37.005H123.379C123.335 37.005 123.299 36.9704 123.297 36.9268C123.297 36.9177 123.299 36.9068 123.303 36.8977L127.756 24.1854C127.767 24.1527 127.796 24.1309 127.83 24.1309L131.381 24.1363C131.416 24.1363 131.445 24.1581 131.456 24.1909L135.831 36.9068C135.846 36.9486 135.824 36.9941 135.784 37.0086C135.775 37.0123 135.766 37.0141 135.755 37.0141L132.389 37.0013C132.353 37.0013 132.322 36.9777 132.313 36.9431L131.703 34.7729C131.694 34.7383 131.663 34.7147 131.627 34.7147L127.458 34.6728C127.423 34.6728 127.392 34.6947 127.381 34.7274ZM128.38 31.633C128.371 31.6621 128.387 31.6931 128.416 31.7022C128.422 31.704 128.427 31.704 128.433 31.704H130.685C130.716 31.704 130.739 31.6803 130.739 31.6494C130.739 31.6439 130.739 31.6385 130.737 31.633L129.611 28.1184C129.604 28.0893 129.573 28.0711 129.544 28.0802C129.526 28.0857 129.51 28.1002 129.506 28.1184L128.38 31.633Z" fill="#3A405A"/>
<path id="&#216;&#167;&#217;&#132;&#217;&#133;&#216;&#170;&#216;&#172;&#217;&#135; (&#217;&#129;&#217;&#138;&#217;&#131;&#216;&#170;&#217;&#136;&#216;&#177;)_8" d="M39.8785 34.6858H35.6799C35.6562 34.6858 35.6344 34.7022 35.6271 34.724L34.8667 36.9671C34.8595 36.9889 34.8376 37.0053 34.814 37.0053H31.5904C31.5595 37.0053 31.534 36.9816 31.5322 36.9507C31.5322 36.9434 31.5322 36.9379 31.5359 36.9307L35.9964 24.173C36.0037 24.1511 36.0255 24.1348 36.0492 24.1348H39.6347C39.6584 24.1348 39.6802 24.1511 39.6875 24.173L44.0825 36.9307C44.0935 36.9598 44.0771 36.9925 44.048 37.0016C44.0425 37.0034 44.0371 37.0053 44.0298 37.0053H40.6134C40.588 37.0053 40.5661 36.9889 40.5588 36.9634L39.9331 34.7277C39.9258 34.7022 39.904 34.6858 39.8785 34.6858ZM36.6258 31.6024C36.6149 31.6351 36.6349 31.6697 36.6659 31.6788C36.6713 31.6806 36.6768 31.6806 36.6841 31.6824L38.8907 31.6861C38.9253 31.6861 38.9525 31.6588 38.9544 31.626C38.9544 31.6188 38.9544 31.6133 38.9507 31.606L37.8538 28.126C37.8429 28.0932 37.8083 28.075 37.7774 28.0841C37.7574 28.0896 37.7428 28.106 37.7355 28.126L36.6258 31.6024Z" fill="#3A405A"/>
<path id="&#216;&#167;&#217;&#132;&#217;&#133;&#216;&#170;&#216;&#172;&#217;&#135; (&#217;&#129;&#217;&#138;&#217;&#131;&#216;&#170;&#217;&#136;&#216;&#177;)_9" d="M46.3711 36.9034V24.1984C46.3711 24.1639 46.4002 24.1348 46.4348 24.1348H49.4909C49.5255 24.1348 49.5546 24.1639 49.5546 24.1984V34.2129C49.5546 34.2474 49.5837 34.2765 49.6183 34.2765H53.6295C53.6641 34.2765 53.6932 34.3056 53.6932 34.3402V36.9034C53.6932 36.9379 53.6641 36.9671 53.6295 36.9671H46.4348C46.3984 36.9671 46.3711 36.9379 46.3711 36.9034Z" fill="#3A405A"/>
<path id="&#216;&#167;&#217;&#132;&#217;&#133;&#216;&#170;&#216;&#172;&#217;&#135; (&#217;&#129;&#217;&#138;&#217;&#131;&#216;&#170;&#217;&#136;&#216;&#177;)_10" d="M70.4073 34.7347H66.2069C66.1832 34.7347 66.1614 34.751 66.1541 34.7729L65.3937 37.0159C65.3864 37.0377 65.3646 37.0541 65.341 37.0541H62.1192C62.0883 37.0541 62.0629 37.0304 62.061 36.9995C62.061 36.9922 62.061 36.9868 62.0647 36.9795L66.5271 24.2218C66.5343 24.2 66.5562 24.1836 66.5798 24.1836H70.1672C70.1908 24.1836 70.2126 24.2 70.2199 24.2218L74.6077 36.9795C74.6186 37.0086 74.6023 37.0413 74.5731 37.0504C74.5677 37.0523 74.5622 37.0541 74.555 37.0541H71.144C71.1186 37.0541 71.0968 37.0377 71.0895 37.0122L70.4619 34.7765C70.4564 34.751 70.4328 34.7347 70.4073 34.7347ZM67.1492 31.6767C67.1383 31.7076 67.1565 31.7422 67.1874 31.7513C67.1929 31.7531 67.1983 31.7549 67.2056 31.7549H69.4468C69.4795 31.7549 69.5068 31.7276 69.5068 31.6949C69.5068 31.6894 69.505 31.6839 69.5032 31.6767L68.3826 28.1784C68.3717 28.1475 68.3371 28.1311 68.3062 28.1421C68.2898 28.1475 68.2771 28.1621 68.2698 28.1784L67.1492 31.6767Z" fill="#3A405A"/>
<path id="&#216;&#167;&#217;&#132;&#217;&#133;&#216;&#170;&#216;&#172;&#217;&#135; (&#217;&#129;&#217;&#138;&#217;&#131;&#216;&#170;&#217;&#136;&#216;&#177;)_11" d="M81.6244 26.8635H77.2202C77.1875 26.8635 77.1602 26.8362 77.1602 26.8035V24.1948C77.1602 24.1621 77.1875 24.1348 77.2202 24.1348H85.9831C86.0158 24.1348 86.0431 24.1621 86.0431 24.1948V24.1966L85.9903 27.422C85.9903 27.4329 85.9867 27.4456 85.9794 27.4547L81.3952 34.1819C81.377 34.2092 81.3824 34.2456 81.4097 34.2656C81.4206 34.2729 81.4316 34.2765 81.4443 34.2765H86.0595C86.0922 34.2765 86.1195 34.3038 86.1195 34.3366V37.0362C86.1195 37.0689 86.0922 37.0962 86.0595 37.0962H77.0383C77.0056 37.0962 76.9783 37.0689 76.9783 37.0362V33.8308C76.9783 33.8199 76.9819 33.8072 76.9892 33.7981L81.6753 26.9581C81.6953 26.9308 81.6881 26.8944 81.6608 26.8744C81.6499 26.8671 81.6371 26.8635 81.6244 26.8635Z" fill="#3A405A"/>
<path id="&#216;&#167;&#217;&#132;&#217;&#133;&#216;&#170;&#216;&#172;&#217;&#135; (&#217;&#129;&#217;&#138;&#217;&#131;&#216;&#170;&#217;&#136;&#216;&#177;)_12" d="M92.3173 34.413H97.7038C97.7366 34.413 97.7621 34.4384 97.7621 34.4712V37.038C97.7621 37.0707 97.7366 37.0962 97.7038 37.0962H89.1793C89.1466 37.0962 89.1211 37.0707 89.1211 37.038V24.193C89.1211 24.1602 89.1466 24.1348 89.1793 24.1348H97.2945C97.3273 24.1348 97.3528 24.1602 97.3528 24.193V26.8016C97.3528 26.8344 97.3273 26.8599 97.2945 26.8599L92.3628 26.8544C92.3301 26.8544 92.3046 26.8799 92.3046 26.9126V29.3066C92.3046 29.3394 92.3301 29.3648 92.3628 29.3648H96.5214C96.5541 29.3648 96.5796 29.3903 96.5796 29.423V31.9444C96.5796 31.9771 96.5541 32.0026 96.5214 32.0026H92.3173C92.2846 32.0026 92.2591 32.0281 92.2591 32.0608V34.3548C92.2591 34.3875 92.2846 34.413 92.3173 34.413Z" fill="#3A405A"/>
<path id="&#216;&#167;&#217;&#132;&#217;&#133;&#216;&#170;&#216;&#172;&#217;&#135; (&#217;&#129;&#217;&#138;&#217;&#131;&#216;&#170;&#217;&#136;&#216;&#177;)_13" d="M103.765 32.0917V34.3238C103.765 34.3729 103.805 34.413 103.854 34.413H109.179C109.228 34.413 109.268 34.453 109.268 34.5021V37.0071C109.268 37.0562 109.228 37.0962 109.179 37.0962H100.716C100.667 37.0962 100.627 37.0562 100.627 37.0071V24.2239C100.627 24.1748 100.667 24.1348 100.716 24.1348H108.77C108.819 24.1348 108.859 24.1748 108.859 24.2239V26.7416C108.859 26.7907 108.819 26.8307 108.77 26.8307L103.913 26.8435C103.865 26.8453 103.827 26.8817 103.825 26.929L103.756 29.2739C103.754 29.323 103.794 29.363 103.843 29.3648H103.845H107.997C108.046 29.3648 108.086 29.4048 108.086 29.454V31.9135C108.086 31.9626 108.046 32.0026 107.997 32.0026H103.854C103.805 32.0026 103.765 32.0426 103.765 32.0917Z" fill="#3A405A"/>
<path id="&#216;&#167;&#217;&#132;&#217;&#133;&#216;&#170;&#216;&#172;&#217;&#135; (&#217;&#129;&#217;&#138;&#217;&#131;&#216;&#170;&#217;&#136;&#216;&#177;)_14" d="M115.522 32.1869C115.415 32.1778 115.362 32.2269 115.362 32.3343V36.9131C115.362 36.9731 115.331 37.004 115.271 37.004H112.224C112.164 37.004 112.133 36.9731 112.133 36.9131V24.2263C112.133 24.1754 112.173 24.1353 112.224 24.1353C114.182 24.1317 116.152 24.1317 118.135 24.1372C121.597 24.1463 122.666 29.2108 119.534 30.677C119.488 30.697 119.468 30.7516 119.488 30.7989C119.494 30.8098 119.499 30.8189 119.508 30.8262C119.85 31.1736 120.074 31.4538 120.258 31.9068C120.933 33.5622 121.584 35.2249 122.213 36.8949C122.24 36.9676 122.215 37.004 122.137 37.004H119.006C118.953 37.004 118.904 36.9713 118.886 36.9203C118.324 35.3741 117.678 33.8642 116.95 32.3907C116.927 32.3434 116.881 32.3106 116.829 32.307L115.522 32.1869ZM115.357 27.0023L115.364 29.3199C115.366 29.3727 115.408 29.4145 115.461 29.4145L116.818 29.4109C117.5 29.4091 118.051 28.8542 118.049 28.172V28.1702V28.1302C118.046 27.448 117.493 26.8986 116.81 26.9005L115.453 26.9041C115.4 26.9041 115.357 26.9478 115.357 27.0005V27.0023Z" fill="#3A405A"/>
<path id="&#216;&#167;&#217;&#132;&#217;&#133;&#216;&#170;&#216;&#172;&#217;&#135; (&#217;&#129;&#217;&#138;&#217;&#131;&#216;&#170;&#217;&#136;&#216;&#177;)_15" d="M16.5006 28.3537L18.1742 29.1705C18.2052 29.185 18.2179 29.2232 18.2033 29.2523L17.2574 31.1915C17.2428 31.2225 17.2046 31.2352 17.1755 31.2206L15.5019 30.4038C15.471 30.3893 15.4583 30.3511 15.4728 30.322L16.4188 28.3828C16.4333 28.3518 16.4697 28.3391 16.5006 28.3537Z" fill="#3A405A"/>
<path id="&#216;&#167;&#217;&#132;&#217;&#133;&#216;&#170;&#216;&#172;&#217;&#135; (&#217;&#129;&#217;&#138;&#217;&#131;&#216;&#170;&#217;&#136;&#216;&#177;)_16" d="M15.218 37.0055C13.87 35.8104 12.844 34.3823 12.1418 32.7196C12.1145 32.6541 12.1273 32.5977 12.1818 32.5523L12.6985 32.112C12.7603 32.0593 12.8167 32.0647 12.8658 32.1284C13.6935 33.1744 14.6159 34.1276 15.6364 34.9899C15.6855 35.0318 15.7073 35.0973 15.6946 35.1609L15.3035 36.9783C15.298 37.0055 15.2707 37.0237 15.2416 37.0183C15.2325 37.0165 15.2253 37.011 15.218 37.0055Z" fill="#3A405A"/>
<path id="&#216;&#167;&#217;&#132;&#217;&#133;&#216;&#170;&#216;&#172;&#217;&#135; (&#217;&#129;&#217;&#138;&#217;&#131;&#216;&#170;&#217;&#136;&#216;&#177;)_17" d="M22.3238 32.083L24.0011 32.8943C24.032 32.9089 24.0466 32.9471 24.0302 32.9798L23.0897 34.9263C23.0751 34.9572 23.0369 34.9718 23.0042 34.9554L21.3269 34.1441C21.296 34.1295 21.2814 34.0913 21.2978 34.0586L22.2383 32.1121C22.2547 32.0812 22.2929 32.0666 22.3238 32.083Z" fill="#3A405A"/>
<path id="&#216;&#167;&#217;&#132;&#217;&#133;&#216;&#170;&#216;&#172;&#217;&#135; (&#217;&#129;&#217;&#138;&#217;&#131;&#216;&#170;&#217;&#136;&#216;&#177;)_18" d="M13.1931 36.7856L14.5738 37.9189C14.6175 37.9553 14.6229 38.019 14.5884 38.0626L13.2422 39.7017C13.2058 39.7454 13.1421 39.7508 13.0985 39.7163L11.7178 38.5829C11.6741 38.5465 11.6686 38.4829 11.7032 38.4392L13.0494 36.8002C13.0858 36.7547 13.1494 36.7492 13.1931 36.7856Z" fill="#3A405A"/>
<path id="&#216;&#167;&#217;&#132;&#217;&#133;&#216;&#170;&#216;&#172;&#217;&#135; (&#217;&#129;&#217;&#138;&#217;&#131;&#216;&#170;&#217;&#136;&#216;&#177;)_19" d="M12.8715 39.9199L14.2031 41.0259C14.2577 41.0714 14.2649 41.1515 14.2195 41.206L12.8988 42.796C12.8533 42.8505 12.7732 42.8578 12.7187 42.8123L11.387 41.7063C11.3325 41.6608 11.3252 41.5808 11.3707 41.5262L12.6914 39.9363C12.7369 39.8835 12.8169 39.8744 12.8715 39.9199Z" fill="#3A405A"/>
<path id="&#216;&#167;&#217;&#132;&#217;&#133;&#216;&#170;&#216;&#172;&#217;&#135; (&#217;&#129;&#217;&#138;&#217;&#131;&#216;&#170;&#217;&#136;&#216;&#177;)_20" d="M19.3129 41.8381C19.402 42.0018 19.6057 42.0618 19.7695 41.9727C19.8368 41.9363 19.8895 41.8781 19.9186 41.809L20.0987 41.3851C20.1206 41.3305 20.1824 41.3051 20.237 41.3269C20.2606 41.336 20.2807 41.356 20.2916 41.3796C20.4698 41.7508 21.072 43.2952 20.006 43.0478C19.1255 42.8459 18.5197 41.2887 18.3669 40.4974C18.3542 40.4446 18.3887 40.3918 18.4415 40.3791C18.4852 40.37 18.5306 40.39 18.5506 40.4319L19.3129 41.8381Z" fill="#3A405A"/>
</g>
<defs>
<clipPath id="clip0_652_5281">
<rect width="135.119" height="45.7627" fill="white" transform="translate(0.819336 0.273438)"/>
</clipPath>
</defs>
</svg>
