<svg width="77" height="33" viewBox="0 0 77 33" fill="none" xmlns="http://www.w3.org/2000/svg">
<path d="M6.51533 5.5099L7.04332 6.04235V7.63078H5.94089C5.86852 7.99975 5.7506 8.33834 5.58622 8.64745C5.42273 8.95656 5.20921 9.23439 4.94745 9.48275C4.68569 9.73111 4.35693 9.92587 3.96205 10.067C3.56718 10.2082 3.12496 10.2788 2.63449 10.2788C1.98233 10.2788 1.42039 10.2082 0.947793 10.067C0.844161 9.62212 0.792345 8.95477 0.792345 8.06496C1.20241 8.1266 1.675 8.15787 2.21014 8.15787C2.78637 8.15787 3.23574 8.11052 3.55825 8.01583C3.88076 7.92113 4.10946 7.77551 4.24347 7.57896C3.81911 7.55127 3.43585 7.51196 3.09458 7.46014C2.75331 7.40833 2.4174 7.32971 2.08864 7.22429C1.75898 7.11887 1.48293 6.99291 1.26048 6.84639C1.03802 6.69988 0.859348 6.51227 0.725341 6.28535C0.591334 6.05843 0.523438 5.79935 0.523438 5.509C0.523438 5.24367 0.565426 4.96226 0.650297 4.66565C0.735168 4.36905 0.861135 4.07692 1.03088 3.78835C1.19973 3.50069 1.39806 3.23982 1.62587 3.00665C1.85368 2.77348 2.12616 2.58587 2.44331 2.44293C2.76046 2.29999 3.09369 2.22852 3.44211 2.22852C3.76283 2.22852 4.05586 2.29195 4.32119 2.4197C4.58653 2.54745 4.80987 2.71451 4.99123 2.92178C5.17258 3.12904 5.33071 3.37829 5.4674 3.66954C5.60319 3.96078 5.7095 4.25559 5.78544 4.55398C5.86138 4.85237 5.92034 5.17041 5.96144 5.509H6.51533V5.5099ZM2.11812 4.98191C2.11812 5.12664 2.16011 5.23206 2.24498 5.29727C2.32985 5.36249 2.52639 5.41341 2.83461 5.45004C3.14283 5.48667 3.6324 5.50632 4.30154 5.5099C4.0773 4.73355 3.61364 4.34582 2.90965 4.34582C2.66844 4.34582 2.47547 4.40568 2.33253 4.5245C2.18959 4.64332 2.11812 4.79609 2.11812 4.9828V4.98191Z" fill="white"/>
<path d="M8.73536 5.51066L9.26335 6.04311V7.63154H6.9352L6.40186 7.10355V5.50977H8.73536V5.51066Z" fill="white"/>
<path d="M10.7482 8.37154C10.9411 8.51627 11.1511 8.69762 11.3771 8.91472C11.6031 9.13181 11.7988 9.34086 11.964 9.54098C11.5951 9.98588 11.1895 10.3736 10.7482 10.705C10.5034 10.5157 10.238 10.2825 9.95126 10.0064C9.61624 10.3307 9.3527 10.563 9.15973 10.705C8.63174 10.2977 8.22525 9.90994 7.93848 9.54098C8.07963 9.35783 8.26635 9.15772 8.49684 8.94062C8.72822 8.72353 8.94889 8.53324 9.15883 8.37154C9.33483 8.50287 9.59838 8.73693 9.95037 9.07552C10.2577 8.78249 10.523 8.54754 10.7473 8.37154H10.7482ZM9.26336 7.63093H9.15973L8.62727 7.10294V5.50915H8.68445C8.93281 5.50915 9.11863 5.42428 9.24102 5.25543C9.36342 5.08659 9.42506 4.78284 9.42506 4.34508V2.54492H11.386V4.87843C11.386 5.36443 11.3306 5.78878 11.2208 6.15149C11.11 6.51331 10.9572 6.80009 10.7607 7.01003C10.5641 7.22087 10.3408 7.37632 10.0906 7.47816C9.84048 7.58001 9.56532 7.63093 9.26514 7.63093H9.26336Z" fill="white"/>
<path d="M12.7554 5.19395C13.0904 5.31098 13.504 5.41104 13.9972 5.49413C14.4903 5.57721 14.9218 5.61831 15.2908 5.61831C15.6982 5.61831 16.0135 5.60401 16.2378 5.57453C16.462 5.54505 16.6094 5.50574 16.68 5.45571C16.7506 5.40568 16.7863 5.33957 16.7863 5.25649C16.7863 5.07692 16.5799 4.8768 16.1681 4.65614C15.7562 4.43547 15.1237 4.15584 14.2714 3.81815C14.3367 3.51082 14.4626 3.1499 14.6493 2.73448C14.8352 2.31906 15.0165 1.97332 15.1925 1.69727C15.6964 1.9626 16.1386 2.26456 16.5201 2.60226C16.9015 2.93995 17.1999 3.28569 17.4152 3.63947C17.6305 3.99325 17.7914 4.34077 17.8968 4.68205C18.0022 5.02332 18.0549 5.36012 18.0549 5.69067C18.0549 5.96315 18.0004 6.21866 17.8923 6.45629C17.7833 6.69393 17.6216 6.91013 17.4063 7.1031C17.191 7.29607 16.8998 7.44973 16.5344 7.56319C16.169 7.67665 15.7518 7.73383 15.2827 7.73383C14.4689 7.73383 13.6979 7.59446 12.9698 7.31483C12.8286 6.7529 12.7572 6.04534 12.7572 5.19395H12.7554Z" fill="white"/>
<path d="M24.676 5.5099L25.204 6.04235V7.63078H24.1015C24.0292 7.99975 23.9112 8.33834 23.7469 8.64745C23.5834 8.95656 23.3699 9.23439 23.1081 9.48275C22.8463 9.73111 22.5176 9.92587 22.1227 10.067C21.7278 10.2082 21.2856 10.2788 20.7951 10.2788C20.143 10.2788 19.581 10.2082 19.1084 10.067C19.0048 9.62212 18.953 8.95477 18.953 8.06496C19.363 8.1266 19.8356 8.15787 20.3708 8.15787C20.947 8.15787 21.3964 8.11052 21.7189 8.01583C22.0414 7.92113 22.2701 7.77551 22.4041 7.57896C21.9798 7.55127 21.5965 7.51196 21.2552 7.46014C20.914 7.40833 20.578 7.32971 20.2493 7.22429C19.9196 7.11887 19.6436 6.99291 19.4211 6.84639C19.1987 6.69988 19.02 6.51227 18.886 6.28535C18.752 6.05843 18.6841 5.79935 18.6841 5.509C18.6841 5.24367 18.7261 4.96226 18.8109 4.66565C18.8958 4.36905 19.0218 4.07692 19.1915 3.78835C19.3604 3.50069 19.5587 3.23982 19.7865 3.00665C20.0143 2.77348 20.2868 2.58587 20.604 2.44293C20.9211 2.29999 21.2543 2.22852 21.6028 2.22852C21.9235 2.22852 22.2165 2.29195 22.4818 2.4197C22.7472 2.54745 22.9705 2.71451 23.1519 2.92178C23.3332 3.12904 23.4914 3.37829 23.628 3.66954C23.7638 3.96078 23.8701 4.25559 23.9461 4.55398C24.022 4.85237 24.081 5.17041 24.1221 5.509H24.676V5.5099ZM20.2788 4.98191C20.2788 5.12664 20.3208 5.23206 20.4056 5.29727C20.4905 5.36249 20.687 5.41341 20.9953 5.45004C21.3035 5.48667 21.793 5.50632 22.4622 5.5099C22.2379 4.73355 21.7743 4.34582 21.0703 4.34582C20.8291 4.34582 20.6361 4.40568 20.4932 4.5245C20.3502 4.64332 20.2788 4.79609 20.2788 4.9828V4.98191Z" fill="white"/>
<path d="M25.462 2.64846C24.9447 2.24822 24.5391 1.8605 24.2461 1.48439C24.5391 1.10827 24.9447 0.720546 25.462 0.320312C25.6692 0.47576 25.9346 0.708038 26.2589 1.01893C26.5448 0.74288 26.811 0.510602 27.0558 0.320312C27.4971 0.651756 27.9027 1.03948 28.2717 1.48439C27.9027 1.92929 27.4971 2.31701 27.0558 2.64846C26.811 2.45906 26.5457 2.22589 26.2589 1.94984C25.9346 2.25984 25.6692 2.49301 25.462 2.64846ZM28.1117 5.50995L28.6442 6.04241V7.63083H28.5924C28.1921 7.63083 27.8795 7.50934 27.6534 7.26634C27.4274 7.02334 27.2666 6.63293 27.1701 6.09422C27.0183 6.62221 26.7699 7.00994 26.425 7.25829C26.0802 7.50665 25.671 7.63083 25.1984 7.63083H25.0948L24.5615 7.10285V5.50906H24.6186C24.867 5.50906 25.0528 5.42419 25.1752 5.25534C25.2976 5.08649 25.3592 4.78274 25.3592 4.34498V3.39264H27.3202V4.45308C27.3202 4.84617 27.3801 5.12044 27.4989 5.27589C27.6177 5.43134 27.8053 5.50906 28.0599 5.50906H28.1117V5.50995Z" fill="white"/>
<path d="M30.3364 5.51066L30.8644 6.04311V7.63154H28.5363L28.0029 7.10355V5.50977H30.3364V5.51066Z" fill="white"/>
<path d="M37.9115 2.54581H39.8725V4.98295C39.8725 5.46895 39.8171 5.89331 39.7072 6.25602C39.5964 6.61784 39.4436 6.90461 39.2471 7.11456C39.0506 7.32539 38.8272 7.48084 38.5771 7.58269C38.3269 7.68453 38.0518 7.73546 37.7516 7.73546H37.6479C37.2683 7.72474 36.9681 7.59877 36.7474 7.35488C36.5268 7.11188 36.3713 6.72772 36.282 6.20331C36.1301 6.7313 35.8817 7.11813 35.5369 7.3647C35.192 7.61128 34.7829 7.73456 34.3103 7.73456H34.2013C33.8118 7.72384 33.5071 7.59251 33.2883 7.3388C33.0694 7.08508 32.9148 6.68395 32.8255 6.13541C32.67 6.64911 32.4208 7.02701 32.0777 7.26822C31.7347 7.50943 31.33 7.63004 30.8645 7.63004H30.7609L30.2275 7.10205V5.50826H30.2847C30.5331 5.50826 30.7189 5.42339 30.8413 5.25454C30.9637 5.08569 31.0253 4.78194 31.0253 4.34419V3.39184H32.9863V4.55592C32.9863 4.949 33.0461 5.22417 33.165 5.3814C33.2838 5.53864 33.4714 5.61725 33.726 5.61725C33.9806 5.61725 34.1602 5.53238 34.2844 5.36353C34.4086 5.19468 34.4702 4.89094 34.4702 4.45318V3.39274H36.4258V4.55681C36.4258 4.9499 36.4866 5.22506 36.6072 5.38229C36.7278 5.53953 36.9163 5.61815 37.1709 5.61815C37.4255 5.61815 37.6042 5.53328 37.7275 5.36443C37.8498 5.19558 37.9115 4.89183 37.9115 4.45407V2.54492V2.54581Z" fill="white"/>
<path d="M40.9277 7.63125V0H42.8887V7.63125H40.9277Z" fill="white"/>
<path d="M8.77752 20.1974L9.30998 20.7299V22.3183H8.93744C8.19236 22.3183 7.65991 21.9824 7.33829 21.3097C7.21054 21.6545 7.02382 21.9261 6.77725 22.1244C6.53067 22.3227 6.25373 22.4219 5.9473 22.4219C5.32282 22.4219 4.70193 22.0342 4.0846 21.2578H3.42797C3.19658 21.2578 3.03309 21.3025 2.93661 21.3927C2.84012 21.4821 2.79188 21.6357 2.79188 21.8528C2.79188 22.3906 2.96788 23.3242 3.31987 24.6518H1.67873C1.14717 23.2242 0.881836 22.1217 0.881836 21.3454C0.881836 21.0318 0.919358 20.7477 0.993508 20.494C1.06766 20.2403 1.1838 20.0134 1.34282 19.8132C1.50184 19.6131 1.71357 19.455 1.97891 19.3398C2.24424 19.2245 2.55871 19.1575 2.92053 19.1405C2.96162 18.9306 3.0188 18.7251 3.09116 18.525C3.16353 18.3249 3.26091 18.1257 3.3833 17.9273C3.50569 17.729 3.64595 17.5566 3.80497 17.4101C3.96399 17.2635 4.15607 17.1447 4.3821 17.0527C4.60812 16.9616 4.85201 16.916 5.11467 16.916C5.46308 16.916 5.78023 16.9893 6.06701 17.1358C6.35289 17.2823 6.59142 17.4833 6.78082 17.7388C6.97022 17.9943 7.12298 18.2847 7.23823 18.6108C7.35348 18.9368 7.43209 19.2897 7.47319 19.6685C7.51786 19.8579 7.61166 19.9937 7.7555 20.075C7.89844 20.1563 8.11642 20.1965 8.41034 20.1965H8.77752V20.1974ZM5.33712 20.7299C5.68911 20.7299 5.86511 20.4904 5.86511 20.0107C5.86511 19.8695 5.85617 19.7462 5.8392 19.6408C5.82222 19.5354 5.79095 19.4336 5.74629 19.3353C5.70162 19.237 5.63283 19.162 5.53902 19.1102C5.44611 19.0583 5.32818 19.0324 5.18703 19.0324C4.79394 19.0324 4.44017 19.2415 4.12659 19.6587C4.43034 20.0929 4.66083 20.3805 4.81985 20.5199C4.97887 20.6593 5.1513 20.7299 5.33712 20.7299Z" fill="white"/>
<path d="M11.0015 20.1982L11.5295 20.7306V22.319H9.20132L8.66797 21.7911V20.1973H11.0015V20.1982Z" fill="white"/>
<path d="M13.2275 20.1982L13.7555 20.7306V22.319H11.4274L10.894 21.7911V20.1973H13.2275V20.1982Z" fill="white"/>
<path d="M15.4518 20.1982L15.9797 20.7306V22.319H13.6516L13.1191 21.7911V20.1973H15.4526L15.4518 20.1982Z" fill="white"/>
<path d="M17.6763 20.1982L18.2043 20.7306V22.319H15.8761L15.3428 21.7911V20.1973H17.6763V20.1982Z" fill="white"/>
<path d="M19.9019 20.1982L20.4299 20.7306V22.319H18.1017L17.5684 21.7911V20.1973H19.9019V20.1982Z" fill="white"/>
<path d="M22.1261 20.1982L22.6541 20.7306V22.319H20.3259L19.7935 21.7911V20.1973H22.127L22.1261 20.1982Z" fill="white"/>
<path d="M24.3506 20.1982L24.8786 20.7306V22.319H22.5504L22.0171 21.7911V20.1973H24.3506V20.1982Z" fill="white"/>
<path d="M26.5763 20.1982L27.1043 20.7306V22.319H24.7761L24.2437 21.7911V20.1973H26.5772L26.5763 20.1982Z" fill="white"/>
<path d="M28.8004 20.1982L29.3284 20.7306V22.319H27.0002L26.4678 21.7911V20.1973H28.8013L28.8004 20.1982Z" fill="white"/>
<path d="M31.0249 20.1982L31.5529 20.7306V22.319H29.2248L28.6914 21.7911V20.1973H31.0249V20.1982Z" fill="white"/>
<path d="M33.2496 20.1982L33.7776 20.7306V22.319H31.4494L30.917 21.7911V20.1973H33.2505L33.2496 20.1982Z" fill="white"/>
<path d="M37.0635 15.1123C37.3529 15.1123 37.62 15.1578 37.863 15.249C38.106 15.3401 38.316 15.4634 38.492 15.6188C38.668 15.7743 38.8234 15.9619 38.9601 16.1826C39.0959 16.4032 39.2085 16.6346 39.296 16.8758C39.3836 17.117 39.4559 17.377 39.5104 17.6548C39.5658 17.9327 39.6042 18.2007 39.6266 18.4598C39.6489 18.7189 39.6605 18.9806 39.6605 19.246C39.6605 19.5667 39.623 19.8731 39.547 20.1643C39.4711 20.4556 39.3469 20.7343 39.1745 20.9997C39.0021 21.265 38.7868 21.4946 38.5277 21.6876C38.2686 21.8805 37.9452 22.0342 37.5575 22.1476C37.1698 22.2611 36.7356 22.3183 36.2558 22.3183H33.674L33.1406 21.7903V20.1965H35.836C36.2773 20.1965 36.6498 20.1697 36.9536 20.1161C37.2573 20.0625 37.4869 19.9848 37.6441 19.8829C37.8014 19.7811 37.9113 19.6721 37.9756 19.5542C38.039 19.4371 38.0712 19.3022 38.0712 19.1504C38.0712 19.0744 38.064 18.9502 38.0506 18.7778C37.8818 18.9779 37.6656 19.1513 37.4012 19.2978C37.1376 19.4443 36.8624 19.5515 36.5757 19.6185C36.2889 19.6855 36.0003 19.7096 35.7091 19.6909C35.4178 19.6721 35.157 19.6096 34.9274 19.505C34.6978 19.3996 34.5111 19.2334 34.3663 19.0056C34.2216 18.7778 34.1493 18.5036 34.1493 18.1828C34.1493 17.9211 34.1903 17.6486 34.2734 17.3654C34.3565 17.0822 34.4825 16.807 34.6513 16.5372C34.8202 16.2683 35.0185 16.028 35.2463 15.8154C35.4741 15.6036 35.7457 15.4321 36.0611 15.3035C36.3764 15.1739 36.7106 15.1096 37.0626 15.1096L37.0635 15.1123ZM36.2719 14.3726C35.7439 13.9652 35.3374 13.5775 35.0507 13.2085C35.1918 13.0254 35.3785 12.8252 35.609 12.6081C35.8404 12.3911 36.0611 12.2008 36.271 12.0391C36.447 12.1704 36.7106 12.4045 37.0626 12.743C37.3699 12.45 37.6352 12.2151 37.8595 12.0391C38.0524 12.1838 38.2624 12.3651 38.4884 12.5822C38.7144 12.7993 38.9101 13.0084 39.0753 13.2085C38.7064 13.6534 38.3008 14.0411 37.8595 14.3726C37.6147 14.1832 37.3493 13.95 37.0626 13.6739C36.7275 13.9982 36.464 14.2314 36.271 14.3726H36.2719ZM35.7386 17.8701C35.7386 18.0077 35.7931 18.1087 35.9012 18.173C36.0102 18.2364 36.2246 18.2757 36.5453 18.2891C36.866 18.3025 37.3181 18.2757 37.9005 18.2061C37.7898 17.913 37.6218 17.6772 37.3958 17.4994C37.1698 17.3216 36.883 17.2332 36.5346 17.2332C36.2898 17.2332 36.0959 17.293 35.9521 17.4118C35.8091 17.5307 35.7377 17.6834 35.7377 17.8693L35.7386 17.8701Z" fill="white"/>
<path d="M39.9761 22.6357C40.169 22.6357 40.32 22.6215 40.429 22.592C40.538 22.5625 40.6336 22.4982 40.7158 22.3981C40.7989 22.298 40.8543 22.1569 40.8837 21.9738C40.9132 21.7906 40.9275 21.5422 40.9275 21.2287V17.2344H42.8885V21.7048C42.8885 22.709 42.6464 23.4612 42.1613 23.9633C41.6771 24.4654 41.0017 24.7298 40.136 24.7575C40.0288 24.2537 39.9761 23.547 39.9761 22.6366V22.6357Z" fill="white"/>
<path d="M4.84435 30.7083C4.84435 30.4233 4.74429 30.1982 4.54418 30.032C4.34406 29.8659 3.97777 29.7086 3.44532 29.5586C2.91287 29.4094 2.52425 29.2459 2.27946 29.069C1.93104 28.8197 1.75683 28.4919 1.75683 28.0863C1.75683 27.6807 1.91854 27.3734 2.24283 27.1268C2.56624 26.8811 2.98076 26.7578 3.48463 26.7578C3.8259 26.7578 4.13144 26.8239 4.40124 26.9552C4.67104 27.0875 4.88009 27.2706 5.02839 27.5065C5.17669 27.7423 5.25084 28.005 5.25084 28.2944H4.81308C4.81308 27.9424 4.69337 27.6592 4.45305 27.4457C4.21273 27.2322 3.89022 27.125 3.48463 27.125C3.07904 27.125 2.77797 27.2125 2.54479 27.3885C2.31162 27.5645 2.19459 27.7941 2.19459 28.0764C2.19459 28.3382 2.29912 28.5517 2.50906 28.717C2.719 28.8823 3.05402 29.0279 3.5159 29.1539C3.97778 29.2798 4.32709 29.4111 4.56562 29.546C4.80415 29.6809 4.98283 29.8435 5.10254 30.032C5.22225 30.2205 5.283 30.443 5.283 30.7003C5.283 31.1059 5.1213 31.4302 4.797 31.6759C4.47271 31.9206 4.04657 32.043 3.5159 32.043C3.15319 32.043 2.81996 31.9778 2.51799 31.8483C2.21514 31.7187 1.98554 31.5374 1.8292 31.3042C1.67286 31.071 1.59424 30.8039 1.59424 30.502H2.02842C2.02842 30.8647 2.16421 31.1506 2.43491 31.3605C2.7056 31.5704 3.06653 31.675 3.5159 31.675C3.91613 31.675 4.23775 31.5865 4.48075 31.4096C4.72375 31.2327 4.84435 30.9987 4.84435 30.7065V30.7083Z" fill="white"/>
<path d="M9.71003 27.1953H7.9465V31.9722H7.51142V27.1953H5.75146V26.8281H9.70914V27.1953H9.71003Z" fill="white"/>
<path d="M14.0837 26.8271V30.3389C14.081 30.6856 14.0051 30.9866 13.8541 31.243C13.7031 31.4994 13.4905 31.6969 13.2162 31.8345C12.9419 31.972 12.6266 32.0408 12.271 32.0408C11.7287 32.0408 11.2954 31.8934 10.9694 31.5977C10.6433 31.302 10.4744 30.8928 10.4619 30.3702V26.8262H10.8934V30.3068C10.8934 30.7401 11.0167 31.0769 11.2642 31.3154C11.5116 31.5548 11.8475 31.6736 12.271 31.6736C12.6945 31.6736 13.0304 31.5539 13.2761 31.3136C13.5217 31.0733 13.645 30.7392 13.645 30.3104V26.8262H14.0828L14.0837 26.8271Z" fill="white"/>
<path d="M15.2959 31.9731V26.8281H16.7342C17.1559 26.8281 17.5338 26.9237 17.8688 27.1158C18.203 27.3079 18.4638 27.583 18.6514 27.9404C18.839 28.2986 18.932 28.706 18.932 29.1625V29.636C18.932 30.0952 18.839 30.5026 18.6532 30.8582C18.4674 31.2137 18.2047 31.488 17.867 31.6819C17.5293 31.8748 17.1407 31.9713 16.703 31.9713H15.2968L15.2959 31.9731ZM15.7301 27.1962V31.6059H16.7057C17.247 31.6059 17.6821 31.4263 18.0091 31.0663C18.3361 30.7072 18.5005 30.2203 18.5005 29.6074V29.1545C18.5005 28.5631 18.3387 28.0887 18.0162 27.7331C17.6937 27.3776 17.2685 27.198 16.7405 27.1953H15.7301V27.1962Z" fill="white"/>
<path d="M20.5646 31.9731H20.1304V26.8281H20.5646V31.9731Z" fill="white"/>
<path d="M25.7618 29.6801C25.7618 30.1535 25.6797 30.569 25.5162 30.9272C25.3527 31.2855 25.1186 31.5606 24.8149 31.7536C24.5111 31.9466 24.16 32.043 23.7616 32.043C23.1612 32.043 22.6752 31.8277 22.3063 31.398C21.9364 30.9683 21.7515 30.3876 21.7515 29.6577V29.1279C21.7515 28.6589 21.8345 28.2444 22.0007 27.8826C22.1669 27.5208 22.4018 27.2429 22.7056 27.0491C23.0093 26.8552 23.3595 26.7578 23.7553 26.7578C24.1511 26.7578 24.5004 26.8534 24.8032 27.0437C25.1061 27.2349 25.3393 27.5047 25.5046 27.8531C25.6698 28.2015 25.7556 28.6053 25.7627 29.0654V29.6801H25.7618ZM25.3268 29.1217C25.3268 28.5026 25.1865 28.0166 24.906 27.6664C24.6255 27.3153 24.2413 27.1402 23.7544 27.1402C23.2675 27.1402 22.895 27.3162 22.6118 27.6682C22.3277 28.0202 22.1856 28.5124 22.1856 29.1431V29.6801C22.1856 30.2902 22.3268 30.7736 22.61 31.1309C22.8923 31.4874 23.2765 31.666 23.7616 31.666C24.2467 31.666 24.638 31.49 24.9131 31.1381C25.1883 30.7861 25.3268 30.2956 25.3268 29.6667V29.1226V29.1217Z" fill="white"/>
<path d="M30.3626 29.8261H28.8679V31.9711H28.4302V26.8262H30.1017C30.6502 26.8262 31.079 26.9593 31.3882 27.2246C31.6964 27.4908 31.8509 27.8625 31.8509 28.3396C31.8509 28.6692 31.7544 28.9596 31.5615 29.2115C31.3685 29.4634 31.1094 29.6376 30.7842 29.7341L32.0707 31.9247V31.9702H31.6079L30.3643 29.8252L30.3626 29.8261ZM28.8679 29.459H30.2C30.5654 29.459 30.8584 29.3553 31.0799 29.1472C31.3015 28.9399 31.4123 28.671 31.4123 28.3404C31.4123 27.9768 31.297 27.6954 31.0656 27.4944C30.8352 27.2943 30.5109 27.1933 30.0936 27.1933H28.8679V29.4581V29.459Z" fill="white"/>
<path d="M36.8217 29.6783C36.8217 30.1678 36.7351 30.5949 36.5618 30.9594C36.3884 31.323 36.1419 31.5981 35.8212 31.784L36.7574 32.6005L36.4572 32.8694L35.4075 31.9617C35.2145 32.0162 35.018 32.043 34.817 32.043C34.4257 32.043 34.0782 31.9466 33.7726 31.7536C33.4671 31.5606 33.2312 31.2864 33.0642 30.9317C32.8971 30.577 32.8123 30.1678 32.8096 29.7042V29.1279C32.8096 28.6589 32.8927 28.2444 33.0588 27.8826C33.225 27.5208 33.46 27.2429 33.7637 27.0491C34.0674 26.8552 34.4159 26.7578 34.8098 26.7578C35.2038 26.7578 35.5621 26.8543 35.8667 27.0473C36.1705 27.2402 36.4054 27.5172 36.5716 27.8772C36.7378 28.2372 36.8208 28.6536 36.8208 29.1244V29.6792L36.8217 29.6783ZM36.3867 29.1199C36.3867 28.5008 36.2464 28.0148 35.9659 27.6646C35.6854 27.3135 35.3003 27.1384 34.8107 27.1384C34.3212 27.1384 33.9549 27.3144 33.6717 27.6664C33.3876 28.0184 33.2455 28.5106 33.2455 29.1414V29.6783C33.2455 30.2884 33.3867 30.7718 33.6681 31.1291C33.9495 31.4856 34.3328 31.6643 34.8179 31.6643C35.303 31.6643 35.6916 31.4891 35.9695 31.1381C36.2473 30.787 36.3867 30.2974 36.3867 29.6684V29.1208V29.1199Z" fill="white"/>
<path d="M38.5066 26.826L40.4041 31.3662L42.3088 26.826H42.8886V31.971H42.4544V29.7304L42.4902 27.4335L40.5747 31.9701H40.2388L38.3306 27.4505L38.3663 29.7152V31.9692H37.9321V26.8242H38.5084L38.5066 26.826Z" fill="white"/>
<g clip-path="url(#clip0_2093_5105)">
<path d="M48.8896 24.3945V20.8441C48.8896 15.2904 51.5741 12.3691 56.7855 12.3691C61.9969 12.3691 64.7078 15.2904 64.7078 20.8441V24.3945C64.7078 29.9737 62.0233 32.8695 56.8119 32.8695C51.6005 32.8695 48.8896 29.9747 48.8896 24.3945ZM59.0229 25V20.2386C59.0229 18.0804 58.2598 17.107 56.8119 17.107C55.364 17.107 54.5745 18.0804 54.5745 20.2386V25C54.5745 27.1582 55.364 28.1316 56.8119 28.1316C58.2598 28.1316 59.0229 27.1572 59.0229 25Z" fill="white"/>
<path d="M48.7554 0.955032V-2.59532C48.7554 -8.1491 51.4398 -11.0703 56.6512 -11.0703C61.8626 -11.0703 64.5735 -8.1491 64.5735 -2.59532V0.955032C64.5735 6.53429 61.889 9.43003 56.6776 9.43003C51.4662 9.43003 48.7554 6.53523 48.7554 0.955032ZM58.8886 1.56059V-3.20088C58.8886 -5.359 58.1255 -6.33243 56.6776 -6.33243C55.2298 -6.33243 54.4403 -5.359 54.4403 -3.20088V1.56059C54.4403 3.71872 55.2298 4.69214 56.6776 4.69214C58.1255 4.69214 58.8886 3.71778 58.8886 1.56059Z" fill="white"/>
<path d="M70.4861 2.05273L66.832 7.59049H71.0332V6.90758H68.0762L71.0625 2.41965L70.4861 2.05273Z" fill="white"/>
<path d="M76.6753 2.05273V24.017H70.4849V2.05273H76.6753Z" fill="white"/>
<path d="M70.4861 2.05273L66.832 7.59049H70.4861V2.05273Z" fill="white"/>
<path d="M70.3514 27.6484L66.6973 33.1862H70.8985V32.5033H67.9414L70.9277 28.0154L70.3514 27.6484Z" fill="white"/>
<path d="M76.5406 27.6484V49.6127H70.3501V27.6484H76.5406Z" fill="white"/>
<path d="M70.3514 27.6484L66.6973 33.1862H70.3514V27.6484Z" fill="white"/>
</g>
<defs>
<clipPath id="clip0_2093_5105">
<rect width="27.7859" height="30.8165" fill="white" transform="translate(48.8896 2.05273)"/>
</clipPath>
</defs>
</svg>
