<svg width="80" height="36" viewBox="0 0 80 36" fill="none" xmlns="http://www.w3.org/2000/svg">
<g clip-path="url(#clip0_825_6740)">
<path d="M52.0283 26.1248V22.5615C52.0283 16.9875 54.7226 14.0557 59.9529 14.0557C65.1833 14.0557 67.9041 16.9875 67.9041 22.5615V26.1248C67.9041 31.7244 65.2098 34.6307 59.9795 34.6307C54.7491 34.6307 52.0283 31.7254 52.0283 26.1248ZM62.1985 26.7326V21.9538C62.1985 19.7878 61.4326 18.8108 59.9795 18.8108C58.5263 18.8108 57.7339 19.7878 57.7339 21.9538V26.7326C57.7339 28.8986 58.5263 29.8756 59.9795 29.8756C61.4326 29.8756 62.1985 28.8977 62.1985 26.7326Z" fill="white"/>
<path d="M62.1494 3.70215C61.9601 5.26227 61.2207 5.97606 59.9787 5.97606C58.7367 5.97606 57.9784 5.26227 57.7843 3.70215H52.0967C52.5454 8.33518 55.2065 10.7312 59.9787 10.7312C64.7509 10.7312 67.3855 8.33518 67.8342 3.70215H62.1485H62.1494Z" fill="white"/>
<path d="M73.7036 3.70312L70.0361 9.26106H74.2526V8.57567H71.2848L74.282 4.07138L73.7036 3.70312Z" fill="white"/>
<path d="M79.9152 3.70312V25.7474H73.7021V3.70312H79.9152Z" fill="white"/>
<path d="M73.7036 3.70312L70.0361 9.26106H73.7036V3.70312Z" fill="white"/>
<path d="M73.7026 29.0732L70.0361 34.6312H73.7026H79.9156V29.0732H73.7026Z" fill="white"/>
<path d="M9.27005 9.06796L9.83426 9.63218V11.3154H9.4395C8.64997 11.3154 8.08575 10.9594 7.74495 10.2466C7.60957 10.612 7.41172 10.8998 7.15044 11.1099C6.88915 11.3201 6.59568 11.4252 6.27097 11.4252C5.60925 11.4252 4.95131 11.0143 4.29715 10.1917H3.60135C3.35616 10.1917 3.18292 10.239 3.08068 10.3346C2.97843 10.4293 2.92731 10.5921 2.92731 10.8222C2.92731 11.3921 3.11381 12.3813 3.4868 13.7881H1.74776C1.18448 12.2753 0.90332 11.1071 0.90332 10.2844C0.90332 9.95216 0.943081 9.65111 1.02165 9.38226C1.10023 9.1134 1.2233 8.87295 1.39181 8.66089C1.56031 8.44884 1.78468 8.28127 2.06584 8.15915C2.347 8.03703 2.68023 7.96603 3.06364 7.94804C3.10718 7.72557 3.16777 7.50784 3.24445 7.29578C3.32113 7.08373 3.42432 6.87262 3.55401 6.66246C3.68371 6.4523 3.83234 6.26959 4.00084 6.11433C4.16935 5.95908 4.37289 5.83317 4.6124 5.73566C4.85191 5.6391 5.11035 5.59082 5.38867 5.59082C5.75788 5.59082 6.09395 5.66845 6.39783 5.8237C6.70077 5.97896 6.95353 6.19196 7.15422 6.46271C7.35492 6.73346 7.5168 7.04113 7.63892 7.38666C7.76104 7.7322 7.84435 8.10614 7.8879 8.50753C7.93523 8.70823 8.03463 8.85212 8.18705 8.93827C8.33852 9.02441 8.5695 9.06701 8.88096 9.06701H9.27005V9.06796ZM5.62439 9.63218C5.99738 9.63218 6.18388 9.37847 6.18388 8.87011C6.18388 8.72053 6.17441 8.58989 6.15643 8.47818C6.13844 8.36647 6.10531 8.25855 6.05797 8.15442C6.01064 8.05028 5.93774 7.97076 5.83834 7.91586C5.73989 7.86095 5.61493 7.8335 5.46535 7.8335C5.04882 7.8335 4.67393 8.05502 4.34165 8.49712C4.66352 8.9572 4.90776 9.26203 5.07627 9.40971C5.24478 9.55739 5.42749 9.63218 5.62439 9.63218Z" fill="white"/>
<path d="M11.627 9.06833L12.1865 9.63255V11.3157H9.71946L9.1543 10.7563V9.06738H11.627V9.06833Z" fill="white"/>
<path d="M13.9854 9.06833L14.5449 9.63255V11.3157H12.0779L11.5127 10.7563V9.06738H13.9854V9.06833Z" fill="white"/>
<path d="M16.3429 9.06833L16.9024 9.63255V11.3157H14.4353L13.8711 10.7563V9.06738H16.3438L16.3429 9.06833Z" fill="white"/>
<path d="M18.7003 9.06833L19.2597 9.63255V11.3157H16.7927L16.2275 10.7563V9.06738H18.7003V9.06833Z" fill="white"/>
<path d="M21.0582 9.06833L21.6177 9.63255V11.3157H19.1506L18.5854 10.7563V9.06738H21.0582V9.06833Z" fill="white"/>
<path d="M23.4151 9.06833L23.9746 9.63255V11.3157H21.5076L20.9434 10.7563V9.06738H23.4161L23.4151 9.06833Z" fill="white"/>
<path d="M25.7725 9.06833L26.332 9.63255V11.3157H23.865L23.2998 10.7563V9.06738H25.7725V9.06833Z" fill="white"/>
<path d="M28.131 9.06833L28.6904 9.63255V11.3157H26.2234L25.6592 10.7563V9.06738H28.1319L28.131 9.06833Z" fill="white"/>
<path d="M30.4879 9.06833L31.0474 9.63255V11.3157H28.5803L28.0161 10.7563V9.06738H30.4888L30.4879 9.06833Z" fill="white"/>
<path d="M32.8453 9.06833L33.4048 9.63255V11.3157H30.9377L30.3726 10.7563V9.06738H32.8453V9.06833Z" fill="white"/>
<path d="M35.2022 9.06833L35.7617 9.63255V11.3157H33.2947L32.7305 10.7563V9.06738H35.2032L35.2022 9.06833Z" fill="white"/>
<path d="M39.2438 3.67844C39.5505 3.67844 39.8335 3.72672 40.091 3.82328C40.3485 3.91984 40.571 4.05048 40.7575 4.21521C40.944 4.37993 41.1087 4.57873 41.2536 4.81256C41.3975 5.04639 41.5167 5.29158 41.6095 5.54718C41.7023 5.80278 41.779 6.07826 41.8367 6.37268C41.8954 6.6671 41.9361 6.9511 41.9598 7.22564C41.9834 7.50017 41.9958 7.77755 41.9958 8.05871C41.9958 8.39857 41.956 8.72328 41.8755 9.03189C41.7951 9.34051 41.6635 9.63587 41.4808 9.91704C41.2981 10.1982 41.0699 10.4415 40.7954 10.646C40.5208 10.8505 40.1781 11.0133 39.7673 11.1335C39.3564 11.2537 38.8963 11.3143 38.388 11.3143H35.6521L35.0869 10.7548V9.06597H37.943C38.4107 9.06597 38.8055 9.03757 39.1273 8.98077C39.4492 8.92397 39.6925 8.84161 39.8591 8.73369C40.0257 8.62577 40.1422 8.51028 40.2103 8.38531C40.2775 8.2613 40.3116 8.11835 40.3116 7.95742C40.3116 7.87695 40.304 7.74536 40.2898 7.56265C40.1109 7.77471 39.8818 7.95836 39.6016 8.11362C39.3223 8.26887 39.0308 8.38247 38.7269 8.45347C38.423 8.52448 38.1172 8.55004 37.8086 8.53016C37.5 8.51028 37.2236 8.44401 36.9803 8.33325C36.737 8.22154 36.5391 8.04546 36.3858 7.80406C36.2324 7.56265 36.1557 7.27202 36.1557 6.93217C36.1557 6.65479 36.1993 6.36605 36.2873 6.06596C36.3753 5.76586 36.5088 5.47428 36.6877 5.18839C36.8667 4.90344 37.0768 4.64878 37.3182 4.42347C37.5596 4.19911 37.8474 4.01735 38.1816 3.88103C38.5158 3.74376 38.8698 3.6756 39.2428 3.6756L39.2438 3.67844ZM38.405 2.89459C37.8455 2.46291 37.4148 2.05205 37.1109 1.66107C37.2605 1.46701 37.4583 1.25495 37.7026 1.02491C37.9478 0.794865 38.1816 0.593223 38.4041 0.421875C38.5906 0.561036 38.8698 0.809066 39.2428 1.16786C39.5685 0.857346 39.8496 0.60837 40.0873 0.421875C40.2917 0.575237 40.5142 0.767412 40.7537 0.997454C40.9932 1.2275 41.2006 1.44902 41.3757 1.66107C40.9847 2.13252 40.5549 2.54338 40.0873 2.89459C39.8279 2.6939 39.5467 2.44682 39.2428 2.15429C38.8878 2.49794 38.6085 2.74502 38.4041 2.89459H38.405ZM37.8398 6.60083C37.8398 6.74662 37.8976 6.85359 38.0121 6.92175C38.1276 6.98897 38.3548 7.03062 38.6947 7.04482C39.0346 7.05902 39.5136 7.03062 40.1308 6.95678C40.0134 6.64627 39.8354 6.39635 39.5959 6.20796C39.3564 6.01957 39.0525 5.92585 38.6833 5.92585C38.4239 5.92585 38.2185 5.98928 38.0661 6.11518C37.9146 6.24109 37.8389 6.40297 37.8389 6.59988L37.8398 6.60083Z" fill="white"/>
<path d="M42.3301 11.6504C42.5346 11.6504 42.6945 11.6352 42.81 11.604C42.9255 11.5727 43.0268 11.5046 43.1139 11.3985C43.202 11.2925 43.2607 11.1429 43.2919 10.9489C43.3231 10.7548 43.3383 10.4916 43.3383 10.1593V5.92676H45.4162V10.6639C45.4162 11.728 45.1597 12.5251 44.6456 13.0571C44.1325 13.5892 43.4169 13.8694 42.4995 13.8987C42.3859 13.3648 42.3301 12.616 42.3301 11.6513V11.6504Z" fill="white"/>
<path d="M6.87377 21.4693L7.43326 22.0335V23.7167H6.26506C6.18838 24.1077 6.06342 24.4665 5.88923 24.7941C5.71598 25.1216 5.48973 25.416 5.21235 25.6792C4.93498 25.9424 4.5866 26.1487 4.16817 26.2983C3.74974 26.4479 3.28113 26.5227 2.76141 26.5227C2.07034 26.5227 1.47488 26.4479 0.974085 26.2983C0.864271 25.8269 0.809364 25.1197 0.809364 24.1768C1.24389 24.2421 1.74468 24.2753 2.31174 24.2753C2.92234 24.2753 3.39852 24.2251 3.74027 24.1248C4.08202 24.0244 4.32437 23.8701 4.46637 23.6618C4.0167 23.6325 3.61058 23.5908 3.24895 23.5359C2.88732 23.481 2.53137 23.3977 2.18299 23.286C1.83367 23.1743 1.54114 23.0408 1.30542 22.8856C1.0697 22.7303 0.880364 22.5315 0.738363 22.291C0.596361 22.0506 0.524414 21.7761 0.524414 21.4684C0.524414 21.1872 0.568908 20.889 0.658842 20.5747C0.748776 20.2604 0.882258 19.9509 1.06213 19.6451C1.24105 19.3403 1.45121 19.0638 1.69261 18.8167C1.93401 18.5697 2.22275 18.3709 2.55882 18.2194C2.89489 18.0679 3.248 17.9922 3.6172 17.9922C3.95706 17.9922 4.26757 18.0594 4.54873 18.1948C4.8299 18.3302 5.06657 18.5072 5.25874 18.7268C5.45092 18.9464 5.61848 19.2106 5.76332 19.5192C5.90721 19.8278 6.01987 20.1402 6.10034 20.4564C6.1808 20.7726 6.24328 21.1096 6.28683 21.4684H6.87377V21.4693ZM2.21423 20.9098C2.21423 21.0632 2.25872 21.1749 2.34866 21.244C2.43859 21.3131 2.64686 21.3671 2.97346 21.4059C3.30007 21.4447 3.81885 21.4655 4.52791 21.4693C4.29029 20.6467 3.79897 20.2358 3.05299 20.2358C2.79738 20.2358 2.5929 20.2992 2.44143 20.4251C2.28996 20.5511 2.21423 20.7129 2.21423 20.9108V20.9098Z" fill="white"/>
<path d="M9.22662 21.4697L9.78611 22.0339V23.7171H7.31907L6.75391 23.1576V21.4688H9.22662V21.4697Z" fill="white"/>
<path d="M11.3591 24.5014C11.5636 24.6547 11.7861 24.8469 12.0256 25.0769C12.2651 25.307 12.4724 25.5285 12.6476 25.7406C12.2566 26.212 11.8268 26.6229 11.3591 26.9741C11.0997 26.7734 10.8186 26.5263 10.5147 26.2338C10.1597 26.5774 9.88042 26.8236 9.67594 26.9741C9.11646 26.5424 8.68572 26.1315 8.38184 25.7406C8.53141 25.5465 8.72927 25.3344 8.97351 25.1044C9.2187 24.8744 9.45253 24.6727 9.675 24.5014C9.86149 24.6405 10.1408 24.8886 10.5138 25.2473C10.8394 24.9368 11.1206 24.6879 11.3582 24.5014H11.3591ZM9.78576 23.7166H9.67594L9.11172 23.1571V21.4682H9.17231C9.43549 21.4682 9.6324 21.3783 9.76209 21.1994C9.89178 21.0204 9.9571 20.6986 9.9571 20.2347V18.3271H12.0351V20.7999C12.0351 21.3149 11.9764 21.7645 11.8599 22.1489C11.7425 22.5323 11.5807 22.8362 11.3724 23.0586C11.1641 23.2821 10.9274 23.4468 10.6624 23.5547C10.3973 23.6626 10.1057 23.7166 9.78765 23.7166H9.78576Z" fill="white"/>
<path d="M13.4868 21.135C13.8418 21.259 14.2801 21.365 14.8027 21.4531C15.3253 21.5411 15.7825 21.5846 16.1735 21.5846C16.6052 21.5846 16.9393 21.5695 17.177 21.5383C17.4146 21.507 17.5708 21.4654 17.6456 21.4124C17.7204 21.3593 17.7582 21.2893 17.7582 21.2012C17.7582 21.011 17.5395 20.7989 17.1031 20.5651C16.6667 20.3312 15.9965 20.0349 15.0933 19.6771C15.1624 19.3514 15.2959 18.969 15.4938 18.5288C15.6907 18.0886 15.8829 17.7222 16.0693 17.4297C16.6033 17.7109 17.0719 18.0308 17.4761 18.3887C17.8803 18.7465 18.1965 19.1129 18.4247 19.4878C18.6528 19.8626 18.8232 20.2309 18.9349 20.5925C19.0466 20.9542 19.1025 21.3111 19.1025 21.6613C19.1025 21.9501 19.0448 22.2208 18.9302 22.4726C18.8147 22.7244 18.6434 22.9535 18.4152 23.158C18.1871 23.3625 17.8784 23.5253 17.4913 23.6456C17.1041 23.7658 16.662 23.8264 16.165 23.8264C15.3025 23.8264 14.4856 23.6787 13.714 23.3824C13.5644 22.7869 13.4887 22.0372 13.4887 21.135H13.4868Z" fill="white"/>
<path d="M26.1184 21.4693L26.6779 22.0335V23.7167H25.5097C25.433 24.1077 25.308 24.4665 25.1339 24.7941C24.9606 25.1216 24.7344 25.416 24.457 25.6792C24.1796 25.9424 23.8312 26.1487 23.4128 26.2983C22.9944 26.4479 22.5258 26.5227 22.006 26.5227C21.315 26.5227 20.7195 26.4479 20.2187 26.2983C20.1089 25.8269 20.054 25.1197 20.054 24.1768C20.4885 24.2421 20.9893 24.2753 21.5564 24.2753C22.167 24.2753 22.6432 24.2251 22.9849 24.1248C23.3267 24.0244 23.569 23.8701 23.711 23.6618C23.2613 23.6325 22.8552 23.5908 22.4936 23.5359C22.1319 23.481 21.776 23.3977 21.4276 23.286C21.0783 23.1743 20.7858 23.0408 20.5501 22.8856C20.3143 22.7303 20.125 22.5315 19.983 22.291C19.841 22.0506 19.769 21.7761 19.769 21.4684C19.769 21.1872 19.8135 20.889 19.9035 20.5747C19.9934 20.2604 20.1269 19.9509 20.3068 19.6451C20.4857 19.3403 20.6958 19.0638 20.9372 18.8167C21.1786 18.5697 21.4674 18.3709 21.8034 18.2194C22.1395 18.0679 22.4926 17.9922 22.8618 17.9922C23.2017 17.9922 23.5122 18.0594 23.7934 18.1948C24.0745 18.3302 24.3112 18.5072 24.5034 18.7268C24.6955 18.9464 24.8631 19.2106 25.0079 19.5192C25.1518 19.8278 25.2645 20.1402 25.345 20.4564C25.4254 20.7726 25.4879 21.1096 25.5315 21.4684H26.1184V21.4693ZM21.4589 20.9098C21.4589 21.0632 21.5034 21.1749 21.5933 21.244C21.6832 21.3131 21.8915 21.3671 22.2181 21.4059C22.5447 21.4447 23.0635 21.4655 23.7725 21.4693C23.5349 20.6467 23.0436 20.2358 22.2976 20.2358C22.042 20.2358 21.8375 20.2992 21.6861 20.4251C21.5346 20.5511 21.4589 20.7129 21.4589 20.9108V20.9098Z" fill="white"/>
<path d="M26.9515 18.4368C26.4034 18.0127 25.9736 17.6018 25.6631 17.2032C25.9736 16.8047 26.4034 16.3938 26.9515 15.9697C27.1711 16.1344 27.4523 16.3806 27.7959 16.71C28.0989 16.4175 28.381 16.1714 28.6404 15.9697C29.108 16.3209 29.5378 16.7318 29.9288 17.2032C29.5378 17.6747 29.108 18.0855 28.6404 18.4368C28.381 18.2361 28.0998 17.989 27.7959 17.6965C27.4523 18.025 27.1711 18.272 26.9515 18.4368ZM29.7594 21.469L30.3236 22.0332V23.7164H30.2687C29.8446 23.7164 29.5132 23.5876 29.2737 23.3301C29.0342 23.0726 28.8638 22.6589 28.7616 22.0881C28.6006 22.6476 28.3374 23.0584 27.972 23.3216C27.6066 23.5848 27.173 23.7164 26.6722 23.7164H26.5624L25.9973 23.1569V21.468H26.0579C26.321 21.468 26.5179 21.3781 26.6476 21.1992C26.7773 21.0202 26.8426 20.6984 26.8426 20.2345V19.2253H28.9206V20.349C28.9206 20.7656 28.984 21.0562 29.1099 21.2209C29.2358 21.3857 29.4346 21.468 29.7044 21.468H29.7594V21.469Z" fill="white"/>
<path d="M32.1163 21.4697L32.6758 22.0339V23.7171H30.2087L29.6436 23.1576V21.4688H32.1163V21.4697Z" fill="white"/>
<path d="M40.1428 18.3281H42.2208V20.9106C42.2208 21.4256 42.1621 21.8753 42.0457 22.2596C41.9283 22.643 41.7664 22.9469 41.5581 23.1694C41.3499 23.3928 41.1132 23.5575 40.8481 23.6655C40.5831 23.7734 40.2915 23.8273 39.9734 23.8273H39.8636C39.4612 23.816 39.1432 23.6825 38.9093 23.4241C38.6755 23.1666 38.5108 22.7595 38.4161 22.2038C38.2552 22.7633 37.992 23.1732 37.6266 23.4345C37.2612 23.6957 36.8276 23.8264 36.3268 23.8264H36.2113C35.7986 23.815 35.4757 23.6759 35.2438 23.407C35.0119 23.1382 34.8481 22.7131 34.7534 22.1318C34.5887 22.6762 34.3246 23.0766 33.9611 23.3322C33.5975 23.5878 33.1687 23.7156 32.6755 23.7156H32.5657L32.0005 23.1561V21.4673H32.0611C32.3242 21.4673 32.5212 21.3773 32.6509 21.1984C32.7805 21.0195 32.8459 20.6976 32.8459 20.2338V19.2246H34.9238V20.4581C34.9238 20.8747 34.9872 21.1662 35.1132 21.3328C35.2391 21.4995 35.4379 21.5828 35.7077 21.5828C35.9775 21.5828 36.1678 21.4928 36.2993 21.3139C36.4309 21.135 36.4963 20.8131 36.4963 20.3492V19.2255H38.5685V20.4591C38.5685 20.8756 38.6329 21.1672 38.7607 21.3338C38.8885 21.5004 39.0883 21.5837 39.3581 21.5837C39.6279 21.5837 39.8172 21.4938 39.9478 21.3149C40.0775 21.1359 40.1428 20.8141 40.1428 20.3502V18.3271V18.3281Z" fill="white"/>
<path d="M43.3389 23.7164V15.6299H45.4168V23.7164H43.3389Z" fill="white"/>
<path d="M3.6458 32.3469H2.06202V34.6199H1.59814V29.168H3.36938C3.95063 29.168 4.40504 29.309 4.73259 29.5902C5.05919 29.8723 5.22297 30.2661 5.22297 30.7716C5.22297 31.121 5.12073 31.4286 4.91624 31.6956C4.71176 31.9626 4.43723 32.1472 4.09264 32.2494L5.45585 34.5706V34.6189H4.96547L3.6477 32.346L3.6458 32.3469ZM2.06202 31.9578H3.47351C3.8607 31.9578 4.17121 31.848 4.40599 31.6274C4.64076 31.4078 4.75815 31.1229 4.75815 30.7726C4.75815 30.3873 4.63603 30.0891 4.39084 29.8761C4.1466 29.664 3.80295 29.5571 3.36086 29.5571H2.06202V31.9569V31.9578Z" fill="white"/>
<path d="M10.4903 32.1904C10.4903 32.7092 10.3985 33.1617 10.2148 33.5479C10.0312 33.9332 9.76987 34.2248 9.43001 34.4217L10.4221 35.287L10.104 35.5719L8.9917 34.6101C8.78722 34.6678 8.57895 34.6962 8.36595 34.6962C7.95131 34.6962 7.58305 34.594 7.25929 34.3895C6.93552 34.185 6.6856 33.8944 6.50857 33.5186C6.33154 33.1427 6.24161 32.7092 6.23877 32.2178V31.6072C6.23877 31.1102 6.32681 30.671 6.50289 30.2876C6.67897 29.9042 6.92795 29.6097 7.24982 29.4043C7.57169 29.1989 7.94089 29.0957 8.35838 29.0957C8.77586 29.0957 9.15548 29.1979 9.47829 29.4024C9.80016 29.6069 10.0491 29.9004 10.2252 30.2819C10.4013 30.6634 10.4893 31.1046 10.4893 31.6034V32.1913L10.4903 32.1904ZM10.0293 31.5987C10.0293 30.9427 9.88063 30.4277 9.58338 30.0566C9.28612 29.6845 8.8781 29.499 8.35932 29.499C7.84055 29.499 7.45241 29.6855 7.15231 30.0585C6.85127 30.4315 6.70075 30.9531 6.70075 31.6214V32.1904C6.70075 32.837 6.85032 33.3491 7.14853 33.7278C7.44673 34.1055 7.85285 34.2948 8.3669 34.2948C8.88094 34.2948 9.29275 34.1093 9.58716 33.7373C9.88158 33.3652 10.0293 32.8464 10.0293 32.18V31.5997V31.5987Z" fill="white"/>
<path d="M12.2757 29.1689L14.2864 33.9799L16.3048 29.1689H16.9192V34.6208H16.4591V32.2465L16.4969 29.8126L14.4673 34.6198H14.1113L12.0892 29.8306L12.1271 32.2304V34.6189H11.667V29.167H12.2776L12.2757 29.1689Z" fill="white"/>
<path d="M23.2506 33.28C23.2506 32.978 23.1446 32.7394 22.9326 32.5633C22.7205 32.3872 22.3324 32.2206 21.7682 32.0616C21.2039 31.9035 20.7921 31.7302 20.5327 31.5428C20.1635 31.2787 19.9789 30.9312 19.9789 30.5015C19.9789 30.0717 20.1503 29.746 20.4939 29.4847C20.8366 29.2244 21.2759 29.0938 21.8098 29.0938C22.1714 29.0938 22.4952 29.1638 22.7811 29.303C23.067 29.4431 23.2885 29.6371 23.4457 29.8871C23.6028 30.137 23.6814 30.4153 23.6814 30.722H23.2175C23.2175 30.349 23.0907 30.0489 22.836 29.8227C22.5813 29.5964 22.2396 29.4828 21.8098 29.4828C21.38 29.4828 21.061 29.5756 20.8139 29.7621C20.5668 29.9486 20.4428 30.1919 20.4428 30.491C20.4428 30.7684 20.5536 30.9947 20.776 31.1698C20.9985 31.3449 21.3535 31.4993 21.8429 31.6327C22.3324 31.7662 22.7025 31.9054 22.9553 32.0483C23.208 32.1913 23.3974 32.3636 23.5242 32.5633C23.6511 32.7631 23.7155 32.9988 23.7155 33.2714C23.7155 33.7012 23.5441 34.0449 23.2005 34.3052C22.8568 34.5646 22.4053 34.6943 21.8429 34.6943C21.4586 34.6943 21.1055 34.6252 20.7855 34.4879C20.4646 34.3506 20.2213 34.1585 20.0556 33.9114C19.8899 33.6643 19.8066 33.3812 19.8066 33.0613H20.2667C20.2667 33.4456 20.4106 33.7486 20.6975 33.971C20.9843 34.1935 21.3668 34.3043 21.8429 34.3043C22.2671 34.3043 22.6079 34.2105 22.8654 34.0231C23.1228 33.8357 23.2506 33.5876 23.2506 33.2781V33.28Z" fill="white"/>
<path d="M28.4061 29.559H26.5374V34.6209H26.0764V29.559H24.2114V29.1699H28.4052V29.559H28.4061Z" fill="white"/>
<path d="M33.041 29.1689V32.8903C33.0381 33.2576 32.9576 33.5766 32.7977 33.8483C32.6377 34.12 32.4124 34.3292 32.1217 34.475C31.8311 34.6208 31.4969 34.6937 31.1201 34.6937C30.5455 34.6937 30.0864 34.5375 29.7408 34.2242C29.3953 33.9108 29.2164 33.4772 29.2031 32.9234V29.168H29.6604V32.8562C29.6604 33.3154 29.791 33.6723 30.0532 33.925C30.3155 34.1787 30.6714 34.3046 31.1201 34.3046C31.5689 34.3046 31.9248 34.1778 32.1852 33.9231C32.4455 33.6685 32.5761 33.3144 32.5761 32.86V29.168H33.04L33.041 29.1689Z" fill="white"/>
<path d="M34.3257 34.6199V29.168H35.8498C36.2967 29.168 36.6971 29.2693 37.0521 29.4728C37.4062 29.6763 37.6826 29.9679 37.8814 30.3466C38.0802 30.7262 38.1787 31.1579 38.1787 31.6416V32.1434C38.1787 32.63 38.0802 33.0616 37.8833 33.4384C37.6864 33.8152 37.4081 34.1058 37.0502 34.3113C36.6924 34.5157 36.2806 34.618 35.8167 34.618H34.3266L34.3257 34.6199ZM34.7858 29.558V34.2308H35.8195C36.3932 34.2308 36.8543 34.0405 37.2007 33.659C37.5472 33.2784 37.7214 32.7625 37.7214 32.1131V31.6331C37.7214 31.0064 37.5501 30.5037 37.2083 30.127C36.8666 29.7502 36.4159 29.5599 35.8565 29.5571H34.7858V29.558Z" fill="white"/>
<path d="M39.9083 34.6199H39.4482V29.168H39.9083V34.6199Z" fill="white"/>
<path d="M45.4161 32.1903C45.4161 32.6921 45.329 33.1323 45.1558 33.5119C44.9826 33.8915 44.7345 34.1831 44.4127 34.3876C44.0908 34.592 43.7187 34.6943 43.2965 34.6943C42.6604 34.6943 42.1454 34.4661 41.7544 34.0108C41.3625 33.5554 41.1665 32.9401 41.1665 32.1667V31.6053C41.1665 31.1083 41.2545 30.669 41.4306 30.2856C41.6067 29.9022 41.8557 29.6078 42.1776 29.4024C42.4994 29.1969 42.8705 29.0938 43.2899 29.0938C43.7093 29.0938 44.0794 29.195 44.4004 29.3967C44.7213 29.5993 44.9684 29.8852 45.1435 30.2544C45.3186 30.6236 45.4095 31.0515 45.4171 31.539V32.1903H45.4161ZM44.9551 31.5987C44.9551 30.9426 44.8065 30.4276 44.5092 30.0565C44.212 29.6845 43.8049 29.4989 43.289 29.4989C42.773 29.4989 42.3782 29.6854 42.0782 30.0584C41.7771 30.4314 41.6266 30.953 41.6266 31.6214V32.1903C41.6266 32.8369 41.7762 33.3491 42.0763 33.7277C42.3754 34.1055 42.7825 34.2948 43.2965 34.2948C43.8106 34.2948 44.2252 34.1083 44.5168 33.7353C44.8084 33.3623 44.9551 32.8426 44.9551 32.1761V31.5996V31.5987Z" fill="white"/>
</g>
<defs>
<clipPath id="clip0_825_6740">
<rect width="79.6012" height="35.1595" fill="white" transform="translate(0.314453 0.421875)"/>
</clipPath>
</defs>
</svg>
