<svg width="77" height="34" viewBox="0 0 77 34" fill="none" xmlns="http://www.w3.org/2000/svg">
<path d="M6.84004 6.34388L7.36803 6.87633V8.46476H6.2656C6.19323 8.83373 6.07531 9.17232 5.91092 9.48143C5.74744 9.79054 5.53392 10.0684 5.27216 10.3167C5.0104 10.5651 4.68163 10.7599 4.28676 10.901C3.89189 11.0422 3.44966 11.1127 2.9592 11.1127C2.30703 11.1127 1.7451 11.0422 1.2725 10.901C1.16887 10.4561 1.11705 9.78875 1.11705 8.89895C1.52711 8.96059 1.99971 8.99186 2.53484 8.99186C3.11107 8.99186 3.56044 8.94451 3.88295 8.84981C4.20546 8.75511 4.43417 8.60949 4.56818 8.41295C4.14382 8.38525 3.76056 8.34594 3.41929 8.29413C3.07802 8.24231 2.74211 8.1637 2.41334 8.05828C2.08369 7.95286 1.80763 7.82689 1.58518 7.68038C1.36273 7.53386 1.18406 7.34625 1.05005 7.11933C0.916041 6.89242 0.848145 6.63334 0.848145 6.34299C0.848145 6.07766 0.890133 5.79624 0.975004 5.49964C1.05988 5.20304 1.18584 4.9109 1.35558 4.62234C1.52443 4.33467 1.72276 4.0738 1.95057 3.84063C2.17839 3.60746 2.45087 3.41985 2.76802 3.27691C3.08517 3.13397 3.4184 3.0625 3.76681 3.0625C4.08754 3.0625 4.38057 3.12593 4.6459 3.25368C4.91123 3.38144 5.13458 3.5485 5.31593 3.75576C5.49729 3.96303 5.65542 4.21228 5.7921 4.50352C5.9279 4.79476 6.03421 5.08958 6.11015 5.38797C6.18608 5.68635 6.24505 6.0044 6.28614 6.34299H6.84004V6.34388ZM2.44283 5.81589C2.44283 5.96062 2.48482 6.06604 2.56969 6.13126C2.65456 6.19647 2.8511 6.2474 3.15932 6.28403C3.46753 6.32065 3.9571 6.34031 4.62624 6.34388C4.40201 5.56753 3.93834 5.17981 3.23436 5.17981C2.99315 5.17981 2.80018 5.23966 2.65724 5.35848C2.5143 5.4773 2.44283 5.63007 2.44283 5.81679V5.81589Z" fill="white"/>
<path d="M9.06007 6.34464L9.58806 6.8771V8.46553H7.25991L6.72656 7.93754V6.34375H9.06007V6.34464Z" fill="white"/>
<path d="M11.0729 9.20553C11.2658 9.35025 11.4758 9.53161 11.7018 9.7487C11.9278 9.96579 12.1235 10.1748 12.2888 10.375C11.9198 10.8199 11.5142 11.2076 11.0729 11.539C10.8281 11.3496 10.5627 11.1165 10.276 10.8404C9.94095 11.1647 9.6774 11.397 9.48443 11.539C8.95645 11.1317 8.54996 10.7439 8.26318 10.375C8.40434 10.1918 8.59105 9.9917 8.82155 9.77461C9.05293 9.55752 9.2736 9.36723 9.48354 9.20553C9.65954 9.33685 9.92308 9.57092 10.2751 9.90951C10.5824 9.61648 10.8477 9.38152 11.072 9.20553H11.0729ZM9.58807 8.46491H9.48443L8.95198 7.93693V6.34314H9.00916C9.25751 6.34314 9.44334 6.25827 9.56573 6.08942C9.68812 5.92057 9.74977 5.61682 9.74977 5.17906V3.37891H11.7107V5.71241C11.7107 6.19841 11.6553 6.62277 11.5455 6.98548C11.4347 7.3473 11.2819 7.63407 11.0854 7.84402C10.8888 8.05485 10.6655 8.2103 10.4153 8.31215C10.1652 8.41399 9.89003 8.46491 9.58985 8.46491H9.58807Z" fill="white"/>
<path d="M13.0803 6.02891C13.4153 6.14594 13.829 6.246 14.3221 6.32909C14.8153 6.41217 15.2468 6.45327 15.6157 6.45327C16.0231 6.45327 16.3385 6.43897 16.5627 6.40949C16.787 6.38001 16.9344 6.3407 17.0049 6.29067C17.0755 6.24064 17.1112 6.17453 17.1112 6.09145C17.1112 5.91188 16.9049 5.71176 16.493 5.4911C16.0812 5.27043 15.4487 4.9908 14.5964 4.65311C14.6616 4.34579 14.7876 3.98486 14.9743 3.56944C15.1601 3.15402 15.3415 2.80828 15.5175 2.53223C16.0213 2.79756 16.4635 3.09952 16.845 3.43722C17.2265 3.77492 17.5249 4.12065 17.7402 4.47443C17.9555 4.82821 18.1163 5.17574 18.2217 5.51701C18.3271 5.85828 18.3798 6.19508 18.3798 6.52563C18.3798 6.79811 18.3254 7.05362 18.2173 7.29126C18.1083 7.52889 17.9466 7.74509 17.7313 7.93806C17.5159 8.13103 17.2247 8.28469 16.8593 8.39815C16.4939 8.51161 16.0767 8.56879 15.6077 8.56879C14.7938 8.56879 14.0228 8.42942 13.2947 8.14979C13.1536 7.58786 13.0821 6.8803 13.0821 6.02891H13.0803Z" fill="white"/>
<path d="M25.0007 6.34388L25.5287 6.87633V8.46476H24.4262C24.3539 8.83373 24.236 9.17232 24.0716 9.48143C23.9081 9.79054 23.6946 10.0684 23.4328 10.3167C23.171 10.5651 22.8423 10.7599 22.4474 10.901C22.0525 11.0422 21.6103 11.1127 21.1198 11.1127C20.4677 11.1127 19.9057 11.0422 19.4331 10.901C19.3295 10.4561 19.2777 9.78875 19.2777 8.89895C19.6878 8.96059 20.1604 8.99186 20.6955 8.99186C21.2717 8.99186 21.7211 8.94451 22.0436 8.84981C22.3661 8.75511 22.5948 8.60949 22.7288 8.41295C22.3045 8.38525 21.9212 8.34594 21.5799 8.29413C21.2387 8.24231 20.9028 8.1637 20.574 8.05828C20.2443 7.95286 19.9683 7.82689 19.7458 7.68038C19.5234 7.53386 19.3447 7.34625 19.2107 7.11933C19.0767 6.89242 19.0088 6.63334 19.0088 6.34299C19.0088 6.07766 19.0508 5.79624 19.1356 5.49964C19.2205 5.20304 19.3465 4.9109 19.5162 4.62234C19.6851 4.33467 19.8834 4.0738 20.1112 3.84063C20.339 3.60746 20.6115 3.41985 20.9287 3.27691C21.2458 3.13397 21.579 3.0625 21.9275 3.0625C22.2482 3.0625 22.5412 3.12593 22.8065 3.25368C23.0719 3.38144 23.2952 3.5485 23.4766 3.75576C23.6579 3.96303 23.8161 4.21228 23.9527 4.50352C24.0885 4.79476 24.1949 5.08958 24.2708 5.38797C24.3467 5.68635 24.4057 6.0044 24.4468 6.34299H25.0007V6.34388ZM20.6035 5.81589C20.6035 5.96062 20.6455 6.06604 20.7303 6.13126C20.8152 6.19647 21.0117 6.2474 21.32 6.28403C21.6282 6.32065 22.1177 6.34031 22.7869 6.34388C22.5627 5.56753 22.099 5.17981 21.395 5.17981C21.1538 5.17981 20.9608 5.23966 20.8179 5.35848C20.6749 5.4773 20.6035 5.63007 20.6035 5.81679V5.81589Z" fill="white"/>
<path d="M25.7867 3.48342C25.2694 3.08319 24.8638 2.69546 24.5708 2.31935C24.8638 1.94323 25.2694 1.55551 25.7867 1.15527C25.994 1.31072 26.2593 1.543 26.5836 1.8539C26.8695 1.57784 27.1357 1.34556 27.3805 1.15527C27.8218 1.48672 28.2274 1.87444 28.5964 2.31935C28.2274 2.76425 27.8218 3.15198 27.3805 3.48342C27.1357 3.29402 26.8704 3.06085 26.5836 2.7848C26.2593 3.0948 25.994 3.32797 25.7867 3.48342ZM28.4365 6.34491L28.9689 6.87737V8.4658H28.9171C28.5169 8.4658 28.2042 8.3443 27.9782 8.1013C27.7521 7.8583 27.5913 7.46789 27.4948 6.92918C27.343 7.45717 27.0946 7.8449 26.7498 8.09326C26.4049 8.34161 25.9957 8.4658 25.5231 8.4658H25.4195L24.8862 7.93781V6.34402H24.9433C25.1917 6.34402 25.3775 6.25915 25.4999 6.0903C25.6223 5.92145 25.684 5.6177 25.684 5.17995V4.2276H27.6449V5.28805C27.6449 5.68113 27.7048 5.9554 27.8236 6.11085C27.9424 6.2663 28.13 6.34402 28.3846 6.34402H28.4365V6.34491Z" fill="white"/>
<path d="M30.6611 6.34464L31.1891 6.8771V8.46553H28.861L28.3276 7.93754V6.34375H30.6611V6.34464Z" fill="white"/>
<path d="M38.236 3.3798H40.1969V5.81694C40.1969 6.30294 40.1415 6.72729 40.0316 7.09C39.9209 7.45182 39.7681 7.7386 39.5716 7.94854C39.375 8.15938 39.1517 8.31483 38.9015 8.41667C38.6514 8.51852 38.3762 8.56944 38.076 8.56944H37.9724C37.5927 8.55872 37.2925 8.43275 37.0719 8.18886C36.8512 7.94586 36.6958 7.56171 36.6064 7.03729C36.4546 7.56528 36.2062 7.95211 35.8614 8.19869C35.5165 8.44526 35.1073 8.56855 34.6347 8.56855H34.5258C34.1362 8.55783 33.8316 8.4265 33.6127 8.17278C33.3938 7.91906 33.2393 7.51793 33.1499 6.9694C32.9945 7.48309 32.7452 7.86099 32.4022 8.1022C32.0591 8.34341 31.6544 8.46402 31.189 8.46402H31.0853L30.552 7.93603V6.34224H30.6092C30.8575 6.34224 31.0434 6.25737 31.1658 6.08853C31.2881 5.91968 31.3498 5.61593 31.3498 5.17817V4.22583H33.3108V5.3899C33.3108 5.78299 33.3706 6.05815 33.4894 6.21539C33.6082 6.37262 33.7959 6.45124 34.0505 6.45124C34.3051 6.45124 34.4847 6.36637 34.6088 6.19752C34.733 6.02867 34.7947 5.72492 34.7947 5.28716V4.22672H36.7503V5.3908C36.7503 5.78388 36.811 6.05904 36.9316 6.21628C37.0522 6.37351 37.2407 6.45213 37.4953 6.45213C37.75 6.45213 37.9286 6.36726 38.0519 6.19841C38.1743 6.02956 38.236 5.72581 38.236 5.28806V3.37891V3.3798Z" fill="white"/>
<path d="M41.2522 8.46523V0.833984H43.2132V8.46523H41.2522Z" fill="white"/>
<path d="M9.10174 21.0314L9.6342 21.5638V23.1523H9.26166C8.51658 23.1523 7.98412 22.8164 7.66251 22.1436C7.53475 22.4885 7.34804 22.7601 7.10147 22.9584C6.85489 23.1567 6.57794 23.2559 6.27151 23.2559C5.64704 23.2559 5.02614 22.8682 4.40882 22.0918H3.75219C3.5208 22.0918 3.35731 22.1365 3.26083 22.2267C3.16434 22.3161 3.1161 22.4697 3.1161 22.6868C3.1161 23.2246 3.2921 24.1582 3.64409 25.4858H2.00295C1.47139 24.0582 1.20605 22.9557 1.20605 22.1794C1.20605 21.8658 1.24358 21.5817 1.31773 21.328C1.39188 21.0743 1.50802 20.8473 1.66704 20.6472C1.82606 20.4471 2.03779 20.289 2.30312 20.1737C2.56846 20.0585 2.88293 19.9915 3.24475 19.9745C3.28584 19.7646 3.34302 19.5591 3.41538 19.359C3.48775 19.1589 3.58512 18.9596 3.70752 18.7613C3.82991 18.563 3.97017 18.3906 4.12919 18.244C4.28821 18.0975 4.48029 17.9787 4.70631 17.8867C4.93234 17.7956 5.17623 17.75 5.43889 17.75C5.7873 17.75 6.10445 17.8233 6.39123 17.9698C6.67711 18.1163 6.91564 18.3173 7.10504 18.5728C7.29443 18.8283 7.4472 19.1187 7.56245 19.4447C7.67769 19.7708 7.75631 20.1237 7.79741 20.5025C7.84208 20.6919 7.93588 20.8277 8.07972 20.909C8.22266 20.9903 8.44064 21.0305 8.73456 21.0305H9.10174V21.0314ZM5.66134 21.5638C6.01333 21.5638 6.18932 21.3244 6.18932 20.8447C6.18932 20.7035 6.18039 20.5802 6.16342 20.4748C6.14644 20.3694 6.11517 20.2675 6.0705 20.1693C6.02584 20.071 5.95705 19.996 5.86324 19.9441C5.77033 19.8923 5.6524 19.8664 5.51125 19.8664C5.11816 19.8664 4.76438 20.0755 4.45081 20.4927C4.75456 20.9269 4.98505 21.2145 5.14407 21.3539C5.30309 21.4933 5.47551 21.5638 5.66134 21.5638Z" fill="white"/>
<path d="M11.3262 21.0321L11.8542 21.5646V23.153H9.52602L8.99268 22.625V21.0312H11.3262V21.0321Z" fill="white"/>
<path d="M13.5518 21.0321L14.0798 21.5646V23.153H11.7516L11.2183 22.625V21.0312H13.5518V21.0321Z" fill="white"/>
<path d="M15.7762 21.0321L16.3042 21.5646V23.153H13.9761L13.4436 22.625V21.0312H15.7771L15.7762 21.0321Z" fill="white"/>
<path d="M18.0007 21.0321L18.5287 21.5646V23.153H16.2006L15.6672 22.625V21.0312H18.0007V21.0321Z" fill="white"/>
<path d="M20.2261 21.0321L20.7541 21.5646V23.153H18.4259L17.8926 22.625V21.0312H20.2261V21.0321Z" fill="white"/>
<path d="M22.4505 21.0321L22.9785 21.5646V23.153H20.6504L20.1179 22.625V21.0312H22.4514L22.4505 21.0321Z" fill="white"/>
<path d="M24.6753 21.0321L25.2033 21.5646V23.153H22.8751L22.3418 22.625V21.0312H24.6753V21.0321Z" fill="white"/>
<path d="M26.9007 21.0321L27.4287 21.5646V23.153H25.1006L24.5681 22.625V21.0312H26.9016L26.9007 21.0321Z" fill="white"/>
<path d="M29.1251 21.0321L29.6531 21.5646V23.153H27.3249L26.7925 22.625V21.0312H29.126L29.1251 21.0321Z" fill="white"/>
<path d="M31.3496 21.0321L31.8776 21.5646V23.153H29.5495L29.0161 22.625V21.0312H31.3496V21.0321Z" fill="white"/>
<path d="M33.5741 21.0321L34.1021 21.5646V23.153H31.7739L31.2415 22.625V21.0312H33.575L33.5741 21.0321Z" fill="white"/>
<path d="M37.3879 15.9463C37.6774 15.9463 37.9445 15.9918 38.1875 16.083C38.4305 16.1741 38.6404 16.2974 38.8164 16.4528C38.9924 16.6083 39.1479 16.7959 39.2846 17.0165C39.4204 17.2372 39.5329 17.4686 39.6205 17.7098C39.708 17.951 39.7804 18.211 39.8349 18.4888C39.8903 18.7667 39.9287 19.0347 39.951 19.2938C39.9734 19.5528 39.985 19.8146 39.985 20.0799C39.985 20.4007 39.9474 20.7071 39.8715 20.9983C39.7956 21.2896 39.6714 21.5683 39.499 21.8336C39.3265 22.099 39.1112 22.3286 38.8522 22.5215C38.5931 22.7145 38.2697 22.8682 37.882 22.9816C37.4942 23.0951 37.06 23.1523 36.5803 23.1523H33.9984L33.4651 22.6243V21.0305H36.1604C36.6017 21.0305 36.9743 21.0037 37.278 20.9501C37.5818 20.8965 37.8114 20.8188 37.9686 20.7169C38.1258 20.6151 38.2357 20.5061 38.3001 20.3882C38.3635 20.2711 38.3956 20.1362 38.3956 19.9843C38.3956 19.9084 38.3885 19.7842 38.3751 19.6118C38.2063 19.8119 37.9901 19.9852 37.7256 20.1318C37.4621 20.2783 37.1869 20.3855 36.9001 20.4525C36.6134 20.5195 36.3248 20.5436 36.0336 20.5248C35.7423 20.5061 35.4814 20.4435 35.2518 20.339C35.0222 20.2336 34.8355 20.0674 34.6908 19.8396C34.5461 19.6118 34.4737 19.3375 34.4737 19.0168C34.4737 18.7551 34.5148 18.4826 34.5979 18.1994C34.681 17.9162 34.8069 17.641 34.9758 17.3712C35.1446 17.1023 35.343 16.862 35.5708 16.6494C35.7986 16.4376 36.0702 16.2661 36.3855 16.1375C36.7009 16.0079 37.035 15.9436 37.387 15.9436L37.3879 15.9463ZM36.5964 15.2066C36.0684 14.7992 35.6619 14.4114 35.3751 14.0425C35.5163 13.8593 35.703 13.6592 35.9335 13.4421C36.1649 13.225 36.3855 13.0347 36.5955 12.873C36.7715 13.0044 37.035 13.2384 37.387 13.577C37.6943 13.284 37.9597 13.049 38.1839 12.873C38.3769 13.0178 38.5868 13.1991 38.8129 13.4162C39.0389 13.6333 39.2345 13.8424 39.3998 14.0425C39.0308 14.4874 38.6252 14.8751 38.1839 15.2066C37.9391 15.0172 37.6738 14.784 37.387 14.5079C37.052 14.8322 36.7885 15.0654 36.5955 15.2066H36.5964ZM36.063 18.7041C36.063 18.8417 36.1175 18.9427 36.2256 19.007C36.3346 19.0704 36.549 19.1097 36.8698 19.1231C37.1905 19.1365 37.6425 19.1097 38.225 19.04C38.1142 18.747 37.9463 18.5112 37.7203 18.3334C37.4942 18.1556 37.2075 18.0672 36.859 18.0672C36.6143 18.0672 36.4204 18.127 36.2766 18.2458C36.1336 18.3646 36.0621 18.5174 36.0621 18.7032L36.063 18.7041Z" fill="white"/>
<path d="M40.3003 23.4688C40.4933 23.4688 40.6442 23.4545 40.7532 23.425C40.8622 23.3955 40.9578 23.3312 41.04 23.2311C41.1231 23.1311 41.1785 22.9899 41.208 22.8068C41.2374 22.6236 41.2517 22.3753 41.2517 22.0617V18.0674H43.2127V22.5379C43.2127 23.542 42.9706 24.2942 42.4855 24.7963C42.0013 25.2984 41.3259 25.5628 40.4602 25.5905C40.353 25.0867 40.3003 24.38 40.3003 23.4696V23.4688Z" fill="white"/>
<path d="M5.16906 31.5423C5.16906 31.2573 5.069 31.0322 4.86888 30.866C4.66877 30.6999 4.30248 30.5426 3.77003 30.3925C3.23757 30.2433 2.84895 30.0799 2.60417 29.903C2.25575 29.6537 2.08154 29.3258 2.08154 28.9203C2.08154 28.5147 2.24324 28.2073 2.56754 27.9608C2.89094 27.7151 3.30547 27.5918 3.80934 27.5918C4.15061 27.5918 4.45614 27.6579 4.72594 27.7892C4.99574 27.9215 5.20479 28.1046 5.3531 28.3404C5.5014 28.5763 5.57555 28.839 5.57555 29.1284H5.13779C5.13779 28.7764 5.01808 28.4932 4.77776 28.2797C4.53744 28.0662 4.21493 27.959 3.80934 27.959C3.40374 27.959 3.10267 28.0465 2.8695 28.2225C2.63633 28.3985 2.5193 28.6281 2.5193 28.9104C2.5193 29.1722 2.62382 29.3857 2.83377 29.551C3.04371 29.7163 3.37873 29.8619 3.84061 29.9878C4.30248 30.1138 4.65179 30.2451 4.89033 30.38C5.12886 30.5149 5.30753 30.6775 5.42725 30.866C5.54696 31.0545 5.60771 31.277 5.60771 31.5343C5.60771 31.9399 5.44601 32.2642 5.12171 32.5098C4.79741 32.7546 4.37127 32.877 3.84061 32.877C3.47789 32.877 3.14466 32.8118 2.8427 32.6823C2.53984 32.5527 2.31025 32.3714 2.1539 32.1382C1.99756 31.905 1.91895 31.6379 1.91895 31.3359H2.35313C2.35313 31.6987 2.48892 31.9845 2.75962 32.1945C3.03031 32.4044 3.39124 32.509 3.84061 32.509C4.24084 32.509 4.56246 32.4205 4.80545 32.2436C5.04845 32.0667 5.16906 31.8327 5.16906 31.5405V31.5423Z" fill="white"/>
<path d="M10.0345 28.0303H8.27096V32.8072H7.83589V28.0303H6.07593V27.6631H10.0336V28.0303H10.0345Z" fill="white"/>
<path d="M14.4086 27.662V31.1739C14.4059 31.5205 14.33 31.8216 14.179 32.078C14.028 32.3344 13.8154 32.5318 13.5412 32.6694C13.2669 32.807 12.9515 32.8758 12.596 32.8758C12.0537 32.8758 11.6204 32.7284 11.2943 32.4327C10.9682 32.137 10.7994 31.7278 10.7869 31.2052V27.6611H11.2184V31.1417C11.2184 31.575 11.3417 31.9118 11.5891 32.1504C11.8366 32.3898 12.1725 32.5086 12.596 32.5086C13.0194 32.5086 13.3553 32.3889 13.601 32.1486C13.8467 31.9083 13.97 31.5741 13.97 31.1453V27.6611H14.4077L14.4086 27.662Z" fill="white"/>
<path d="M15.6206 32.8071V27.6621H17.0589C17.4806 27.6621 17.8585 27.7577 18.1935 27.9498C18.5277 28.1419 18.7885 28.417 18.9761 28.7744C19.1637 29.1326 19.2567 29.54 19.2567 29.9965V30.47C19.2567 30.9292 19.1637 31.3366 18.9779 31.6921C18.7921 32.0477 18.5294 32.322 18.1918 32.5158C17.8541 32.7088 17.4654 32.8053 17.0277 32.8053H15.6215L15.6206 32.8071ZM16.0548 28.0302V32.4399H17.0304C17.5717 32.4399 18.0068 32.2603 18.3338 31.9003C18.6608 31.5412 18.8252 31.0543 18.8252 30.4414V29.9885C18.8252 29.397 18.6635 28.9227 18.3409 28.5671C18.0184 28.2115 17.5932 28.032 17.0652 28.0293H16.0548V28.0302Z" fill="white"/>
<path d="M20.889 32.8071H20.4548V27.6621H20.889V32.8071Z" fill="white"/>
<path d="M26.0866 30.514C26.0866 30.9875 26.0044 31.403 25.8409 31.7612C25.6774 32.1194 25.4433 32.3946 25.1396 32.5876C24.8358 32.7805 24.4847 32.877 24.0863 32.877C23.4859 32.877 22.9999 32.6617 22.631 32.232C22.2611 31.8023 22.0762 31.2216 22.0762 30.4917V29.9619C22.0762 29.4929 22.1593 29.0784 22.3254 28.7166C22.4916 28.3547 22.7266 28.0769 23.0303 27.883C23.334 27.6892 23.6843 27.5918 24.08 27.5918C24.4758 27.5918 24.8251 27.6874 25.128 27.8777C25.4308 28.0689 25.664 28.3387 25.8293 28.6871C25.9945 29.0355 26.0803 29.4393 26.0874 29.8994V30.514H26.0866ZM25.6515 29.9557C25.6515 29.3366 25.5112 28.8506 25.2307 28.5004C24.9502 28.1493 24.566 27.9742 24.0791 27.9742C23.5922 27.9742 23.2197 28.1502 22.9365 28.5022C22.6524 28.8541 22.5104 29.3464 22.5104 29.9771V30.514C22.5104 31.1242 22.6515 31.6075 22.9347 31.9649C23.217 32.3213 23.6012 32.5 24.0863 32.5C24.5714 32.5 24.9627 32.324 25.2378 31.972C25.513 31.62 25.6515 31.1296 25.6515 30.5006V29.9566V29.9557Z" fill="white"/>
<path d="M30.687 30.6601H29.1924V32.8051H28.7546V27.6602H30.4262C30.9747 27.6602 31.4035 27.7933 31.7126 28.0586C32.0208 28.3248 32.1754 28.6965 32.1754 29.1735C32.1754 29.5032 32.0789 29.7935 31.8859 30.0455C31.693 30.2974 31.4339 30.4716 31.1087 30.5681L32.3952 32.7587V32.8042H31.9324L30.6888 30.6592L30.687 30.6601ZM29.1924 30.2929H30.5244C30.8898 30.2929 31.1828 30.1893 31.4044 29.9812C31.626 29.7739 31.7367 29.505 31.7367 29.1744C31.7367 28.8108 31.6215 28.5294 31.3901 28.3284C31.1596 28.1283 30.8353 28.0273 30.4181 28.0273H29.1924V30.2921V30.2929Z" fill="white"/>
<path d="M37.1462 30.5123C37.1462 31.0018 37.0595 31.4289 36.8862 31.7934C36.7129 32.157 36.4663 32.4321 36.1456 32.6179L37.0819 33.4345L36.7817 33.7034L35.732 32.7957C35.539 32.8502 35.3425 32.877 35.1415 32.877C34.7502 32.877 34.4026 32.7805 34.0971 32.5876C33.7916 32.3946 33.5557 32.1203 33.3886 31.7657C33.2216 31.411 33.1367 31.0018 33.134 30.5382V29.9619C33.134 29.4929 33.2171 29.0784 33.3833 28.7166C33.5495 28.3547 33.7844 28.0769 34.0882 27.883C34.3919 27.6892 34.7403 27.5918 35.1343 27.5918C35.5283 27.5918 35.8865 27.6883 36.1912 27.8813C36.4949 28.0742 36.7299 28.3512 36.8961 28.7112C37.0622 29.0712 37.1453 29.4875 37.1453 29.9584V30.5131L37.1462 30.5123ZM36.7111 29.9539C36.7111 29.3348 36.5709 28.8488 36.2903 28.4986C36.0098 28.1475 35.6248 27.9724 35.1352 27.9724C34.6456 27.9724 34.2793 28.1484 33.9961 28.5004C33.712 28.8524 33.57 29.3446 33.57 29.9753V30.5123C33.57 31.1224 33.7112 31.6058 33.9926 31.9631C34.274 32.3196 34.6572 32.4982 35.1423 32.4982C35.6275 32.4982 36.0161 32.3231 36.2939 31.972C36.5718 31.6209 36.7111 31.1314 36.7111 30.5024V29.9548V29.9539Z" fill="white"/>
<path d="M38.831 27.66L40.7286 32.2001L42.6333 27.66H43.2131V32.805H42.7789V30.5644L42.8146 28.2675L40.8992 32.8041H40.5633L38.655 28.2845L38.6908 30.5492V32.8032H38.2566V27.6582H38.8328L38.831 27.66Z" fill="white"/>
<g clip-path="url(#clip0_900_2644)">
<path d="M49.2141 25.2285V21.6781C49.2141 16.1243 51.8986 13.2031 57.11 13.2031C62.3213 13.2031 65.0322 16.1243 65.0322 21.6781V25.2285C65.0322 30.8077 62.3478 33.7035 57.1364 33.7035C51.925 33.7035 49.2141 30.8087 49.2141 25.2285ZM59.3473 25.834V21.0726C59.3473 18.9144 58.5842 17.941 57.1364 17.941C55.6885 17.941 54.899 18.9144 54.899 21.0726V25.834C54.899 27.9922 55.6885 28.9656 57.1364 28.9656C58.5842 28.9656 59.3473 27.9912 59.3473 25.834Z" fill="white"/>
<path d="M49.0796 1.78902V-1.76133C49.0796 -7.31512 51.764 -10.2363 56.9754 -10.2363C62.1868 -10.2363 64.8977 -7.31512 64.8977 -1.76133V1.78902C64.8977 7.36827 62.2132 10.264 57.0018 10.264C51.7905 10.264 49.0796 7.36921 49.0796 1.78902ZM59.2128 2.39458V-2.36689C59.2128 -4.52502 58.4497 -5.49844 57.0018 -5.49844C55.554 -5.49844 54.7645 -4.52502 54.7645 -2.36689V2.39458C54.7645 4.55271 55.554 5.52613 57.0018 5.52613C58.4497 5.52613 59.2128 4.55176 59.2128 2.39458Z" fill="white"/>
<path d="M70.8106 2.88867L67.1565 8.42642H71.3577V7.74352H68.4006L71.3869 3.25559L70.8106 2.88867Z" fill="white"/>
<path d="M77 2.88867V24.8529H70.8096V2.88867H77Z" fill="white"/>
<path d="M70.8104 2.88867L67.1562 8.42642H70.8104V2.88867Z" fill="white"/>
<path d="M70.6758 28.4844L67.0217 34.0221H71.2229V33.3392H68.2659L71.2522 28.8513L70.6758 28.4844Z" fill="white"/>
<path d="M76.8653 28.4844V50.4486H70.6748V28.4844H76.8653Z" fill="white"/>
<path d="M70.6761 28.4844L67.022 34.0221H70.6761V28.4844Z" fill="white"/>
</g>
<defs>
<clipPath id="clip0_900_2644">
<rect width="27.7859" height="30.8165" fill="white" transform="translate(49.2144 2.88672)"/>
</clipPath>
</defs>
</svg>
