<svg width="115" height="35" viewBox="0 0 115 35" fill="none" xmlns="http://www.w3.org/2000/svg">
<g id="&#216;&#180;&#216;&#185;&#216;&#167;&#216;&#177;" opacity="0.4" clip-path="url(#clip0_652_5328)">
<path id="&#216;&#167;&#217;&#132;&#217;&#133;&#216;&#170;&#216;&#172;&#217;&#135; (&#217;&#129;&#217;&#138;&#217;&#131;&#216;&#170;&#217;&#136;&#216;&#177;)" d="M114.222 0.348831C114.212 0.332675 114.195 0.321905 114.174 0.305749C114.147 0.294979 114.125 0.273438 114.093 0.273438L13.2918 0.445766C13.2218 0.445766 13.1571 0.494233 13.1356 0.558856L0.948742 34.5937C0.937971 34.626 0.943357 34.653 0.954127 34.6853C0.959512 34.7068 0.964898 34.723 0.975668 34.7445C0.986439 34.7607 1.00259 34.7768 1.01875 34.7876C1.04568 34.8037 1.0726 34.8253 1.10491 34.8253L101.982 34.6907C102.052 34.6907 102.116 34.6422 102.138 34.5776L114.249 0.499619C114.26 0.467307 114.249 0.440381 114.244 0.413454C114.239 0.386528 114.233 0.364987 114.222 0.348831ZM105.525 18.6533C104.222 21.8576 102.359 23.8555 98.7882 23.8663C95.2878 23.877 91.7874 23.8824 88.2923 23.8878C86.3698 23.8878 85.1473 23.1716 85.1635 21.1683C85.1689 20.8505 85.0719 20.8182 84.8727 21.0713C83.2302 23.2039 81.383 24.2379 78.545 24.1409C75.1523 24.0278 71.765 23.9417 68.3776 23.877C68.1891 23.8717 68.0168 23.834 67.8499 23.7586L66.789 23.2739C66.5897 23.1823 66.4928 23.2416 66.5036 23.4624C66.5143 23.7209 66.3635 23.877 66.0458 23.9363C65.9112 23.9578 65.7765 23.9632 65.6365 23.9578C64.5272 23.904 63.4178 23.9309 62.303 24.0386C61.9853 24.0709 61.6891 23.8717 61.5976 23.5647L60.9837 21.4752C60.9244 21.2813 60.7952 21.1844 60.5905 21.1844H52.3403C52.1518 21.1844 51.9795 21.2437 51.8233 21.3567L36.3353 32.9027C35.6783 33.3928 35.6245 33.3336 36.1737 32.7304L43.8585 24.254C44.0362 24.0548 43.9878 23.9578 43.7239 23.9524L41.7206 23.9147C41.4944 23.9094 41.4082 23.7963 41.4621 23.5755C41.726 22.4984 42.7976 21.0606 41.5052 20.2097C41.4028 20.1397 41.2844 20.1074 41.1605 20.1074H33.955C33.8042 20.1074 33.675 20.1989 33.6211 20.3389L32.3233 23.8609C32.2533 24.0494 32.1133 24.1463 31.914 24.1463H24.2669C24.1108 24.1463 24.0138 24.0709 23.9707 23.9201L23.4107 21.8199C23.3461 21.5775 23.1899 21.4537 22.9368 21.4537H14.4765C14.2988 21.4537 14.1319 21.5345 14.0295 21.6745L12.3386 23.8824C12.2147 24.0494 12.0155 24.1463 11.8054 24.1463H7.28181C6.97485 24.1463 6.92638 24.0332 7.13102 23.807L20.228 9.30452C20.438 9.06757 20.745 8.94371 21.0627 8.96525L25.8502 9.2399C26.0925 9.25067 26.2918 9.423 26.3403 9.65995L28.6398 20.759C28.6667 20.9044 28.7098 20.9098 28.7636 20.7698L33.0234 9.67072C33.1311 9.39069 33.4003 9.2022 33.7019 9.2022H48.4198C49.1953 9.2022 49.8415 9.79458 49.9008 10.5647C50.1647 13.8551 48.9584 16.3431 46.2711 18.034C46.1096 18.1364 46.1096 18.2333 46.2711 18.3356C46.9443 18.7557 47.2189 19.375 47.0897 20.1935C47.0843 20.2312 47.0897 20.2689 47.1004 20.3012C47.1058 20.312 47.1112 20.3174 47.1166 20.3282C47.1274 20.3497 47.1381 20.3712 47.1597 20.3928C47.1705 20.4036 47.1812 20.4143 47.192 20.4197C47.2082 20.4305 47.2189 20.4412 47.2351 20.4466C47.2512 20.452 47.2674 20.4574 47.2835 20.4628C47.2997 20.4682 47.3105 20.4682 47.3266 20.4682C47.3536 20.4682 47.3751 20.4682 47.402 20.4628C47.4128 20.4628 47.4236 20.4574 47.4343 20.4574C47.4666 20.4466 47.499 20.4251 47.5259 20.3982L57.8171 9.40684C57.941 9.2776 58.1079 9.2022 58.2856 9.2022H63.5524C63.8001 9.2022 64.021 9.37992 64.0694 9.62226L66.0404 19.208C66.0458 19.235 66.062 19.2565 66.0835 19.2726C66.0889 19.278 66.0943 19.278 66.0997 19.2834C66.1158 19.2888 66.132 19.2942 66.1481 19.2942C66.1643 19.2942 66.1804 19.2942 66.1966 19.2888C66.202 19.2834 66.2074 19.2834 66.2181 19.278C66.2397 19.2619 66.2558 19.2403 66.2612 19.2134C67.236 15.1637 69.3254 9.423 73.9245 8.90602C74.1076 8.88986 75.6208 8.9491 78.4642 9.08911C80.8445 9.20759 83.2302 9.25606 85.6159 9.22913C88.3731 9.2022 87.5599 10.9309 87.7807 12.5572C87.7969 12.7134 87.8454 12.7188 87.9208 12.5788C89.2617 10.0208 91.1627 8.91679 94.173 8.84678C97.695 8.77138 101.217 8.766 104.734 8.83062C109.613 8.91679 106.731 15.6914 105.525 18.6533Z" fill="#3A405A"/>
<path id="&#216;&#167;&#217;&#132;&#217;&#133;&#216;&#170;&#216;&#172;&#217;&#135; (&#217;&#129;&#217;&#138;&#217;&#131;&#216;&#170;&#217;&#136;&#216;&#177;)_2" d="M44.4243 12.8539C44.3489 12.8162 44.2843 12.7678 44.225 12.7031C44.1658 12.6385 44.0958 12.5793 44.0204 12.5308C43.9288 12.4716 43.805 12.4393 43.6596 12.4393C41.3601 12.4231 39.0175 12.4231 36.621 12.4446C36.4379 12.45 36.2764 12.5631 36.2171 12.7354L35.1508 15.9127C35.0808 16.1066 35.1509 16.2035 35.3555 16.2035H43.4926C43.6919 16.2035 43.8857 16.1282 44.0365 15.9935C44.6451 15.4388 45.5929 13.4248 44.4243 12.8539Z" fill="#3A405A"/>
<path id="&#216;&#167;&#217;&#132;&#217;&#133;&#216;&#170;&#216;&#172;&#217;&#135; (&#217;&#129;&#217;&#138;&#217;&#131;&#216;&#170;&#217;&#136;&#216;&#177;)_3" d="M86.6446 14.4528L83.1011 14.4474C82.9287 14.4474 82.7887 14.3074 82.7887 14.135C82.8264 11.437 76.7949 12.4548 74.937 12.7941C73.1114 13.1226 72.7721 13.9519 72.099 15.4975C71.5389 16.7792 69.7025 20.1881 72.5944 20.3388C74.4308 20.4358 80.3761 21.0335 81.4639 18.4002C81.5339 18.2386 81.6901 18.1309 81.8678 18.1309L85.4221 18.1201C85.6106 18.1201 85.7721 18.0016 85.8314 17.8239L86.8384 14.7166C86.8923 14.5389 86.8277 14.4528 86.6446 14.4528Z" fill="#3A405A"/>
<path id="&#216;&#167;&#217;&#132;&#217;&#133;&#216;&#170;&#216;&#172;&#217;&#135; (&#217;&#129;&#217;&#138;&#217;&#131;&#216;&#170;&#217;&#136;&#216;&#177;)_4" d="M102.504 13.119C100.646 12.0635 98.029 12.4136 95.9773 12.4297C93.7424 12.4459 92.4014 13.3883 91.389 15.4401C90.5812 17.088 89.4072 20.0283 92.2237 20.1845C94.6632 20.3191 97.0866 20.2114 99.5046 19.8614C101.793 19.5329 102.585 15.7578 102.887 13.9053C102.935 13.5929 102.784 13.2806 102.504 13.119Z" fill="#3A405A"/>
<path id="&#216;&#167;&#217;&#132;&#217;&#133;&#216;&#170;&#216;&#172;&#217;&#135; (&#217;&#129;&#217;&#138;&#217;&#131;&#216;&#170;&#217;&#136;&#216;&#177;)_5" d="M59.6268 12.639C59.6215 12.6013 59.5945 12.569 59.5622 12.5475C59.5461 12.5367 59.5245 12.5313 59.503 12.5259C59.4814 12.5205 59.4653 12.5098 59.4437 12.5151C59.4061 12.5205 59.3684 12.5367 59.3414 12.5636L55.0655 17.5288C55.0386 17.5611 55.0278 17.5988 55.0278 17.6419C55.0278 17.6635 55.044 17.6796 55.0494 17.7011C55.0601 17.7227 55.0601 17.7388 55.0763 17.755C55.1032 17.7819 55.1409 17.8035 55.184 17.8035L60.2785 17.8573C60.3054 17.8573 60.3215 17.8412 60.3431 17.8304C60.3592 17.8196 60.3808 17.8142 60.3969 17.7981C60.4077 17.7819 60.4131 17.7604 60.4185 17.7442C60.4239 17.7227 60.44 17.7011 60.4346 17.6742L59.6268 12.639Z" fill="#3A405A"/>
<path id="&#216;&#167;&#217;&#132;&#217;&#133;&#216;&#170;&#216;&#172;&#217;&#135; (&#217;&#129;&#217;&#138;&#217;&#131;&#216;&#170;&#217;&#136;&#216;&#177;)_6" d="M22.2098 13.2417C22.1128 12.7732 21.9082 12.7194 21.5905 13.0748L17.53 17.6038C17.4169 17.7384 17.4438 17.8031 17.6215 17.8031L22.8668 17.8515C23.0445 17.8515 23.1199 17.7654 23.0822 17.593L22.2098 13.2417Z" fill="#3A405A"/>
</g>
<defs>
<clipPath id="clip0_652_5328">
<rect width="113.322" height="34.6061" fill="white" transform="translate(0.937988 0.273438)"/>
</clipPath>
</defs>
</svg>
